<svg width="200" height="200" viewBox="0 0 200 200" fill="none" xmlns="http://www.w3.org/2000/svg">
<path d="M46.3888 19.8136C66.0967 18.3817 90.69 6.38983 100.245 0.572876C109.801 6.38983 133.838 18.3817 153.546 19.8136C173.254 21.2454 184.452 21.6034 187.587 21.6034C194.007 67.2441 185.527 165.506 100.245 193.427C14.964 165.506 5.92794 67.2441 12.3479 21.6034C15.4833 21.6034 26.6809 21.2454 46.3888 19.8136Z" fill="url(#paint0_linear_10384_4442)"/>
<path d="M51.5323 27.6751C69.1709 26.3891 91.1819 15.6186 99.734 10.3941C108.286 15.6186 129.8 26.3891 147.438 27.6751C165.077 28.9611 175.099 29.2827 177.905 29.2827C183.651 70.2748 176.061 158.528 99.734 183.606C23.4071 158.528 15.3199 70.2748 21.0657 29.2827C23.8719 29.2827 33.8938 28.9611 51.5323 27.6751Z" fill="#CB1C22"/>
<path fill-rule="evenodd" clip-rule="evenodd" d="M99.7342 9.34785L100.2 9.63221C104.435 12.2196 111.908 16.1963 120.514 19.6841C129.129 23.1755 138.818 26.1514 147.503 26.7846C165.136 28.0702 175.132 28.3898 177.905 28.3898H178.681L178.789 29.1587C181.678 49.7655 181.216 82.2258 170.439 112.71C159.653 143.218 138.507 171.807 100.013 184.454L99.7342 184.546L99.4555 184.454C60.9632 171.807 39.6927 143.22 28.7821 112.713C17.88 82.2295 17.2929 49.7684 20.1818 29.1587L20.2895 28.3898H21.066C23.8391 28.3898 33.8353 28.0702 51.4676 26.7846C60.1545 26.1513 69.9688 23.1745 78.7096 19.6824C87.4419 16.1937 95.0375 12.2171 99.2687 9.63221L99.7342 9.34785ZM79.3721 21.3407C70.5597 24.8614 60.5492 27.9129 51.5975 28.5656C35.3045 29.7535 25.4892 30.1203 21.8456 30.1695C19.1092 50.5856 19.8104 82.3244 30.4635 112.112C41.2153 142.175 62.0755 170.189 99.7342 182.666C137.391 170.189 158.127 142.177 168.755 112.115C179.286 82.328 179.865 50.5884 177.125 30.1695C173.482 30.1203 163.667 29.7535 147.374 28.5656C138.42 27.9128 128.533 24.8605 119.844 21.339C111.45 17.9374 104.116 14.0741 99.734 11.438C95.3397 14.0764 87.8844 17.9398 79.3721 21.3407Z" fill="url(#paint1_linear_10384_4442)"/>
<path d="M61.3616 38.9945V87.2164H48.2701V51.05H47.9875L37.439 57.3603V46.2467L49.3061 38.9945H61.3616ZM92.2655 88.535C87.886 88.5193 84.1029 87.5068 80.9164 85.4976C77.7299 83.4883 75.2732 80.5922 73.5465 76.8092C71.8199 73.0261 70.9644 68.4896 70.9801 63.1997C70.9957 57.894 71.8591 53.3889 73.5701 49.6844C75.2968 45.9798 77.7456 43.1622 80.9164 41.2314C84.1029 39.3006 87.886 38.3353 92.2655 38.3353C96.645 38.3353 100.428 39.3085 103.615 41.255C106.801 43.1857 109.258 46.0034 110.984 49.7079C112.711 53.4125 113.567 57.9097 113.551 63.1997C113.551 68.521 112.688 73.0732 110.961 76.8563C109.234 80.6393 106.778 83.5354 103.591 85.5447C100.42 87.5382 96.645 88.535 92.2655 88.535ZM92.2655 77.8923C94.5259 77.8923 96.3782 76.715 97.8223 74.3604C99.2822 71.9901 100.004 68.2699 99.9885 63.1997C99.9885 59.8876 99.6589 57.1798 98.9996 55.0764C98.3403 52.9729 97.4299 51.4189 96.2683 50.4143C95.1067 49.394 93.7724 48.8838 92.2655 48.8838C90.0051 48.8838 88.1607 50.0297 86.7322 52.3215C85.3038 54.6133 84.5739 58.2393 84.5425 63.1997C84.5268 66.5746 84.8486 69.353 85.5078 71.5349C86.1671 73.7011 87.0776 75.3022 88.2392 76.3383C89.4164 77.3743 90.7586 77.8923 92.2655 77.8923ZM140.699 88.535C136.32 88.5193 132.537 87.5068 129.35 85.4976C126.164 83.4883 123.707 80.5922 121.98 76.8092C120.254 73.0261 119.398 68.4896 119.414 63.1997C119.43 57.894 120.293 53.3889 122.004 49.6844C123.731 45.9798 126.179 43.1622 129.35 41.2314C132.537 39.3006 136.32 38.3353 140.699 38.3353C145.079 38.3353 148.862 39.3085 152.048 41.255C155.235 43.1857 157.692 46.0034 159.418 49.7079C161.145 53.4125 162 57.9097 161.985 63.1997C161.985 68.521 161.121 73.0732 159.395 76.8563C157.668 80.6393 155.211 83.5354 152.025 85.5447C148.854 87.5382 145.079 88.535 140.699 88.535ZM140.699 77.8923C142.96 77.8923 144.812 76.715 146.256 74.3604C147.716 71.9901 148.438 68.2699 148.422 63.1997C148.422 59.8876 148.093 57.1798 147.433 55.0764C146.774 52.9729 145.864 51.4189 144.702 50.4143C143.54 49.394 142.206 48.8838 140.699 48.8838C138.439 48.8838 136.594 50.0297 135.166 52.3215C133.738 54.6133 133.008 58.2393 132.976 63.1997C132.961 66.5746 133.282 69.353 133.942 71.5349C134.601 73.7011 135.511 75.3022 136.673 76.3383C137.85 77.3743 139.192 77.8923 140.699 77.8923Z" fill="white"/>
<path d="M61.3616 38.9945V87.2164H48.2701V51.05H47.9875L37.439 57.3603V46.2467L49.3061 38.9945H61.3616ZM92.2655 88.535C87.886 88.5193 84.1029 87.5068 80.9164 85.4976C77.7299 83.4883 75.2732 80.5922 73.5465 76.8092C71.8199 73.0261 70.9644 68.4896 70.9801 63.1997C70.9957 57.894 71.8591 53.3889 73.5701 49.6844C75.2968 45.9798 77.7456 43.1622 80.9164 41.2314C84.1029 39.3006 87.886 38.3353 92.2655 38.3353C96.645 38.3353 100.428 39.3085 103.615 41.255C106.801 43.1857 109.258 46.0034 110.984 49.7079C112.711 53.4125 113.567 57.9097 113.551 63.1997C113.551 68.521 112.688 73.0732 110.961 76.8563C109.234 80.6393 106.778 83.5354 103.591 85.5447C100.42 87.5382 96.645 88.535 92.2655 88.535ZM92.2655 77.8923C94.5259 77.8923 96.3782 76.715 97.8223 74.3604C99.2822 71.9901 100.004 68.2699 99.9885 63.1997C99.9885 59.8876 99.6589 57.1798 98.9996 55.0764C98.3403 52.9729 97.4299 51.4189 96.2683 50.4143C95.1067 49.394 93.7724 48.8838 92.2655 48.8838C90.0051 48.8838 88.1607 50.0297 86.7322 52.3215C85.3038 54.6133 84.5739 58.2393 84.5425 63.1997C84.5268 66.5746 84.8486 69.353 85.5078 71.5349C86.1671 73.7011 87.0776 75.3022 88.2392 76.3383C89.4164 77.3743 90.7586 77.8923 92.2655 77.8923ZM140.699 88.535C136.32 88.5193 132.537 87.5068 129.35 85.4976C126.164 83.4883 123.707 80.5922 121.98 76.8092C120.254 73.0261 119.398 68.4896 119.414 63.1997C119.43 57.894 120.293 53.3889 122.004 49.6844C123.731 45.9798 126.179 43.1622 129.35 41.2314C132.537 39.3006 136.32 38.3353 140.699 38.3353C145.079 38.3353 148.862 39.3085 152.048 41.255C155.235 43.1857 157.692 46.0034 159.418 49.7079C161.145 53.4125 162 57.9097 161.985 63.1997C161.985 68.521 161.121 73.0732 159.395 76.8563C157.668 80.6393 155.211 83.5354 152.025 85.5447C148.854 87.5382 145.079 88.535 140.699 88.535ZM140.699 77.8923C142.96 77.8923 144.812 76.715 146.256 74.3604C147.716 71.9901 148.438 68.2699 148.422 63.1997C148.422 59.8876 148.093 57.1798 147.433 55.0764C146.774 52.9729 145.864 51.4189 144.702 50.4143C143.54 49.394 142.206 48.8838 140.699 48.8838C138.439 48.8838 136.594 50.0297 135.166 52.3215C133.738 54.6133 133.008 58.2393 132.976 63.1997C132.961 66.5746 133.282 69.353 133.942 71.5349C134.601 73.7011 135.511 75.3022 136.673 76.3383C137.85 77.3743 139.192 77.8923 140.699 77.8923Z" fill="url(#paint2_linear_10384_4442)"/>
<g filter="url(#filter0_d_10384_4442)">
<path d="M73.3861 100.373V124.216H67.9842L59.369 111.689H59.2293V124.216H52.7562V100.373H58.2513L66.7268 112.854H66.9131V100.373H73.3861ZM91.9321 108.243C91.8312 107.832 91.6721 107.471 91.4548 107.161C91.2375 106.842 90.9658 106.575 90.6398 106.357C90.3216 106.132 89.9491 105.965 89.5222 105.857C89.1031 105.74 88.6413 105.682 88.1368 105.682C87.0502 105.682 86.1227 105.942 85.3543 106.462C84.5937 106.982 84.0116 107.731 83.608 108.709C83.2121 109.687 83.0142 110.867 83.0142 112.248C83.0142 113.645 83.2044 114.841 83.5847 115.834C83.965 116.828 84.5316 117.588 85.2844 118.116C86.0373 118.644 86.9726 118.908 88.0902 118.908C89.0759 118.908 89.8947 118.764 90.5467 118.477C91.2064 118.19 91.6993 117.782 92.0253 117.254C92.3512 116.727 92.5142 116.106 92.5142 115.392L93.6319 115.508H88.1833V110.898H98.7544V114.204C98.7544 116.377 98.2926 118.236 97.369 119.781C96.4532 121.318 95.188 122.497 93.5737 123.32C91.967 124.135 90.1237 124.542 88.0436 124.542C85.723 124.542 83.6856 124.05 81.9315 123.064C80.1774 122.078 78.8075 120.673 77.8218 118.849C76.8439 117.025 76.3549 114.856 76.3549 112.341C76.3549 110.37 76.6537 108.624 77.2513 107.102C77.8567 105.581 78.695 104.297 79.7661 103.249C80.8371 102.193 82.0751 101.398 83.4799 100.862C84.8847 100.319 86.3904 100.047 87.9971 100.047C89.4096 100.047 90.7213 100.249 91.9321 100.653C93.1507 101.049 94.2256 101.615 95.157 102.352C96.0961 103.082 96.8529 103.947 97.4272 104.949C98.0016 105.95 98.3508 107.048 98.475 108.243H91.9321ZM107.23 124.216H100.245L108.115 100.373H116.963L124.833 124.216H117.848L112.632 106.939H112.446L107.23 124.216ZM105.926 114.81H119.058V119.653H105.926V114.81ZM110.443 98.138L106.951 92.9223H112.446L114.681 98.138H110.443ZM123.718 100.373H130.936L135.593 110.06H135.779L140.436 100.373H147.654L138.9 116.719V124.216H132.473V116.719L123.718 100.373Z" fill="white"/>
</g>
<path d="M8.02361 161.571L0.880859 147.605C9.45216 144.001 33.3209 141.298 44.1838 140.397C44.9278 144.151 46.5945 155.444 47.3088 170.582C38.0232 171.303 14.8688 176.288 4.45224 178.691L8.02361 161.571Z" fill="url(#paint3_linear_10384_4442)"/>
<path d="M191.95 161.571L199.093 147.605C190.521 144.001 166.653 141.298 155.79 140.397C155.046 144.151 153.379 155.444 152.665 170.582C161.95 171.303 185.105 176.288 195.521 178.691L191.95 161.571Z" fill="url(#paint4_linear_10384_4442)"/>
<path d="M29.4525 179.142L21.8633 136.342C33.4703 134.24 64.6305 130.035 96.4158 130.035C128.201 130.035 163.23 134.24 176.772 136.342C175.581 142.349 172.397 159.319 169.183 179.142C100.612 168.329 47.4581 174.636 29.4525 179.142Z" fill="url(#paint5_linear_10384_4442)"/>
<path d="M54.8503 142.162V168.153H47.794V148.66H47.6417L41.9561 152.061V146.071L48.3524 142.162H54.8503Z" fill="black"/>
<path d="M77.2566 168.153H70.1495V162.163H77.0027C78.2888 162.163 79.3845 161.956 80.2898 161.541C81.2035 161.126 81.8973 160.412 82.3711 159.396C82.8534 158.381 83.0945 156.968 83.0945 155.157C83.0945 153.347 82.8492 151.934 82.3584 150.919C81.8762 149.903 81.1655 149.188 80.2263 148.774C79.2956 148.359 78.1534 148.152 76.7997 148.152H70.048V142.162H77.155C79.8286 142.162 82.1384 142.682 84.0844 143.723C86.0389 144.755 87.5449 146.244 88.6025 148.19C89.6685 150.127 90.2016 152.45 90.2016 155.157C90.2016 157.865 89.6728 160.192 88.6152 162.138C87.5576 164.075 86.06 165.564 84.1225 166.605C82.185 167.637 79.8963 168.153 77.2566 168.153ZM74.3122 142.162V168.153H67.2559V142.162H74.3122ZM63.9054 156.122V152.365H77.5612V156.122H63.9054Z" fill="black"/>
<path d="M118.646 155.157C118.646 158.051 118.083 160.492 116.958 162.48C115.832 164.46 114.314 165.962 112.402 166.986C110.489 168.001 108.357 168.509 106.005 168.509C103.636 168.509 101.496 167.997 99.5835 166.973C97.6798 165.941 96.1654 164.435 95.0401 162.455C93.9233 160.467 93.3648 158.034 93.3648 155.157C93.3648 152.264 93.9233 149.827 95.0401 147.847C96.1654 145.859 97.6798 144.357 99.5835 143.342C101.496 142.318 103.636 141.806 106.005 141.806C108.357 141.806 110.489 142.318 112.402 143.342C114.314 144.357 115.832 145.859 116.958 147.847C118.083 149.827 118.646 152.264 118.646 155.157ZM111.386 155.157C111.386 153.601 111.179 152.289 110.764 151.223C110.358 150.149 109.753 149.336 108.95 148.786C108.154 148.228 107.173 147.949 106.005 147.949C104.838 147.949 103.852 148.228 103.048 148.786C102.253 149.336 101.648 150.149 101.233 151.223C100.827 152.289 100.624 153.601 100.624 155.157C100.624 156.714 100.827 158.03 101.233 159.104C101.648 160.17 102.253 160.983 103.048 161.541C103.852 162.091 104.838 162.366 106.005 162.366C107.173 162.366 108.154 162.091 108.95 161.541C109.753 160.983 110.358 160.17 110.764 159.104C111.179 158.03 111.386 156.714 111.386 155.157ZM107.376 136.73L112.503 140.233H108.391L106.005 138.659L103.518 140.233H99.4058L104.533 136.73H107.376ZM114.077 138.151H110.828L110.422 136.527C111.158 136.501 111.687 136.408 112.008 136.248C112.338 136.087 112.503 135.892 112.503 135.664C112.503 135.283 112.309 135.038 111.919 134.928C111.539 134.809 111.056 134.75 110.473 134.75L110.625 132.466C112.478 132.466 113.895 132.715 114.876 133.214C115.866 133.705 116.361 134.42 116.361 135.359C116.361 135.918 116.12 136.362 115.638 136.692C115.156 137.022 114.635 137.237 114.077 137.339V138.151Z" fill="black"/>
<path d="M128.967 142.162V168.153H121.91V142.162H128.967Z" fill="black"/>
<path d="M152.223 142.162V168.153H145.167V148.66H145.015L139.329 152.061V146.071L145.725 142.162H152.223Z" fill="black"/>
<defs>
<filter id="filter0_d_10384_4442" x="52.3738" y="92.9223" width="95.6626" height="32.3843" filterUnits="userSpaceOnUse" color-interpolation-filters="sRGB">
<feFlood flood-opacity="0" result="BackgroundImageFix"/>
<feColorMatrix in="SourceAlpha" type="matrix" values="0 0 0 0 0 0 0 0 0 0 0 0 0 0 0 0 0 0 127 0" result="hardAlpha"/>
<feOffset dy="0.382074"/>
<feGaussianBlur stdDeviation="0.191037"/>
<feColorMatrix type="matrix" values="0 0 0 0 0 0 0 0 0 0 0 0 0 0 0 0 0 0 0.3 0"/>
<feBlend mode="normal" in2="BackgroundImageFix" result="effect1_dropShadow_10384_4442"/>
<feBlend mode="normal" in="SourceGraphic" in2="effect1_dropShadow_10384_4442" result="shape"/>
</filter>
<linearGradient id="paint0_linear_10384_4442" x1="99.9865" y1="0.572876" x2="99.9865" y2="193.427" gradientUnits="userSpaceOnUse">
<stop stop-color="#FBF9EB"/>
<stop offset="1" stop-color="#F3C78F"/>
</linearGradient>
<linearGradient id="paint1_linear_10384_4442" x1="157.178" y1="42.5259" x2="87.9837" y2="137.381" gradientUnits="userSpaceOnUse">
<stop stop-color="#F0EBAE"/>
<stop offset="0.473958" stop-color="#DFB45C"/>
<stop offset="1" stop-color="#FEE8A0"/>
</linearGradient>
<linearGradient id="paint2_linear_10384_4442" x1="99.4738" y1="30.866" x2="99.4738" y2="96.3319" gradientUnits="userSpaceOnUse">
<stop stop-color="#FBF9EB"/>
<stop offset="1" stop-color="#F3C78F"/>
</linearGradient>
<linearGradient id="paint3_linear_10384_4442" x1="-11.619" y1="154.142" x2="33.0232" y2="154.142" gradientUnits="userSpaceOnUse">
<stop stop-color="#FBF8E0"/>
<stop offset="1" stop-color="#DCAF75"/>
</linearGradient>
<linearGradient id="paint4_linear_10384_4442" x1="211.593" y1="154.142" x2="166.95" y2="154.142" gradientUnits="userSpaceOnUse">
<stop stop-color="#FBF8E0"/>
<stop offset="1" stop-color="#DCAF75"/>
</linearGradient>
<linearGradient id="paint5_linear_10384_4442" x1="99.3175" y1="130.035" x2="99.3175" y2="179.142" gradientUnits="userSpaceOnUse">
<stop stop-color="#FBF8E0"/>
<stop offset="1" stop-color="#E9BB80"/>
</linearGradient>
</defs>
</svg>
