<svg width="200" height="200" viewBox="0 0 200 200" fill="none" xmlns="http://www.w3.org/2000/svg">
<path d="M46.3888 19.8136C66.0967 18.3817 90.69 6.38983 100.245 0.572876C109.801 6.38983 133.838 18.3817 153.546 19.8136C173.254 21.2454 184.452 21.6034 187.587 21.6034C194.007 67.2441 185.527 165.506 100.245 193.427C14.964 165.506 5.92794 67.2441 12.3479 21.6034C15.4833 21.6034 26.6809 21.2454 46.3888 19.8136Z" fill="url(#paint0_linear_10384_4465)"/>
<path d="M51.5323 27.6751C69.1709 26.3891 91.1819 15.6186 99.734 10.3941C108.286 15.6186 129.8 26.3891 147.438 27.6751C165.077 28.9611 175.099 29.2827 177.905 29.2827C183.651 70.2748 176.061 158.528 99.734 183.606C23.4071 158.528 15.3199 70.2748 21.0657 29.2827C23.8719 29.2827 33.8938 28.9611 51.5323 27.6751Z" fill="#CB1C22"/>
<path fill-rule="evenodd" clip-rule="evenodd" d="M99.7342 9.34785L100.2 9.63221C104.435 12.2196 111.908 16.1963 120.514 19.6841C129.129 23.1755 138.818 26.1514 147.503 26.7846C165.136 28.0702 175.132 28.3898 177.905 28.3898H178.681L178.789 29.1587C181.678 49.7655 181.216 82.2258 170.439 112.71C159.653 143.218 138.507 171.807 100.013 184.454L99.7342 184.546L99.4555 184.454C60.9632 171.807 39.6927 143.22 28.7821 112.713C17.88 82.2295 17.2929 49.7684 20.1818 29.1587L20.2895 28.3898H21.066C23.8391 28.3898 33.8353 28.0702 51.4676 26.7846C60.1545 26.1513 69.9688 23.1745 78.7096 19.6824C87.4419 16.1937 95.0375 12.2171 99.2687 9.63221L99.7342 9.34785ZM79.3721 21.3407C70.5597 24.8614 60.5492 27.9129 51.5975 28.5656C35.3045 29.7535 25.4892 30.1203 21.8456 30.1695C19.1092 50.5856 19.8104 82.3244 30.4635 112.112C41.2153 142.175 62.0755 170.189 99.7342 182.666C137.391 170.189 158.127 142.177 168.755 112.115C179.286 82.328 179.865 50.5884 177.125 30.1695C173.482 30.1203 163.667 29.7535 147.374 28.5656C138.42 27.9128 128.533 24.8605 119.844 21.339C111.45 17.9374 104.116 14.0741 99.734 11.438C95.3397 14.0764 87.8844 17.9398 79.3721 21.3407Z" fill="url(#paint1_linear_10384_4465)"/>
<path d="M109.054 24.0066V89.4611H91.2839V40.3702H90.9004L76.5822 48.9356V33.8503L92.6902 24.0066H109.054Z" fill="url(#paint2_linear_10384_4465)"/>
<g filter="url(#filter0_d_10384_4465)">
<path d="M80.4119 103.603L82.3164 126.974L77.0215 127.405L67.5765 115.815L67.4396 115.826L68.4402 128.105L62.0954 128.622L60.191 105.251L65.5771 104.812L74.8815 116.368L75.0641 116.353L74.0672 104.12L80.4119 103.603ZM91.4081 126.781L84.5389 126.846L92.0582 103.326L100.759 103.244L108.719 126.619L101.849 126.683L96.5608 109.741L96.3777 109.743L91.4081 126.781ZM90.039 117.543L102.953 117.421L102.998 122.184L90.0837 122.305L90.039 117.543ZM98.6391 96.944L102.623 96.9066C102.63 98.395 102.072 99.591 100.951 100.495C99.8296 101.391 98.3111 101.848 96.3953 101.866C94.4643 101.884 92.9299 101.455 91.7919 100.581C90.654 99.6982 90.0818 98.5128 90.0755 97.0244L94.0138 96.9874C94.0107 97.4683 94.1866 97.9094 94.5415 98.3106C94.9039 98.7042 95.5126 98.8969 96.3674 98.8889C97.1841 98.8812 97.7661 98.6811 98.1136 98.2886C98.461 97.896 98.6362 97.4478 98.6391 96.944ZM112.633 103.33L120.535 103.893L125.028 117.528L125.302 117.547L131.682 104.687L139.584 105.25L137.919 128.638L131.706 128.196L132.669 114.674L132.486 114.661L126.329 127.629L122.583 127.363L118.332 113.561L118.149 113.548L117.18 127.161L110.967 126.719L112.633 103.33Z" fill="white"/>
</g>
<path d="M8.02361 161.571L0.880859 147.605C9.45216 144.001 33.3209 141.298 44.1838 140.397C44.9278 144.151 46.5945 155.444 47.3088 170.582C38.0232 171.303 14.8688 176.288 4.45224 178.691L8.02361 161.571Z" fill="url(#paint3_linear_10384_4465)"/>
<path d="M191.95 161.571L199.093 147.605C190.521 144.001 166.653 141.298 155.79 140.397C155.046 144.151 153.379 155.444 152.665 170.582C161.95 171.303 185.105 176.288 195.521 178.691L191.95 161.571Z" fill="url(#paint4_linear_10384_4465)"/>
<path d="M29.4525 179.142L21.8633 136.342C33.4703 134.24 64.6305 130.035 96.4158 130.035C128.201 130.035 163.23 134.24 176.772 136.342C175.581 142.349 172.397 159.319 169.183 179.142C100.612 168.329 47.4581 174.636 29.4525 179.142Z" fill="url(#paint5_linear_10384_4465)"/>
<path d="M54.8503 142.162V168.153H47.794V148.66H47.6417L41.9561 152.061V146.071L48.3524 142.162H54.8503Z" fill="black"/>
<path d="M77.2566 168.153H70.1495V162.163H77.0027C78.2888 162.163 79.3845 161.956 80.2898 161.541C81.2035 161.126 81.8973 160.412 82.3711 159.396C82.8534 158.381 83.0945 156.968 83.0945 155.157C83.0945 153.347 82.8492 151.934 82.3584 150.919C81.8762 149.903 81.1655 149.188 80.2263 148.774C79.2956 148.359 78.1534 148.152 76.7997 148.152H70.048V142.162H77.155C79.8286 142.162 82.1384 142.682 84.0844 143.723C86.0389 144.755 87.5449 146.244 88.6025 148.19C89.6685 150.127 90.2016 152.45 90.2016 155.157C90.2016 157.865 89.6728 160.192 88.6152 162.138C87.5576 164.075 86.06 165.564 84.1225 166.605C82.185 167.637 79.8963 168.153 77.2566 168.153ZM74.3122 142.162V168.153H67.2559V142.162H74.3122ZM63.9054 156.122V152.365H77.5612V156.122H63.9054Z" fill="black"/>
<path d="M118.646 155.157C118.646 158.051 118.083 160.492 116.958 162.48C115.832 164.46 114.314 165.962 112.402 166.986C110.489 168.001 108.357 168.509 106.005 168.509C103.636 168.509 101.496 167.997 99.5835 166.973C97.6798 165.941 96.1654 164.435 95.0401 162.455C93.9233 160.467 93.3648 158.034 93.3648 155.157C93.3648 152.264 93.9233 149.827 95.0401 147.847C96.1654 145.859 97.6798 144.357 99.5835 143.342C101.496 142.318 103.636 141.806 106.005 141.806C108.357 141.806 110.489 142.318 112.402 143.342C114.314 144.357 115.832 145.859 116.958 147.847C118.083 149.827 118.646 152.264 118.646 155.157ZM111.386 155.157C111.386 153.601 111.179 152.289 110.764 151.223C110.358 150.149 109.753 149.336 108.95 148.786C108.154 148.228 107.173 147.949 106.005 147.949C104.838 147.949 103.852 148.228 103.048 148.786C102.253 149.336 101.648 150.149 101.233 151.223C100.827 152.289 100.624 153.601 100.624 155.157C100.624 156.714 100.827 158.03 101.233 159.104C101.648 160.17 102.253 160.983 103.048 161.541C103.852 162.091 104.838 162.366 106.005 162.366C107.173 162.366 108.154 162.091 108.95 161.541C109.753 160.983 110.358 160.17 110.764 159.104C111.179 158.03 111.386 156.714 111.386 155.157ZM107.376 136.73L112.503 140.233H108.391L106.005 138.659L103.518 140.233H99.4058L104.533 136.73H107.376ZM114.077 138.151H110.828L110.422 136.527C111.158 136.501 111.687 136.408 112.008 136.248C112.338 136.087 112.503 135.892 112.503 135.664C112.503 135.283 112.309 135.038 111.919 134.928C111.539 134.809 111.056 134.75 110.473 134.75L110.625 132.466C112.478 132.466 113.895 132.715 114.876 133.214C115.866 133.705 116.361 134.42 116.361 135.359C116.361 135.918 116.12 136.362 115.638 136.692C115.156 137.022 114.635 137.237 114.077 137.339V138.151Z" fill="black"/>
<path d="M128.967 142.162V168.153H121.91V142.162H128.967Z" fill="black"/>
<path d="M152.223 142.162V168.153H145.167V148.66H145.015L139.329 152.061V146.071L145.725 142.162H152.223Z" fill="black"/>
<defs>
<filter id="filter0_d_10384_4465" x="56.1914" y="96.4747" width="87.3936" height="40.027" filterUnits="userSpaceOnUse" color-interpolation-filters="sRGB">
<feFlood flood-opacity="0" result="BackgroundImageFix"/>
<feColorMatrix in="SourceAlpha" type="matrix" values="0 0 0 0 0 0 0 0 0 0 0 0 0 0 0 0 0 0 127 0" result="hardAlpha"/>
<feOffset dy="4"/>
<feGaussianBlur stdDeviation="2"/>
<feComposite in2="hardAlpha" operator="out"/>
<feColorMatrix type="matrix" values="0 0 0 0 0 0 0 0 0 0 0 0 0 0 0 0 0 0 0.25 0"/>
<feBlend mode="normal" in2="BackgroundImageFix" result="effect1_dropShadow_10384_4465"/>
<feBlend mode="normal" in="SourceGraphic" in2="effect1_dropShadow_10384_4465" result="shape"/>
</filter>
<linearGradient id="paint0_linear_10384_4465" x1="99.9865" y1="0.572876" x2="99.9865" y2="193.427" gradientUnits="userSpaceOnUse">
<stop stop-color="#FBF9EB"/>
<stop offset="1" stop-color="#F3C78F"/>
</linearGradient>
<linearGradient id="paint1_linear_10384_4465" x1="157.178" y1="42.5259" x2="87.9837" y2="137.381" gradientUnits="userSpaceOnUse">
<stop stop-color="#F0EBAE"/>
<stop offset="0.473958" stop-color="#DFB45C"/>
<stop offset="1" stop-color="#FEE8A0"/>
</linearGradient>
<linearGradient id="paint2_linear_10384_4465" x1="95.3828" y1="24.4611" x2="95.3828" y2="89.4611" gradientUnits="userSpaceOnUse">
<stop stop-color="#FAF2DE"/>
<stop offset="1" stop-color="#F4CD9B"/>
</linearGradient>
<linearGradient id="paint3_linear_10384_4465" x1="-11.619" y1="154.142" x2="33.0232" y2="154.142" gradientUnits="userSpaceOnUse">
<stop stop-color="#FBF8E0"/>
<stop offset="1" stop-color="#DCAF75"/>
</linearGradient>
<linearGradient id="paint4_linear_10384_4465" x1="211.593" y1="154.142" x2="166.95" y2="154.142" gradientUnits="userSpaceOnUse">
<stop stop-color="#FBF8E0"/>
<stop offset="1" stop-color="#DCAF75"/>
</linearGradient>
<linearGradient id="paint5_linear_10384_4465" x1="99.3175" y1="130.035" x2="99.3175" y2="179.142" gradientUnits="userSpaceOnUse">
<stop stop-color="#FBF8E0"/>
<stop offset="1" stop-color="#E9BB80"/>
</linearGradient>
</defs>
</svg>
