<svg width="24" height="24" viewBox="0 0 24 24" fill="none" xmlns="http://www.w3.org/2000/svg">
<path d="M18.1787 2.86979C18.0198 2.34979 17.555 2 17.0219 2H6.97812C6.44505 2 5.98018 2.34979 5.82131 2.86937C5.2769 4.64562 3.5 10.779 3.5 15.125C3.5 18.7694 4.71854 20.8012 5.2425 21.5058C5.47686 21.82 5.829 22 6.21029 22H17.7899C18.1712 22 18.5233 21.82 18.7575 21.5052C19.2815 20.8004 20.4994 18.7675 20.5 15.125C20.5006 10.7808 18.7231 4.64625 18.1787 2.86979ZM6.97812 3.25L17.0203 3.24542C17.4762 4.73208 18.8136 9.34 19.1857 13.25H14.4286C14.4286 11.8715 13.3394 10.75 12 10.75C10.6606 10.75 9.57143 11.8715 9.57143 13.25H4.81426C5.18664 9.33917 6.52337 4.73271 6.97812 3.25ZM13.2143 20.75H10.7857V13.25C10.7857 12.5606 11.3305 12 12 12C12.6695 12 13.2143 12.5606 13.2143 13.25V20.75ZM6.20664 20.7456C5.75776 20.1423 4.71429 18.3871 4.71429 15.125C4.71429 14.9219 4.72177 14.711 4.72967 14.5H9.57143V20.75H6.21029L6.20664 20.7456ZM17.7897 20.75H14.4286V14.5H19.2705C19.2784 14.711 19.2857 14.9219 19.2857 15.125C19.2851 18.3854 18.2416 20.1421 17.7897 20.75ZM10.7857 9.5H13.2143C13.8838 9.5 14.4286 8.93937 14.4286 8.25V5.75C14.4286 5.06063 13.8838 4.5 13.2143 4.5H10.7857C10.1162 4.5 9.57143 5.06063 9.57143 5.75V8.25C9.57143 8.93937 10.1162 9.5 10.7857 9.5ZM10.7857 5.75H13.2143L13.2149 8.25H10.7857V5.75Z" fill="#090D14"/>
<path fill-rule="evenodd" clip-rule="evenodd" d="M10.7856 9.5H13.2141C13.8836 9.5 14.4284 8.93937 14.4284 8.25V5.75C14.4284 5.06063 13.8836 4.5 13.2141 4.5H10.7856C10.1161 4.5 9.57129 5.06063 9.57129 5.75V8.25C9.57129 8.93937 10.1161 9.5 10.7856 9.5ZM13.2141 5.75H10.7856V8.25H13.2148L13.2141 5.75Z" fill="#DC2626"/>
</svg>
