<svg width="24" height="24" viewBox="0 0 24 24" fill="none" xmlns="http://www.w3.org/2000/svg">
<path d="M6.5 7H5C3.89543 7 3 7.89543 3 9V18C3 19.1046 3.89543 20 5 20H18.5C19.6046 20 20.5 19.1079 20.5 18.0033V8.99823C20.5 7.89366 19.6046 7 18.5 7H16.5C15.6716 7 15 6.32843 15 5.5C15 4.67157 14.3284 4 13.5 4H9.5C8.67157 4 8 4.67157 8 5.5C8 6.32843 7.32843 7 6.5 7Z" stroke="black" stroke-width="1.3" stroke-linecap="round"/>
<circle cx="12" cy="13" r="3.35" stroke="#DC2626" stroke-width="1.3"/>
</svg>
