<svg width="16" height="16" viewBox="0 0 16 16" fill="none" xmlns="http://www.w3.org/2000/svg">
<path fill-rule="evenodd" clip-rule="evenodd" d="M5.60273 13.3399H4.26543C3.16232 13.3399 2.65082 12.8284 2.65082 11.7253V10.3942C2.65082 10.2647 2.62001 10.1785 2.52757 10.0799L1.58468 9.13084C0.80819 8.35433 0.802027 7.6333 1.58468 6.85684L2.52757 5.90777C2.62001 5.81534 2.65082 5.7229 2.65082 5.59965V4.26235C2.65082 3.15307 3.16232 2.64774 4.26543 2.64774H5.60273C5.72598 2.64774 5.81842 2.61692 5.91086 2.52449L6.85992 1.5816C7.63638 0.805108 8.35741 0.798945 9.13393 1.5816L10.083 2.52449C10.1816 2.61692 10.2678 2.64774 10.3972 2.64774H11.7284C12.8377 2.64774 13.343 3.1654 13.343 4.26235V5.59965C13.343 5.7229 13.38 5.81534 13.4724 5.90777L14.4153 6.85684C15.1918 7.6333 15.1979 8.35433 14.4153 9.13084L13.4724 10.0799C13.38 10.1785 13.343 10.2647 13.343 10.3942V11.7253C13.343 12.8346 12.8315 13.3399 11.7284 13.3399H10.3972C10.2678 13.3399 10.1816 13.3769 10.083 13.4693L9.13393 14.4122C8.35741 15.1887 7.63638 15.1949 6.85992 14.4122L5.91086 13.4693C5.81842 13.3769 5.72598 13.3399 5.60273 13.3399ZM6.76747 10.7085C6.92771 10.9241 7.10025 11.0043 7.30976 11.0043C7.51932 11.0043 7.69801 10.9057 7.82743 10.7085L10.7239 6.14196C10.7979 6.0187 10.878 5.87696 10.878 5.73522C10.878 5.45174 10.6253 5.26686 10.3603 5.26686C10.1939 5.26686 10.0337 5.3593 9.91659 5.55034L7.28515 9.77794L6.03411 8.16328C5.88004 7.95992 5.74447 7.89829 5.57191 7.89829C5.28843 7.89829 5.07274 8.12631 5.07274 8.40981C5.07274 8.54538 5.1282 8.68711 5.22064 8.81037L6.76747 10.7085Z" fill="#939CA3"/>
</svg>
