<svg width="52" height="52" viewBox="0 0 52 52" fill="none" xmlns="http://www.w3.org/2000/svg">
<path d="M45.1677 35.4302V41.1802C45.1699 41.714 45.0605 42.2424 44.8467 42.7315C44.6328 43.2206 44.3192 43.6596 43.9259 44.0205C43.5325 44.3813 43.0682 44.6561 42.5625 44.8271C42.0568 44.9981 41.521 45.0616 40.9894 45.0136C35.0915 44.3727 29.4261 42.3573 24.4486 39.1294C19.8176 36.1867 15.8913 32.2604 12.9486 27.6294C9.70934 22.6292 7.69352 16.9363 7.06439 11.0119C7.01649 10.4819 7.07948 9.94768 7.24934 9.44334C7.41921 8.939 7.69223 8.47555 8.05102 8.0825C8.40981 7.68945 8.84651 7.37542 9.33332 7.16039C9.82012 6.94537 10.3464 6.83406 10.8786 6.83356H16.6286C17.5587 6.8244 18.4605 7.15379 19.1658 7.76033C19.871 8.36687 20.3317 9.20917 20.4619 10.1302C20.7046 11.9704 21.1547 13.7771 21.8036 15.5161C22.0614 16.2021 22.1172 16.9476 21.9644 17.6644C21.8115 18.3812 21.4564 19.0391 20.9411 19.5602L18.5069 21.9944C21.2354 26.7929 25.2084 30.7659 30.0069 33.4944L32.4411 31.0602C32.9622 30.5449 33.6201 30.1898 34.3369 30.0369C35.0536 29.884 35.7992 29.9399 36.4852 30.1977C38.2242 30.8466 40.0309 31.2967 41.8711 31.5394C42.8021 31.6707 43.6524 32.1397 44.2602 32.8571C44.8681 33.5745 45.191 34.4902 45.1677 35.4302Z" stroke="#090D14" stroke-width="2" stroke-linecap="round" stroke-linejoin="round"/>
<path d="M36.541 5.63501V21.4475" stroke="#DC2626" stroke-width="2" stroke-linecap="round" stroke-linejoin="round"/>
<path d="M40.1348 8.51001H34.7441C34.077 8.51001 33.4371 8.77505 32.9653 9.24682C32.4936 9.71859 32.2285 10.3584 32.2285 11.0256C32.2285 11.6928 32.4936 12.3327 32.9653 12.8045C33.4371 13.2762 34.077 13.5413 34.7441 13.5413H38.3379C39.0051 13.5413 39.6449 13.8063 40.1167 14.2781C40.5885 14.7498 40.8535 15.3897 40.8535 16.0569C40.8535 16.7241 40.5885 17.3639 40.1167 17.8357C39.6449 18.3075 39.0051 18.5725 38.3379 18.5725H32.2285" stroke="#DC2626" stroke-width="2" stroke-linecap="round" stroke-linejoin="round"/>
</svg>
