<svg width="24" height="24" viewBox="0 0 24 24" fill="none" xmlns="http://www.w3.org/2000/svg">
<path d="M15.7025 5H8.30058C5.91718 5 3.8651 6.6823 3.39768 9.01942L2.08001 15.6078C1.83249 16.8454 2.77908 18 4.04117 18H5.97313C6.50357 18 7.01228 17.7893 7.38735 17.4142L8.81578 15.9858C9.19085 15.6107 9.69956 15.4 10.23 15.4H13.7731C14.3036 15.4 14.8123 15.6107 15.1873 15.9858L16.6158 17.4142C16.9908 17.7893 17.4996 18 18.03 18H19.962C21.224 18 22.1706 16.8454 21.9231 15.6078L20.6054 9.01942C20.138 6.6823 18.0859 5 15.7025 5Z" stroke="black" stroke-width="1.3" stroke-linecap="round"/>
<path d="M5.93359 10.1992H9.40026" stroke="#DC2626" stroke-width="1.7" stroke-linecap="round"/>
<path d="M7.66797 8.4668L7.66797 11.9335" stroke="#DC2626" stroke-width="1.7" stroke-linecap="round"/>
<circle cx="14.601" cy="11.9331" r="0.866667" fill="#DC2626"/>
<circle cx="17.1987" cy="9.33346" r="0.866667" fill="#DC2626"/>
</svg>
