<svg width="16" height="16" viewBox="0 0 16 16" fill="none" xmlns="http://www.w3.org/2000/svg">
<path d="M2.07476 9.84957C2.03834 10.0935 2.22733 10.3128 2.47402 10.3128L10.4112 10.3128L1.53225 11.2636C1.26422 11.2923 1.03823 11.0965 1.00797 10.8479C1.00073 10.8093 0.998266 10.7693 1.00122 10.7286C1.00285 10.7062 1.0061 10.6837 1.01108 10.6611L2.24709 5.04543C2.24911 5.03641 2.25147 5.02759 2.25428 5.01902C2.26429 4.98837 2.27646 4.95826 2.28922 4.92864C2.34067 4.80939 2.46032 4.7302 2.59426 4.7335L11.9276 4.96496C11.9878 4.96649 12.0364 5.00345 12.0578 5.05307C12.072 5.08614 12.0742 5.12482 12.0598 5.16232C12.0581 5.16676 12.0562 5.17104 12.0542 5.17523L11.8836 5.6285C11.8817 5.63353 11.8797 5.63845 11.8775 5.64323L11.2484 7.31506L11.4331 5.557C11.4328 5.54576 11.4333 5.53423 11.4345 5.5223C11.4491 5.38373 11.3394 5.26354 11.2001 5.26541L3.08547 5.37373C2.88756 5.37634 2.72081 5.52206 2.69158 5.71774L2.07476 9.84957Z" fill="#939CA3"/>
<path d="M4.7987 6.16357L4.21682 9.61466H3.55215L4.0134 6.96307L3.17605 7.22089L3.27303 6.65793L4.71355 6.16357H4.7987Z" fill="#939CA3"/>
<path d="M7.54728 6.13282H7.65845L7.60405 6.67922H7.5733C7.39826 6.67607 7.23741 6.7013 7.09076 6.75491C6.9441 6.80853 6.81322 6.8858 6.6981 6.98672C6.58457 7.08607 6.49074 7.20591 6.41662 7.34626C6.34409 7.48503 6.2952 7.63956 6.26997 7.80987L6.19191 8.38466C6.18403 8.45562 6.18087 8.53368 6.18245 8.61883C6.1856 8.70399 6.19901 8.7852 6.22266 8.86247C6.24632 8.93816 6.28495 9.00124 6.33857 9.0517C6.39376 9.10058 6.46945 9.12581 6.56564 9.12739C6.65395 9.13054 6.73201 9.1132 6.79982 9.07535C6.8692 9.03593 6.92755 8.98389 6.97485 8.91924C7.02374 8.85301 7.06158 8.78047 7.08839 8.70162C7.11678 8.62277 7.1357 8.54472 7.14516 8.46745C7.15305 8.39964 7.15226 8.32947 7.1428 8.25693C7.13491 8.18439 7.11678 8.11658 7.08839 8.05351C7.06001 7.99043 7.01901 7.93918 6.96539 7.89976C6.91178 7.86033 6.84318 7.83983 6.7596 7.83826C6.65868 7.83668 6.56643 7.85876 6.48285 7.90449C6.39928 7.95022 6.3291 8.01251 6.27234 8.09135C6.21557 8.16862 6.17614 8.25535 6.15407 8.35154L5.9672 8.21908C5.98455 8.0882 6.02239 7.96756 6.08074 7.85718C6.13909 7.74522 6.2132 7.64824 6.30309 7.56624C6.39455 7.48266 6.49862 7.4188 6.61532 7.37464C6.73201 7.32891 6.85816 7.30762 6.99378 7.31078C7.15147 7.31393 7.28472 7.34941 7.39353 7.41722C7.50233 7.48503 7.58985 7.57491 7.65608 7.68687C7.72231 7.79726 7.76726 7.92026 7.79091 8.05587C7.81614 8.18991 7.82324 8.32553 7.8122 8.46272C7.79801 8.62987 7.75622 8.78677 7.68683 8.93343C7.61745 9.08008 7.52599 9.2086 7.41245 9.31899C7.30049 9.42937 7.17039 9.51531 7.02216 9.57681C6.87551 9.63831 6.71624 9.66748 6.54435 9.66433C6.35512 9.6596 6.1927 9.6186 6.05709 9.54133C5.92305 9.46248 5.81424 9.35841 5.73066 9.2291C5.64709 9.09822 5.58874 8.95314 5.55563 8.79387C5.52409 8.63302 5.51778 8.46745 5.5367 8.29714L5.56982 8.03222C5.60609 7.76887 5.67705 7.52287 5.7827 7.29422C5.88836 7.06399 6.02555 6.86214 6.19428 6.68868C6.36301 6.51522 6.56091 6.37961 6.78799 6.28184C7.01507 6.18407 7.26816 6.13439 7.54728 6.13282Z" fill="#939CA3"/>
<path d="M8.92156 8.04168L8.37989 7.90685L8.84114 6.17066H10.7263L10.6388 6.7218H9.31185L9.08241 7.49055C9.1581 7.44481 9.23931 7.41091 9.32604 7.38883C9.41435 7.36676 9.50108 7.35572 9.58623 7.35572C9.75023 7.35572 9.89058 7.38726 10.0073 7.45033C10.1255 7.51183 10.2209 7.59541 10.2935 7.70106C10.366 7.80672 10.4165 7.92814 10.4449 8.06533C10.4748 8.20095 10.4835 8.34366 10.4709 8.49347C10.4567 8.66377 10.4157 8.82147 10.3479 8.96654C10.2801 9.11004 10.1894 9.23462 10.0759 9.34027C9.96391 9.44593 9.83381 9.52714 9.68558 9.58391C9.53735 9.64068 9.3765 9.66748 9.20304 9.66433C9.05639 9.66118 8.92077 9.63516 8.7962 9.58627C8.67162 9.53739 8.56281 9.46879 8.46977 9.38048C8.37674 9.2906 8.3042 9.18495 8.25216 9.06352C8.20012 8.94052 8.1741 8.80491 8.1741 8.65668H8.82931C8.83404 8.74183 8.8506 8.81989 8.87899 8.89085C8.90737 8.96024 8.94995 9.01622 9.00672 9.05879C9.06506 9.10137 9.14154 9.12424 9.23616 9.12739C9.33077 9.12897 9.41198 9.11083 9.47979 9.07299C9.5476 9.03514 9.60437 8.9831 9.6501 8.91687C9.69583 8.85064 9.73131 8.77731 9.75654 8.69689C9.78177 8.61647 9.79833 8.53604 9.80621 8.45562C9.8141 8.37993 9.81252 8.3066 9.80148 8.23564C9.79202 8.1631 9.77152 8.09845 9.73998 8.04168C9.70845 7.98491 9.6635 7.93997 9.60516 7.90685C9.54681 7.87374 9.47427 7.85639 9.38754 7.85481C9.29608 7.85324 9.21093 7.86822 9.13208 7.89976C9.05481 7.93129 8.98464 7.9786 8.92156 8.04168Z" fill="#939CA3"/>
<path d="M12.6902 8.77426L12.6175 9.18938H11.3065L11.3792 8.77426H12.6902ZM11.718 7.72225L11.2692 10.3053H10.7494L11.1965 7.72225H11.718ZM13.2402 7.72225L12.7913 10.3053H12.2751L12.7221 7.72225H13.2402Z" fill="#939CA3"/>
<path d="M14.7641 9.90609L14.6949 10.3053H13.2774L13.3466 9.90609H14.7641ZM14.945 8.7033L13.4956 10.3053H13.1444L13.2011 9.97883L14.6434 8.38574H15L14.945 8.7033ZM14.8244 8.38574L14.7552 8.78668H13.4353L13.5063 8.38574H14.8244Z" fill="#939CA3"/>
</svg>
