<svg width="16" height="16" viewBox="0 0 16 16" fill="none" xmlns="http://www.w3.org/2000/svg">
<path d="M13.2351 10.5268C13.0053 10.3939 12.7115 10.4724 12.5786 10.7022C12.1159 11.5018 11.4506 12.1726 10.6549 12.6418C9.83558 13.1248 8.89681 13.3799 7.93992 13.3799C5.38473 13.3799 3.24222 11.5809 2.71147 9.18302C2.85864 9.20691 3.01488 9.16243 3.12828 9.04903C3.31581 8.8615 3.31581 8.55727 3.12828 8.36946L2.44431 7.68549C2.43305 7.67424 2.42125 7.66353 2.40889 7.65337C2.4034 7.64897 2.39791 7.64513 2.39214 7.64101C2.38528 7.63579 2.37841 7.6303 2.371 7.62564C2.36414 7.62097 2.357 7.61712 2.34986 7.61273C2.34354 7.60889 2.33723 7.60477 2.33064 7.60147C2.32322 7.59763 2.31581 7.59433 2.3084 7.59076C2.30153 7.58747 2.29494 7.58418 2.28808 7.58143C2.28067 7.57841 2.27325 7.57594 2.26584 7.57319C2.25842 7.57045 2.25129 7.5677 2.2436 7.5655C2.23618 7.56331 2.2285 7.56166 2.22081 7.55974C2.21312 7.55782 2.20571 7.55562 2.19802 7.55425C2.18923 7.5526 2.18017 7.5515 2.17138 7.55013C2.16479 7.5493 2.15821 7.54793 2.15162 7.54738C2.12004 7.54436 2.08819 7.54436 2.05661 7.54738C2.04975 7.54793 2.04316 7.5493 2.03657 7.5504C2.02778 7.55178 2.019 7.5526 2.01021 7.55452C2.00225 7.55617 1.99456 7.55837 1.98687 7.56029C1.97946 7.56221 1.97204 7.56386 1.96463 7.56605C1.95694 7.56825 1.94953 7.57127 1.94211 7.57402C1.9347 7.57676 1.92756 7.57896 1.92015 7.58198C1.91301 7.585 1.90642 7.58829 1.89956 7.59159C1.89214 7.59516 1.88473 7.59845 1.87759 7.6023C1.871 7.60587 1.86496 7.60971 1.85837 7.61355C1.85123 7.61767 1.84409 7.62179 1.83723 7.62646C1.83036 7.63113 1.82377 7.63634 1.81691 7.64129C1.81114 7.64568 1.8051 7.6498 1.79934 7.65447C1.78753 7.66408 1.77627 7.67424 1.76556 7.68494L1.08023 8.37028C0.892692 8.55782 0.892692 8.86232 1.08023 9.04985C1.17413 9.14376 1.29714 9.19071 1.42015 9.19071C1.52366 9.19071 1.62663 9.15721 1.71285 9.09076C1.92921 10.373 2.53574 11.554 3.47369 12.4922C4.66672 13.6852 6.25266 14.342 7.93964 14.342C9.06787 14.342 10.1755 14.0408 11.1426 13.4708C12.0808 12.9178 12.865 12.1273 13.4103 11.1847C13.5432 10.9549 13.4646 10.6611 13.2348 10.5282L13.2351 10.5268Z" fill="#939CA3"/>
<path d="M6.55332 6.3096C6.7554 6.13772 6.77984 5.83431 6.60796 5.63223C6.43607 5.43014 6.13267 5.4057 5.93058 5.57758C5.23591 6.16847 4.8375 7.03008 4.8375 7.9414C4.8375 9.65199 6.22932 11.0438 7.93992 11.0438C9.65052 11.0438 11.0423 9.65199 11.0423 7.9414C11.0423 7.03008 10.6439 6.16847 9.94925 5.57758C9.74717 5.4057 9.44376 5.43014 9.27188 5.63223C9.1 5.83431 9.12443 6.13772 9.32652 6.3096C9.8062 6.71762 10.0813 7.31235 10.0813 7.9414C10.0813 9.12207 9.12059 10.0828 7.93992 10.0828C6.75925 10.0828 5.79851 9.12207 5.79851 7.9414C5.79851 7.31235 6.07364 6.71762 6.55332 6.3096Z" fill="#939CA3"/>
<path d="M14.7991 7.00125C14.6264 6.82855 14.3551 6.81537 14.1667 6.96034C13.9504 5.67808 13.3438 4.49713 12.4059 3.55891C11.2128 2.36616 9.6269 1.70911 7.93992 1.70911C6.81169 1.70911 5.70433 2.01031 4.73728 2.58033C3.79906 3.13332 3.01488 3.92382 2.46957 4.86616C2.33668 5.09598 2.41521 5.38978 2.64475 5.52267C2.87457 5.65556 3.16836 5.57704 3.30126 5.34749C3.76392 4.54793 4.42921 3.87742 5.22493 3.40817C6.04426 2.9252 6.98303 2.67012 7.93964 2.67012C10.4948 2.67012 12.6373 4.46913 13.1681 6.86699C13.0209 6.8431 12.8647 6.88758 12.7513 7.00098C12.5638 7.18851 12.5638 7.49302 12.7513 7.68055L13.4353 8.36452L13.4369 8.36589C13.4476 8.37632 13.4586 8.38648 13.4701 8.39582C13.4734 8.39856 13.4767 8.40076 13.48 8.40323C13.4891 8.41037 13.4981 8.41751 13.5077 8.42382C13.5105 8.42575 13.5138 8.42739 13.5165 8.42932C13.527 8.4359 13.5371 8.44249 13.5481 8.44826C13.5503 8.44936 13.5525 8.45018 13.5544 8.45128C13.5662 8.45732 13.5783 8.46336 13.5907 8.4683L13.5951 8.46995C13.608 8.47517 13.6214 8.48011 13.6349 8.48423L13.6395 8.48533C13.653 8.48917 13.6664 8.49274 13.6804 8.49549C13.6843 8.49631 13.6884 8.49659 13.6923 8.49741C13.7038 8.49933 13.7153 8.50153 13.7271 8.50263C13.743 8.50427 13.759 8.5051 13.7752 8.5051C13.7914 8.5051 13.8073 8.50427 13.8232 8.50263C13.835 8.50153 13.8468 8.49933 13.8584 8.49741C13.8622 8.49686 13.8661 8.49631 13.8696 8.49576C13.8836 8.49302 13.8974 8.48945 13.9111 8.48533L13.9152 8.48423C13.9289 8.48011 13.9424 8.47517 13.9558 8.46968L13.9594 8.4683C13.972 8.46309 13.9844 8.45705 13.9962 8.45073C13.9981 8.44963 14.0017 8.44799 14.0017 8.44799C14.013 8.44195 14.0237 8.43536 14.0341 8.42849C14.0366 8.42684 14.0393 8.42547 14.0421 8.42355C14.0522 8.41668 14.0621 8.40927 14.0717 8.40158C14.0745 8.39939 14.0772 8.39774 14.0797 8.39554C14.0918 8.38538 14.1036 8.37495 14.1148 8.36369L14.7988 7.67973C14.9863 7.49219 14.9863 7.18796 14.7988 7.00015L14.7991 7.00125Z" fill="#939CA3"/>
<path d="M8.42042 6.48752V4.71048C8.42042 4.44497 8.20543 4.22997 7.93992 4.22997C7.67441 4.22997 7.45941 4.44497 7.45941 4.71048V6.48752C7.45941 6.75304 7.67441 6.96803 7.93992 6.96803C8.20543 6.96803 8.42042 6.75304 8.42042 6.48752Z" fill="#939CA3"/>
</svg>
