<svg width="16" height="16" viewBox="0 0 16 16" fill="none" xmlns="http://www.w3.org/2000/svg">
<path d="M12.3433 12.2667H2.05667C0.923333 12.2667 0 11.3433 0 10.21V5.79C0 4.65667 0.923333 3.73334 2.05667 3.73334H12.3433C13.4767 3.73334 14.4 4.65667 14.4 5.79V10.21C14.4 11.3433 13.4767 12.2667 12.3433 12.2667ZM2.05667 4.8C1.51 4.8 1.06667 5.24334 1.06667 5.79V10.21C1.06667 10.7567 1.51 11.2 2.05667 11.2H12.3433C12.89 11.2 13.3333 10.7567 13.3333 10.21V5.79C13.3333 5.24334 12.89 4.8 12.3433 4.8H2.05667Z" fill="#939CA3"/>
<path d="M1.6 5.86667C1.6 5.57212 1.83878 5.33334 2.13333 5.33334H4.44444C4.739 5.33334 4.97778 5.57212 4.97778 5.86667V10.1333C4.97778 10.4279 4.739 10.6667 4.44444 10.6667H2.13333C1.83878 10.6667 1.6 10.4279 1.6 10.1333V5.86667Z" fill="#939CA3"/>
<path d="M5.51111 5.86667C5.51111 5.57212 5.74989 5.33334 6.04444 5.33334H8.35556C8.65011 5.33334 8.88889 5.57212 8.88889 5.86667V10.1333C8.88889 10.4279 8.65011 10.6667 8.35556 10.6667H6.04444C5.74989 10.6667 5.51111 10.4279 5.51111 10.1333V5.86667Z" fill="#939CA3"/>
<path d="M9.42222 5.86667C9.42222 5.57212 9.661 5.33334 9.95556 5.33334H12.2667C12.5612 5.33334 12.8 5.57212 12.8 5.86667V10.1333C12.8 10.4279 12.5612 10.6667 12.2667 10.6667H9.95556C9.661 10.6667 9.42222 10.4279 9.42222 10.1333V5.86667Z" fill="#939CA3"/>
<path d="M15.4667 9.77667C15.1733 9.77667 14.9333 9.53667 14.9333 9.24334V6.75334C14.9333 6.46 15.1733 6.22 15.4667 6.22C15.76 6.22 16 6.46 16 6.75334V9.24334C16 9.54 15.76 9.77667 15.4667 9.77667Z" fill="#939CA3"/>
</svg>
