<svg width="16" height="16" viewBox="0 0 16 16" fill="none" xmlns="http://www.w3.org/2000/svg">
<g clip-path="url(#clip0_5047_50641)">
<path fill-rule="evenodd" clip-rule="evenodd" d="M7.58409 1.5H8.41606C10.7214 1.5 12.5902 3.36884 12.5902 5.67418V11.3258C12.5902 13.6312 10.7214 15.5 8.41606 15.5H7.58409C5.27876 15.5 3.40991 13.6312 3.40991 11.3258V5.67418C3.40991 3.36884 5.27876 1.5 7.58409 1.5ZM10.5581 6.52762L7.54823 3.04687V7.59291L5.93163 5.9657L5.3923 6.50151L7.41839 8.54089L5.39586 10.5236L5.92807 11.0665L7.54823 9.47823V14.2478L10.5494 10.6138L8.49712 8.54801L10.5581 6.52762ZM9.52453 10.6608L8.30848 9.43682V12.1333L9.52453 10.6608ZM8.30848 5.08837V7.66831L9.51587 6.48468L8.30848 5.08837Z" fill="#939CA3"/>
</g>
<defs>
<clipPath id="clip0_5047_50641">
<rect width="16" height="16" fill="white"/>
</clipPath>
</defs>
</svg>
