<svg width="16" height="16" viewBox="0 0 16 16" fill="none" xmlns="http://www.w3.org/2000/svg">
<path d="M11.7914 4.53715L10.9824 4.23775L10.683 3.4288C10.6304 3.28602 10.4285 3.28602 10.3756 3.4288L10.0762 4.23775L9.26724 4.53715C9.12446 4.58983 9.12446 4.79165 9.26724 4.8446L10.0762 5.144L10.3756 5.95295C10.4283 6.09573 10.6301 6.09573 10.683 5.95295L10.9824 5.144L11.7914 4.8446C11.9342 4.79192 11.9342 4.5901 11.7914 4.53715Z" fill="#939CA3"/>
<path d="M13.3661 2.56995L12.7714 2.34983L12.5513 1.75518C12.528 1.69224 12.4387 1.69224 12.4154 1.75518L12.1953 2.34983L11.6007 2.56995C11.5377 2.59323 11.5377 2.6825 11.6007 2.70579L12.1953 2.92591L12.4154 3.52056C12.4387 3.58349 12.528 3.58349 12.5513 3.52056L12.7714 2.92591L13.3661 2.70579C13.429 2.6825 13.429 2.59323 13.3661 2.56995Z" fill="#939CA3"/>
<path d="M13.086 6.28007L12.7594 6.1592L12.6385 5.83263C12.6153 5.7697 12.526 5.7697 12.5027 5.83263L12.3818 6.1592L12.0553 6.28007C11.9923 6.30336 11.9923 6.39263 12.0553 6.41592L12.3818 6.53679L12.5027 6.86336C12.526 6.92629 12.6153 6.92629 12.6385 6.86336L12.7594 6.53679L13.086 6.41592C13.1489 6.39263 13.1489 6.30336 13.086 6.28007Z" fill="#939CA3"/>
<path d="M10.5294 6.57976H4.67986C4.48857 6.57976 4.33333 6.73501 4.33333 6.9263C4.33333 7.11758 4.48857 7.27283 4.67986 7.27283H10.1828V13.5809C10.1828 13.9812 9.85709 14.3069 9.45677 14.3069H4.00592C3.6056 14.3069 3.27986 13.9812 3.27986 13.5809V2.41913C3.27986 2.01881 3.6056 1.69307 4.00592 1.69307H9.45677C9.85709 1.69307 10.1828 2.01881 10.1828 2.41913C10.1828 2.61042 10.3381 2.76566 10.5294 2.76566C10.7207 2.76566 10.8759 2.61042 10.8759 2.41913C10.8759 1.63651 10.2394 1 9.45677 1H4.00592C3.22331 1 2.58679 1.63651 2.58679 2.41913V13.5809C2.58679 14.3635 3.22331 15 4.00592 15H9.45677C10.2394 15 10.8759 14.3635 10.8759 13.5809V6.9263C10.8759 6.73501 10.7207 6.57976 10.5294 6.57976Z" fill="#939CA3"/>
<path d="M4.33337 4.3187V5.49332C4.33337 5.6846 4.48862 5.83985 4.67991 5.83985C4.8712 5.83985 5.02644 5.6846 5.02644 5.49332V4.3187C5.02644 4.12742 4.8712 3.97217 4.67991 3.97217C4.48862 3.97217 4.33337 4.12742 4.33337 4.3187Z" fill="#939CA3"/>
<path d="M4.67991 11.1557C4.8712 11.1557 5.02644 11.0004 5.02644 10.8092V8.35902C5.02644 8.16773 4.8712 8.01248 4.67991 8.01248C4.48862 8.01248 4.33337 8.16773 4.33337 8.35902V10.8092C4.33337 11.0004 4.48862 11.1557 4.67991 11.1557Z" fill="#939CA3"/>
</svg>
