<svg width="16" height="16" viewBox="0 0 16 16" fill="none" xmlns="http://www.w3.org/2000/svg">
<g clip-path="url(#clip0_5511_56)">
<path d="M15.7251 7.22774H14.9464V4.01076C14.9464 1.92141 13.2465 0.221535 11.1569 0.221535C9.06757 0.221535 7.36775 1.92136 7.36775 4.01076V11.9892C7.36775 13.3814 6.23517 14.5141 4.84303 14.5141C3.45066 14.5141 2.31786 13.3814 2.31786 11.9892V8.68481H3.09659C3.16948 8.68481 3.2394 8.65585 3.29094 8.6043C3.34249 8.55276 3.37144 8.48285 3.37144 8.40995V4.54079C3.37144 4.4679 3.34249 4.39799 3.29094 4.34644C3.2394 4.2949 3.16948 4.26594 3.09659 4.26594H2.83899V2.82036C2.83899 2.74746 2.81003 2.67755 2.75849 2.626C2.70694 2.57446 2.63703 2.5455 2.56414 2.5455H0.807308C0.734412 2.5455 0.664501 2.57446 0.612956 2.626C0.56141 2.67755 0.532452 2.74746 0.532452 2.82036V4.26599H0.274856C0.20196 4.26599 0.132049 4.29495 0.0805036 4.3465C0.028958 4.39804 0 4.46795 0 4.54085L0 8.40995C0 8.48285 0.028958 8.55276 0.0805036 8.6043C0.132049 8.65585 0.20196 8.68481 0.274856 8.68481H1.05358V11.9892C1.05358 14.0786 2.75351 15.7785 4.84308 15.7785C6.93237 15.7785 8.63214 14.0786 8.63214 11.9892V4.01076C8.63214 2.61856 9.76477 1.48587 11.157 1.48587C12.5493 1.48587 13.6821 2.6185 13.6821 4.01076V7.22774H12.9034C12.8305 7.22774 12.7606 7.25669 12.7091 7.30824C12.6575 7.35979 12.6286 7.4297 12.6286 7.50259V11.3717C12.6286 11.4446 12.6575 11.5146 12.7091 11.5661C12.7606 11.6176 12.8305 11.6466 12.9034 11.6466H13.161V13.0922C13.161 13.1651 13.19 13.235 13.2415 13.2865C13.2931 13.3381 13.363 13.367 13.4359 13.367H15.1928C15.2657 13.367 15.3356 13.3381 15.3872 13.2865C15.4387 13.235 15.4677 13.1651 15.4677 13.0922V11.6466H15.7253C15.7981 11.6466 15.8681 11.6176 15.9196 11.5661C15.9712 11.5146 16.0001 11.4446 16.0001 11.3717V7.50259C16 7.42969 15.9711 7.3598 15.9195 7.30827C15.8679 7.25673 15.798 7.22776 15.7251 7.22774ZM1.08216 3.09521H2.28939V4.26599H1.08216V3.09521ZM14.9178 12.8173H13.7106V11.6466H14.9178V12.8173Z" fill="#9CA3AF"/>
</g>
<defs>
<clipPath id="clip0_5511_56">
<rect width="16" height="16" fill="white"/>
</clipPath>
</defs>
</svg>
