<svg width="16" height="16" viewBox="0 0 16 16" fill="none" xmlns="http://www.w3.org/2000/svg">
<path d="M13.6388 8.40936L11.0925 9.09119L10.1109 8.52512V7.46249L11.0813 6.90519L13.6388 7.59033C13.6902 7.60393 13.7418 7.61088 13.7929 7.61088C14.0555 7.61088 14.2961 7.43559 14.3668 7.16963C14.4521 6.852 14.2635 6.52559 13.9461 6.44067L12.5441 6.065L13.8367 5.32304C14.1217 5.15953 14.2203 4.79565 14.0565 4.51065C13.8923 4.22565 13.5294 4.12683 13.2444 4.29094L11.9493 5.03471L12.325 3.63208C12.4099 3.31475 12.2219 2.98804 11.9043 2.90312C11.5888 2.82031 11.2609 3.00648 11.1759 3.32381L10.4935 5.87037L9.51702 6.43099L8.59161 5.89575V4.77299L10.4633 2.9013C10.6957 2.66889 10.6957 2.29232 10.4633 2.05991C10.2309 1.82749 9.8543 1.82749 9.62189 2.05991L8.59161 3.09019V1.59508C8.59161 1.26656 8.32504 1 7.99652 1C7.668 1 7.40144 1.26626 7.40144 1.59508V3.08324L6.37871 2.06051C6.1463 1.8281 5.76972 1.8281 5.53731 2.06051C5.3049 2.29292 5.3049 2.66949 5.53731 2.90191L7.40144 4.76603V5.90059L6.48298 6.43039L5.50649 5.87006L4.82467 3.32412C4.73974 3.00678 4.41364 2.82 4.0963 2.90342C3.77866 2.98834 3.59038 3.31475 3.6753 3.63239L4.05097 5.03471L2.75593 4.29124C2.47033 4.12713 2.10705 4.22565 1.94355 4.51126C1.78004 4.79626 1.87857 5.15983 2.16357 5.32334L3.45589 6.0653L2.05386 6.44097C1.73622 6.52589 1.54793 6.8523 1.63286 7.16994C1.70388 7.43559 1.94445 7.61119 2.20709 7.61119C2.25937 7.61119 2.31105 7.60424 2.36153 7.59064L4.91926 6.90519L5.8885 7.46159L5.88941 8.52512L4.90748 9.09239L2.36122 8.40936C2.046 8.32655 1.71779 8.51303 1.63256 8.83006C1.54763 9.1474 1.73592 9.4741 2.05356 9.55843L3.45045 9.93319L2.16175 10.6773C1.87736 10.8417 1.77974 11.2053 1.94415 11.49C2.05446 11.6816 2.25424 11.7873 2.45975 11.7873C2.56069 11.7873 2.66284 11.7623 2.75684 11.7073L4.05218 10.9598L3.6753 12.3676C3.59007 12.6856 3.77866 13.0111 4.0963 13.0966C4.14768 13.1105 4.19936 13.1171 4.25044 13.1171C4.51307 13.1171 4.75334 12.9415 4.82467 12.6756L5.51011 10.1185L6.48479 9.55601L7.40144 10.0849V11.234L5.53731 13.0981C5.3049 13.3305 5.3049 13.7071 5.53731 13.9395C5.65367 14.0558 5.80569 14.1133 5.95801 14.1133C6.11033 14.1133 6.26266 14.0555 6.37871 13.9395L7.40144 12.9168V14.4046C7.40144 14.7337 7.668 14.9997 7.99652 14.9997C8.32504 14.9997 8.59161 14.7337 8.59161 14.4046V12.9095L9.62189 13.9398C9.73825 14.0561 9.88997 14.1136 10.0426 14.1136C10.1952 14.1136 10.3472 14.0558 10.4633 13.9398C10.6957 13.7074 10.6957 13.3308 10.4633 13.0984L8.59161 11.2267V10.0894L9.51642 9.55571L10.4908 10.1181L11.1762 12.6753C11.2473 12.9412 11.4875 13.1168 11.7502 13.1168C11.8012 13.1168 11.8529 13.1102 11.9046 13.0963C12.2222 13.0107 12.4102 12.6853 12.3253 12.3673L11.9478 10.9595L13.2435 11.7069C13.3335 11.7595 13.436 11.7873 13.5406 11.787C13.7461 11.787 13.9458 11.681 14.0561 11.4896C14.2206 11.2053 14.1229 10.8417 13.8385 10.677L12.5499 9.93319L13.9467 9.55843C14.2644 9.4738 14.4527 9.1474 14.3674 8.83006C14.2828 8.51273 13.9561 8.32595 13.6391 8.40906L13.6388 8.40936ZM8.92103 8.52512L8.00015 9.05703L7.07987 8.52512L7.07897 7.46068L8.00015 6.92906L8.92103 7.46128V8.52481V8.52512Z" fill="#939CA3"/>
</svg>
