<svg width="16" height="16" viewBox="0 0 16 16" fill="none" xmlns="http://www.w3.org/2000/svg">
<path d="M14.7825 7.47C14.32 7.4025 13.945 7.06 13.835 6.605C13.81 6.5 13.7825 6.395 13.7525 6.295C13.62 5.8425 13.7725 5.3575 14.1425 5.0675C14.205 5.0175 14.2375 4.945 14.2375 4.87C14.2375 4.8275 14.2275 4.785 14.205 4.745L13.92 4.255C13.855 4.145 13.7225 4.1025 13.605 4.15C13.4675 4.2025 13.325 4.23 13.185 4.23C12.8775 4.23 12.575 4.105 12.3525 3.8725C12.28 3.795 12.205 3.72 12.1275 3.6475C11.7875 3.325 11.6775 2.825 11.8525 2.39C11.865 2.36 11.87 2.3275 11.87 2.2975C11.87 2.21 11.825 2.125 11.745 2.08L11.255 1.795C11.1475 1.735 11.01 1.76 10.9325 1.8575C10.715 2.135 10.385 2.295 10.0325 2.295C9.9225 2.295 9.8125 2.28 9.705 2.2475C9.605 2.2175 9.5 2.19 9.395 2.165C8.94 2.055 8.5975 1.68 8.53 1.2175C8.5125 1.0925 8.4075 1.0025 8.2825 1H7.7175C7.5925 1 7.4875 1.0925 7.47 1.2175C7.435 1.45 7.335 1.6575 7.1825 1.8225C7.0325 1.99 6.8325 2.11 6.605 2.165C6.505 2.19 6.405 2.215 6.305 2.245C6.195 2.2775 6.08 2.2925 5.97 2.2925C5.6225 2.2925 5.2875 2.14 5.0675 1.8575C4.99 1.76 4.8525 1.735 4.745 1.795L4.255 2.08C4.1475 2.1425 4.1025 2.2725 4.1475 2.39C4.3225 2.8275 4.215 3.3225 3.8725 3.645C3.795 3.72 3.72 3.795 3.645 3.8725C3.325 4.215 2.8275 4.3225 2.3925 4.1475H2.39C2.2725 4.1025 2.1425 4.1475 2.08 4.255L1.795 4.745C1.7725 4.785 1.7625 4.8275 1.7625 4.87C1.7625 4.945 1.795 5.0175 1.8575 5.0675C2.2275 5.3575 2.3825 5.8425 2.2475 6.2925C2.2175 6.3975 2.19 6.5025 2.165 6.6075C2.055 7.0625 1.68 7.4025 1.2175 7.47H1.215C1.0925 7.4875 1 7.5925 1 7.7175V8.2825C1 8.4075 1.0925 8.5125 1.215 8.53H1.2175C1.68 8.5975 2.055 8.9375 2.165 9.3925C2.19 9.4975 2.2175 9.6025 2.2475 9.7075C2.3825 10.1575 2.2275 10.6425 1.8575 10.9325C1.76 11.01 1.735 11.1475 1.795 11.255L2.08 11.745C2.1425 11.8525 2.2725 11.8975 2.39 11.8525H2.3925C2.8275 11.6775 3.3225 11.785 3.645 12.1275C3.72 12.205 3.795 12.28 3.8725 12.355C4.215 12.675 4.3225 13.1725 4.1475 13.6075C4.1025 13.7275 4.1475 13.8575 4.255 13.92L4.745 14.205C4.785 14.2275 4.8275 14.2375 4.87 14.2375C4.945 14.2375 5.0175 14.205 5.0675 14.1425C5.3575 13.7725 5.8425 13.62 6.2925 13.7525C6.395 13.7825 6.5 13.8125 6.6075 13.8375C7.0625 13.945 7.4025 14.32 7.47 14.7825C7.4875 14.9075 7.5925 15 7.7175 15H8.2825C8.4075 15 8.5125 14.9075 8.53 14.785C8.595 14.3225 8.9375 13.945 9.3925 13.8375C9.5 13.8125 9.605 13.7825 9.7075 13.7525C9.815 13.72 9.925 13.705 10.0325 13.705C10.3775 13.705 10.7125 13.86 10.9325 14.1425C11.01 14.24 11.1475 14.265 11.255 14.205L11.745 13.92C11.855 13.855 11.8975 13.7225 11.85 13.605C11.7975 13.4675 11.77 13.325 11.77 13.185C11.77 12.8775 11.895 12.575 12.1275 12.3525C12.205 12.28 12.28 12.205 12.3525 12.1275C12.675 11.7875 13.175 11.6775 13.61 11.8525C13.64 11.865 13.6725 11.87 13.7025 11.87C13.79 11.87 13.875 11.825 13.92 11.745L14.205 11.255C14.265 11.1475 14.24 11.01 14.1425 10.9325C13.865 10.715 13.705 10.385 13.705 10.0325C13.705 9.9225 13.72 9.8125 13.7525 9.705C13.7825 9.605 13.81 9.5 13.835 9.395C13.945 8.94 14.32 8.5975 14.7825 8.53C14.905 8.5125 15 8.4075 15 8.2825V7.7175C15 7.5925 14.905 7.4875 14.7825 7.47ZM13 8.2025C13 8.2925 12.9325 8.365 12.845 8.38C12.5125 8.4275 12.245 8.6725 12.1675 8.9975C12.15 9.0725 12.13 9.1475 12.11 9.2175C12.085 9.295 12.075 9.3725 12.075 9.4525C12.075 9.6975 12.185 9.9375 12.3875 10.095C12.4575 10.15 12.475 10.2475 12.4325 10.325L12.2275 10.675C12.1975 10.7325 12.135 10.765 12.0725 10.765C12.0525 10.765 12.0275 10.76 12.0075 10.7525C11.6975 10.6275 11.34 10.705 11.11 10.9475C11.0575 11.0025 11.0025 11.0575 10.9475 11.11C10.7825 11.2675 10.6925 11.485 10.6925 11.7025C10.6925 11.805 10.7125 11.905 10.75 12.0025C10.7825 12.0875 10.75 12.1825 10.675 12.2275L10.325 12.4325C10.2475 12.475 10.15 12.4575 10.095 12.3875C9.94 12.19 9.705 12.075 9.455 12.075C9.3775 12.075 9.2975 12.0875 9.22 12.11L8.995 12.17C8.67 12.2475 8.425 12.515 8.38 12.845C8.3675 12.9325 8.295 13 8.205 13H7.8C7.7125 13 7.6375 12.935 7.625 12.8475H7.6225C7.5775 12.515 7.3325 12.2475 7.0075 12.17L6.7825 12.11C6.4625 12.0125 6.1125 12.1225 5.9075 12.3875C5.8725 12.4325 5.82 12.455 5.7675 12.455C5.7375 12.455 5.705 12.4475 5.6775 12.4325L5.3275 12.2275C5.25 12.185 5.2175 12.09 5.25 12.0075C5.375 11.695 5.295 11.34 5.0525 11.11C4.9975 11.0575 4.9425 11.0025 4.89 10.9475C4.66 10.705 4.305 10.625 3.995 10.75H3.9925C3.91 10.785 3.815 10.75 3.7725 10.675L3.5675 10.325C3.525 10.2475 3.5425 10.15 3.6125 10.095C3.815 9.9375 3.925 9.6975 3.925 9.4525C3.925 9.375 3.915 9.2975 3.8925 9.22C3.87 9.145 3.85 9.07 3.8325 8.995C3.755 8.67 3.485 8.425 3.155 8.38H3.1525C3.065 8.365 3 8.29 3 8.2025V7.7975C3 7.71 3.065 7.635 3.1525 7.6225H3.155C3.485 7.575 3.755 7.33 3.8325 7.005C3.85 6.93 3.87 6.855 3.8925 6.78C3.9875 6.46 3.8775 6.1125 3.6125 5.905C3.57 5.8725 3.545 5.82 3.545 5.765C3.545 5.735 3.5525 5.7025 3.5675 5.675L3.7725 5.325C3.815 5.2475 3.91 5.215 3.9925 5.2475H3.995C4.305 5.375 4.66 5.295 4.89 5.0525C4.9425 4.9975 4.9975 4.9425 5.0525 4.89C5.295 4.66 5.375 4.305 5.25 3.995H5.2475C5.215 3.91 5.2475 3.815 5.325 3.7725L5.675 3.5675C5.7525 3.525 5.85 3.5425 5.905 3.6125C6.065 3.815 6.3025 3.925 6.55 3.925C6.63 3.925 6.71 3.9125 6.79 3.89C6.86 3.8675 6.9325 3.85 7.0025 3.8325C7.1625 3.795 7.305 3.71 7.415 3.5875C7.525 3.47 7.595 3.32 7.62 3.155C7.635 3.0675 7.7075 3 7.7975 3H8.2025C8.2925 3 8.365 3.0675 8.38 3.155C8.4275 3.4875 8.6725 3.755 8.9975 3.8325C9.0725 3.85 9.1475 3.87 9.2175 3.89C9.295 3.915 9.3725 3.925 9.4525 3.925C9.6975 3.925 9.9375 3.815 10.095 3.6125C10.15 3.5425 10.2475 3.525 10.325 3.5675L10.675 3.7725C10.7325 3.8025 10.765 3.865 10.765 3.9275C10.765 3.9475 10.76 3.9725 10.7525 3.9925C10.6275 4.3025 10.705 4.66 10.9475 4.89C11.0025 4.9425 11.0575 4.9975 11.11 5.0525C11.2675 5.2175 11.485 5.3075 11.7025 5.3075C11.805 5.3075 11.905 5.2875 12.0025 5.25C12.0875 5.2175 12.1825 5.2475 12.2275 5.325L12.4325 5.675C12.4475 5.7025 12.455 5.735 12.455 5.765C12.455 5.8175 12.4325 5.87 12.3875 5.905C12.1225 6.1125 12.0125 6.46 12.11 6.7825C12.13 6.8525 12.15 6.9275 12.1675 7.0025C12.245 7.3275 12.5125 7.5725 12.845 7.62C12.9325 7.635 13 7.7075 13 7.7975V8.2025Z" fill="#939CA3"/>
<path d="M10.4225 7.81C10.2575 7.785 10.1225 7.665 10.085 7.5025L10.055 7.39C10.0075 7.23 10.0625 7.055 10.195 6.9525C10.215 6.935 10.2275 6.91 10.2275 6.8825C10.2275 6.8675 10.2275 6.8525 10.215 6.8375L10.115 6.6625C10.0925 6.6225 10.045 6.6075 10.0025 6.625C9.9525 6.645 9.9025 6.6525 9.8525 6.6525C9.7425 6.6525 9.635 6.61 9.555 6.525L9.475 6.445C9.3525 6.33 9.3125 6.1525 9.375 5.9975C9.38 5.985 9.3825 5.975 9.3825 5.9625C9.3825 5.9325 9.365 5.9025 9.3375 5.885L9.1625 5.785C9.125 5.7625 9.075 5.7725 9.0475 5.805C8.945 5.9375 8.77 5.9925 8.61 5.945L8.4975 5.915C8.335 5.8775 8.215 5.7425 8.19 5.5775C8.1825 5.5325 8.145 5.5 8.1 5.5H7.9C7.855 5.5 7.8175 5.5325 7.81 5.5775C7.7975 5.66 7.7625 5.735 7.7075 5.7925C7.655 5.8525 7.5825 5.8975 7.5025 5.915C7.465 5.925 7.43 5.935 7.395 5.945C7.2325 5.995 7.0575 5.94 6.9525 5.805C6.925 5.7725 6.875 5.7625 6.8375 5.785L6.6625 5.885C6.635 5.9025 6.6175 5.9325 6.6175 5.9625C6.6175 5.975 6.62 5.985 6.625 5.9975C6.6875 6.1525 6.6475 6.33 6.5275 6.445C6.4975 6.4725 6.4725 6.4975 6.445 6.5275C6.3675 6.61 6.2575 6.655 6.1475 6.655C6.0975 6.655 6.0475 6.645 5.9975 6.625C5.955 6.6075 5.9075 6.625 5.885 6.6625L5.785 6.8375C5.7625 6.875 5.7725 6.925 5.805 6.9525H5.8075C5.9375 7.055 5.9925 7.23 5.945 7.39L5.915 7.5025C5.8775 7.665 5.7425 7.7875 5.5775 7.81C5.5325 7.8175 5.5 7.855 5.5 7.9V8.1C5.5 8.145 5.5325 8.1825 5.5775 8.19C5.7425 8.2125 5.8775 8.335 5.915 8.4975L5.945 8.61C5.9925 8.77 5.9375 8.945 5.8075 9.0475H5.805C5.7725 9.075 5.7625 9.125 5.785 9.1625L5.885 9.3375C5.9025 9.365 5.9325 9.3825 5.9625 9.3825C5.975 9.3825 5.985 9.3825 5.9975 9.375C6.1525 9.3125 6.33 9.3525 6.445 9.4725C6.4725 9.5025 6.4975 9.5275 6.5275 9.555C6.61 9.6325 6.655 9.7425 6.655 9.8525C6.655 9.9025 6.645 9.9525 6.625 10.0025C6.6075 10.045 6.625 10.0925 6.6625 10.115L6.8375 10.215C6.875 10.2375 6.925 10.2275 6.9525 10.195C7.055 10.0625 7.23 10.0075 7.39 10.055L7.5025 10.085C7.665 10.1225 7.7875 10.2575 7.81 10.4225C7.8175 10.4675 7.855 10.5 7.9 10.5H8.1C8.145 10.5 8.1825 10.4675 8.19 10.4225C8.2125 10.2575 8.335 10.1225 8.4975 10.085L8.61 10.055C8.77 10.0075 8.945 10.0625 9.0475 10.1925C9.075 10.2275 9.125 10.2375 9.1625 10.215L9.3375 10.115C9.3775 10.0925 9.3925 10.0425 9.375 10.0025C9.355 9.9525 9.3475 9.9025 9.3475 9.8525C9.3475 9.7425 9.39 9.635 9.475 9.555L9.555 9.475C9.67 9.3525 9.8475 9.3125 10.0025 9.375C10.015 9.38 10.025 9.3825 10.0375 9.3825C10.0675 9.3825 10.0975 9.365 10.115 9.3375L10.215 9.1625C10.2375 9.125 10.2275 9.075 10.195 9.0475C10.0625 8.945 10.0075 8.77 10.055 8.61L10.085 8.4975C10.1225 8.335 10.2575 8.215 10.4225 8.19C10.4675 8.1825 10.5 8.145 10.5 8.1V7.9C10.5 7.855 10.4675 7.8175 10.4225 7.81ZM8 9C7.4475 9 7 8.5525 7 8C7 7.4475 7.4475 7 8 7C8.5525 7 9 7.4475 9 8C9 8.5525 8.5525 9 8 9Z" fill="#939CA3"/>
</svg>
