<svg width="16" height="16" viewBox="0 0 16 16" fill="none" xmlns="http://www.w3.org/2000/svg">
<path d="M1.13674 0C0.50839 0 0 0.50839 0 1.13674V14.8633C0 15.4859 0.50839 16 1.13674 16H14.8633C15.4859 16 16 15.4916 16 14.8633V1.13674C16 0.514102 15.4916 0 14.8633 0H1.13674ZM14.8576 13.7265C14.8576 14.3492 14.3492 14.8633 13.7208 14.8633H2.26776C1.64513 14.8633 1.13102 14.3549 1.13102 13.7265V2.26776C1.13102 1.64513 1.63941 1.13102 2.26776 1.13102H13.7208C14.3434 1.13102 14.8576 1.63941 14.8576 2.26776V13.7265Z" fill="#939CA3"/>
<path d="M4.82554 4.4769H5.20534C5.64942 4.4769 6 4.8 6 5.18881V6.0869C6 6.47571 5.64942 6.78786 5.20534 6.78786H4.82554V13.4798C4.82554 13.7645 4.5626 14 4.23539 14C3.90818 14 3.64524 13.77 3.64524 13.4798V6.78786H3.30634C2.86811 6.78786 2.5 6.47571 2.5 6.0869V5.18881C2.5 4.8 2.86227 4.4769 3.30634 4.4769H3.64524V3.03119C3.64524 2.74643 3.90818 2.5 4.23539 2.5C4.5626 2.5 4.82554 2.74095 4.82554 3.03119V4.4769Z" fill="#939CA3"/>
<path d="M8.81386 10.7581H9.19366C9.63189 10.7581 10 11.0702 10 11.459V12.3571C10 12.746 9.63773 13.069 9.19366 13.069H8.81386V13.4798C8.81386 13.7645 8.55092 14 8.22371 14C7.89649 14 7.63356 13.77 7.63356 13.4798V13.069H7.29466C6.85058 13.069 6.5 12.746 6.5 12.3571V11.459C6.5 11.0702 6.85058 10.7581 7.29466 10.7581H7.63356V3.03119C7.63356 2.74643 7.89649 2.5 8.22371 2.5C8.55092 2.5 8.81386 2.74095 8.81386 3.03119V10.7581Z" fill="#939CA3"/>
<path d="M13.2053 7.07262H12.8372V3.03119C12.8372 2.74095 12.5743 2.5 12.2471 2.5C11.9199 2.5 11.6569 2.74643 11.6569 3.03119V7.07262H11.3063C10.8623 7.07262 10.5 7.38476 10.5 7.77357V8.67167C10.5 9.06048 10.8681 9.38357 11.3063 9.38357H11.6569V13.4798C11.6569 13.77 11.9199 14 12.2471 14C12.5743 14 12.8372 13.7645 12.8372 13.4798V9.38357H13.2053C13.6494 9.38357 14 9.06048 14 8.67167V7.77357C14 7.38476 13.6494 7.07262 13.2053 7.07262Z" fill="#939CA3"/>
</svg>
