<svg width="16" height="16" viewBox="0 0 16 16" fill="none" xmlns="http://www.w3.org/2000/svg">
<g clip-path="url(#clip0_3609_6960)">
<path d="M7.99986 15C6.13015 15 4.37233 14.272 3.05004 12.9497C1.72775 11.6274 1 9.86957 1 7.99986C1 6.13015 1.72803 4.37233 3.05032 3.05032C4.37261 1.72831 6.13015 1 7.99986 1C9.86957 1 11.6274 1.72803 12.9497 3.05032C14.272 4.37261 15 6.13043 15 8.00014C15 9.86985 14.272 11.6277 12.9497 12.95C11.6274 14.2722 9.86985 15.0003 7.99986 15.0003V15ZM7.99986 1.98155C6.39236 1.98155 4.88105 2.6075 3.74414 3.74442C2.60722 4.88133 1.98127 6.39236 1.98127 8.00014C1.98127 9.60792 2.60722 11.1189 3.74414 12.2559C4.88105 13.3928 6.39208 14.0187 7.99986 14.0187C9.60764 14.0187 11.1187 13.3928 12.2556 12.2559C13.3925 11.1189 14.0184 9.60792 14.0184 8.00014C14.0184 6.39236 13.3925 4.88133 12.2556 3.74442C11.1187 2.6075 9.60736 1.98155 7.99986 1.98155Z" fill="#939CA3"/>
<path d="M9.55188 6.62626L12.7587 3.55878L9.55188 6.62626Z" fill="#939CA3"/>
<path d="M9.55186 7.11705C9.42258 7.11705 9.29358 7.06629 9.1971 6.96561C9.00977 6.76986 9.01678 6.45913 9.21253 6.27179L12.4194 3.20431C12.6154 3.01697 12.9259 3.02398 13.1132 3.21973C13.3005 3.41548 13.2935 3.72621 13.0978 3.91355L9.89092 6.98103C9.79585 7.0719 9.67358 7.11705 9.55186 7.11705Z" fill="#939CA3"/>
<path d="M9.39062 11.9496C8.73522 11.9496 8.07955 11.7 7.58064 11.2011L4.79752 8.41797C3.79943 7.41987 3.79943 5.79583 4.79752 4.79801C5.79562 3.79991 7.41967 3.79991 8.41748 4.79801L11.2006 7.58113C11.6841 8.06461 11.9502 8.70739 11.9502 9.39111C11.9502 10.0748 11.6841 10.7176 11.2006 11.2011C10.7017 11.7 10.046 11.9496 9.39062 11.9496ZM6.60778 5.0305C6.20366 5.0305 5.79955 5.18446 5.4919 5.49211C4.87661 6.1074 4.87661 7.10886 5.4919 7.72415L8.27502 10.5073C8.58266 10.8149 8.98678 10.9689 9.3909 10.9689C9.79502 10.9689 10.1991 10.8152 10.5068 10.5073C11.1221 9.89198 11.1221 8.89052 10.5068 8.27523L7.72367 5.49211C7.41602 5.18446 7.0119 5.0305 6.60778 5.0305Z" fill="#939CA3"/>
<path d="M5.14382 5.14632L4.4873 4.48981L5.14382 5.14632Z" fill="#939CA3"/>
<path d="M5.14379 5.6371C5.01815 5.6371 4.89251 5.58914 4.79688 5.49323L4.14036 4.83672C3.94882 4.64517 3.94882 4.33444 4.14036 4.14262C4.3319 3.95108 4.64263 3.95108 4.83446 4.14262L5.49097 4.79914C5.68252 4.99068 5.68252 5.30141 5.49097 5.49323C5.39506 5.58914 5.26943 5.6371 5.14407 5.6371H5.14379Z" fill="#939CA3"/>
<path d="M7.97131 5.04623L8.62783 4.38971L7.97131 5.04623Z" fill="#939CA3"/>
<path d="M7.97131 5.537C7.84568 5.537 7.72004 5.48905 7.62413 5.39314C7.43258 5.20159 7.43258 4.89058 7.62413 4.69904L8.28064 4.04252C8.47219 3.85098 8.78292 3.85098 8.97474 4.04252C9.16656 4.23406 9.16628 4.54508 8.97474 4.73662L8.31822 5.39314C8.22231 5.48905 8.09667 5.53672 7.97131 5.53672V5.537Z" fill="#939CA3"/>
<path d="M4.39197 8.62551L5.04849 7.96899L4.39197 8.62551Z" fill="#939CA3"/>
<path d="M4.39193 9.11631C4.26629 9.11631 4.14066 9.06836 4.04502 8.97273C3.85348 8.78118 3.85348 8.47017 4.04502 8.27863L4.70154 7.62211C4.89308 7.43057 5.2041 7.43057 5.39564 7.62211C5.58718 7.81365 5.58718 8.12467 5.39564 8.31621L4.73912 8.97273C4.64321 9.06864 4.51757 9.11659 4.39193 9.11659V9.11631Z" fill="#939CA3"/>
<path d="M7.26648 11.5062L7.923 10.8497L7.26648 11.5062Z" fill="#939CA3"/>
<path d="M7.26644 11.997C7.14081 11.997 7.01517 11.9491 6.91954 11.8532C6.72799 11.6616 6.72799 11.3509 6.91954 11.1591L7.57605 10.5025C7.7676 10.311 8.07833 10.311 8.27015 10.5025C8.46169 10.6941 8.46169 11.0048 8.27015 11.1966L7.61363 11.8532C7.51772 11.9491 7.39208 11.997 7.26672 11.997H7.26644Z" fill="#939CA3"/>
<path d="M10.8021 7.87698L11.4586 7.22046L10.8021 7.87698Z" fill="#939CA3"/>
<path d="M10.8021 8.36778C10.6764 8.36778 10.5508 8.31982 10.4552 8.22419C10.2636 8.03265 10.2636 7.72164 10.4552 7.53009L11.1117 6.87358C11.3032 6.68203 11.6143 6.68203 11.8058 6.87358C11.9973 7.06512 11.9973 7.37613 11.8058 7.56767L11.1493 8.22419C11.0534 8.3201 10.9277 8.36806 10.8021 8.36806V8.36778Z" fill="#939CA3"/>
<path d="M12.3849 9.87657H11.4564C11.1852 9.87657 10.9656 9.65698 10.9656 9.38579C10.9656 9.11461 11.1852 8.89502 11.4564 8.89502H12.3849C12.6561 8.89502 12.8757 9.11461 12.8757 9.38579C12.8757 9.65698 12.6561 9.87657 12.3849 9.87657Z" fill="#939CA3"/>
<path d="M4.54371 6.96586H3.61517C3.34398 6.96586 3.12439 6.74628 3.12439 6.47509C3.12439 6.2039 3.34398 5.98431 3.61517 5.98431H4.54371C4.8149 5.98431 5.03449 6.2039 5.03449 6.47509C5.03449 6.74628 4.8149 6.96586 4.54371 6.96586Z" fill="#939CA3"/>
<path d="M6.50201 5.02997C6.23082 5.02997 6.01123 4.81038 6.01123 4.5392V3.61065C6.01123 3.33946 6.23082 3.11987 6.50201 3.11987C6.77319 3.11987 6.99278 3.33946 6.99278 3.61065V4.5392C6.99278 4.81038 6.77319 5.02997 6.50201 5.02997Z" fill="#939CA3"/>
<path d="M9.40288 12.8796C9.1317 12.8796 8.91211 12.66 8.91211 12.3888V11.4603C8.91211 11.1891 9.1317 10.9695 9.40288 10.9695C9.67407 10.9695 9.89366 11.1891 9.89366 11.4603V12.3888C9.89366 12.66 9.67407 12.8796 9.40288 12.8796Z" fill="#939CA3"/>
<path d="M9.63006 9.25684C9.83646 9.25684 10.0039 9.42426 10.0039 9.63067C10.0039 9.83707 9.83646 10.0045 9.63006 10.0045C9.42365 10.0045 9.25623 9.83707 9.25623 9.63067C9.25623 9.42426 9.42365 9.25684 9.63006 9.25684Z" fill="#939CA3"/>
<path d="M6.62322 6.8952C6.82963 6.8952 6.99705 7.06263 6.99705 7.26903C6.99705 7.47544 6.82963 7.64286 6.62322 7.64286C6.41681 7.64286 6.24939 7.47544 6.24939 7.26903C6.24939 7.06263 6.41681 6.8952 6.62322 6.8952Z" fill="#939CA3"/>
<path d="M6.502 5.58777C6.70841 5.58777 6.87584 5.75519 6.87584 5.9616C6.87584 6.16801 6.70841 6.33543 6.502 6.33543C6.2956 6.33543 6.12817 6.16801 6.12817 5.9616C6.12817 5.75519 6.2956 5.58777 6.502 5.58777Z" fill="#939CA3"/>
<path d="M10.8536 10.8539L11.5012 11.5014L10.8536 10.8539Z" fill="#939CA3"/>
<path d="M11.5011 11.9922C11.3755 11.9922 11.2499 11.9443 11.1542 11.8486L10.5067 11.2011C10.3152 11.0096 10.3152 10.6985 10.5067 10.507C10.6982 10.3155 11.0092 10.3155 11.2008 10.507L11.8483 11.1545C12.0399 11.3461 12.0399 11.6571 11.8483 11.8486C11.7524 11.9446 11.6268 11.9925 11.5011 11.9925V11.9922Z" fill="#939CA3"/>
<path d="M6.50207 9.42847L3.36279 12.5677L6.50207 9.42847Z" fill="#939CA3"/>
<path d="M3.36251 13.0585C3.23687 13.0585 3.11124 13.0106 3.01561 12.9147C2.82406 12.7231 2.82406 12.4124 3.01561 12.2206L6.15489 9.08128C6.34643 8.88974 6.65716 8.88974 6.84898 9.08128C7.04052 9.27282 7.04052 9.58355 6.84898 9.77538L3.7097 12.9147C3.61379 13.0106 3.48815 13.0585 3.36279 13.0585H3.36251Z" fill="#939CA3"/>
</g>
<defs>
<clipPath id="clip0_3609_6960">
<rect width="14" height="14" fill="white" transform="translate(1 1)"/>
</clipPath>
</defs>
</svg>
