<svg width="16" height="16" viewBox="0 0 16 16" fill="none" xmlns="http://www.w3.org/2000/svg">
<path d="M4.26649 7.01866H3.68841V9.55671H4.26649C4.80941 9.55671 5.08431 9.30295 5.08431 8.7952V7.77994C5.08431 7.27242 4.80941 7.01866 4.26649 7.01866Z" fill="#939CA3"/>
<path d="M9.15917 7.01866H8.46111V8.05507H9.15917C9.51176 8.05507 9.68784 7.8859 9.68784 7.54043C9.68806 7.19473 9.51176 7.01866 9.15917 7.01866Z" fill="#939CA3"/>
<path d="M13.3142 3.78589H2.0009C1.25899 3.78589 0.657532 4.38734 0.657532 5.12926V11.4457C0.657532 12.1876 1.25899 12.789 2.0009 12.789H13.3142C14.0561 12.789 14.6575 12.1876 14.6575 11.4457V5.12926C14.6575 4.38734 14.0561 3.78589 13.3142 3.78589ZM6.48022 8.81635C6.48022 9.42983 6.2899 9.90908 5.91616 10.2545C5.53552 10.614 4.99973 10.7903 4.31569 10.7903H2.59568C2.39112 10.7903 2.2925 10.6917 2.2925 10.4943V6.08086C2.2925 5.88342 2.39112 5.78481 2.59568 5.78481H4.31591C4.99973 5.78481 5.53552 5.9611 5.91638 6.31347C6.29012 6.65894 6.48044 7.14532 6.48044 7.75879L6.48022 8.81635ZM10.6397 8.8375C10.3225 9.14068 9.88528 9.2887 9.32834 9.2887H8.46111V10.4943C8.46111 10.6917 8.3625 10.7903 8.16505 10.7903H7.36838C7.16381 10.7903 7.0652 10.6917 7.0652 10.4943V6.08086C7.0652 5.88342 7.16381 5.78481 7.36838 5.78481H9.3141C9.87103 5.78481 10.3082 5.93996 10.6394 6.24313C10.9709 6.56033 11.1329 6.99039 11.1329 7.54733C11.1332 8.09714 10.9711 8.5272 10.6397 8.8375ZM11.6267 10.5083V6.06684C11.6267 5.87652 11.7184 5.78481 11.9087 5.78481H12.7405C12.9308 5.78481 13.0226 5.87652 13.0226 6.06684V10.5083C13.0226 10.6986 12.9308 10.7903 12.7405 10.7903H11.9087C11.7184 10.7903 11.6267 10.6986 11.6267 10.5083Z" fill="#939CA3"/>
</svg>
