<svg width="16" height="16" viewBox="0 0 16 16" fill="none" xmlns="http://www.w3.org/2000/svg">
<path d="M14.9052 7.40838C14.8334 7.31896 14.731 7.26304 14.6189 7.25086C14.6142 7.25031 14.1236 7.19604 13.5727 7.21182C12.7411 7.23536 12.2084 7.40451 11.9446 7.72897C11.719 8.00692 11.6877 8.47534 11.6514 9.01879C11.6428 9.14696 11.6273 9.3809 11.6005 9.59628C11.5966 9.56361 11.5924 9.52873 11.5886 9.49219C11.5454 9.08467 11.5221 8.57251 11.4972 8.0299C11.4058 6.03275 11.3267 4.30773 10.3228 4.28503C10.3173 4.28503 10.3118 4.28503 10.3062 4.28503C10.0751 4.28503 9.76914 4.40961 9.5903 4.98351C9.50614 5.25232 9.44108 5.62911 9.3918 6.13546C9.30404 7.0352 9.27664 8.20154 9.24757 9.43654L9.24701 9.45537C9.22016 10.5951 9.19248 11.7737 9.11274 12.6884C9.05904 13.3027 8.99204 13.6695 8.93501 13.8865C8.92089 13.84 8.90622 13.7866 8.89127 13.7254C8.81181 13.3996 8.74786 12.9561 8.69554 12.3697C8.59505 11.246 8.55656 9.82551 8.51614 8.32197C8.47047 6.63184 8.4234 4.88412 8.28 3.56274C8.20054 2.82966 8.09756 2.28345 7.96523 1.89282C7.76396 1.30038 7.45639 1 7.05136 1C6.47581 1 6.28478 1.72616 6.11618 3.15606C5.99022 4.22496 5.90135 5.60724 5.81553 6.94384L5.8147 6.95741C5.74937 7.96982 5.68763 8.92577 5.61427 9.68238C5.60292 9.80059 5.59129 9.91161 5.57966 10.0157C5.52623 9.52624 5.50879 8.92023 5.49162 8.33194C5.4429 6.66146 5.39307 5.6961 4.93572 5.28361C4.7854 5.14823 4.60185 5.08428 4.40418 5.09923C3.81035 5.14408 3.59746 5.63464 3.52354 5.92284C3.43855 6.2545 3.43689 6.63765 3.43495 7.00862C3.4344 7.16476 3.43246 7.63733 3.3865 7.73229C3.2431 7.89618 2.39679 8.02215 1.46438 7.94712C1.35032 7.93771 1.2393 7.97342 1.15182 8.04762C1.06434 8.12181 1.0109 8.22563 1.00177 8.33996C0.992633 8.4543 1.02835 8.56531 1.10226 8.6528C1.17646 8.74028 1.28027 8.79343 1.39461 8.80285C1.88462 8.84271 3.52493 8.92217 4.05536 8.27075C4.28901 7.98339 4.29123 7.53352 4.29372 7.0125C4.29511 6.69468 4.29649 6.36607 4.35546 6.13629C4.37262 6.06957 4.38896 6.02776 4.40418 6.00146C4.44073 6.09033 4.49388 6.26889 4.53651 6.61384C4.59659 7.09638 4.61514 7.73146 4.63313 8.3455V8.35685C4.65445 9.07775 4.67604 9.82329 4.76353 10.3994C4.81557 10.741 4.95372 11.6485 5.64832 11.7125C5.78065 11.7247 5.91104 11.6826 6.01541 11.5932C6.35981 11.2983 6.45283 10.4025 6.67209 6.99865C6.75043 5.78359 6.83127 4.52699 6.93924 3.51956C7.01344 2.82717 7.08569 2.40415 7.14438 2.14669C7.23104 2.39862 7.339 2.85126 7.42621 3.65493C7.56519 4.93727 7.61225 6.66478 7.65765 8.33553L7.65848 8.36128C7.7025 9.97999 7.74403 11.509 7.86335 12.6839C7.92951 13.3373 8.01506 13.8237 8.12469 14.1709C8.29827 14.7207 8.57567 14.9997 8.94913 14.9997C9.64595 14.9997 9.83974 14.0396 9.94521 13.002C10.0457 12.0212 10.0762 10.7203 10.1058 9.46201C10.129 8.45596 10.1556 7.31536 10.224 6.46684C10.2664 5.94443 10.3181 5.61471 10.3641 5.40791C10.397 5.51726 10.4327 5.6662 10.466 5.8683C10.5665 6.48096 10.6035 7.28851 10.6393 8.06921C10.6683 8.70706 10.696 9.30947 10.7578 9.7754C10.8073 10.1483 10.8992 10.8426 11.4435 10.8988C11.665 10.9221 11.8687 10.8612 12.0326 10.723C12.421 10.3961 12.4653 9.72474 12.5082 9.07582V9.07083C12.5215 8.87621 12.5561 8.36073 12.6123 8.26909C12.748 8.10742 13.5918 8.00249 14.5242 8.10382C14.638 8.11627 14.7501 8.08361 14.8395 8.01218C14.9292 7.94048 14.9854 7.83805 14.9979 7.72316C15.0104 7.6091 14.9777 7.49725 14.9057 7.40811L14.9052 7.40838Z" fill="#939CA3"/>
</svg>
