<svg width="16" height="16" viewBox="0 0 16 16" fill="none" xmlns="http://www.w3.org/2000/svg">
<path fill-rule="evenodd" clip-rule="evenodd" d="M8.07943 0C4.99829 0 2.5 2.53086 2.5 5.65257C2.5 8.71943 5.47714 11.6149 7.08229 12.9526C7.36187 13.1868 7.71498 13.3152 8.07971 13.3152C8.44445 13.3152 8.79756 13.1868 9.07714 12.9526C10.6817 11.6149 13.6594 8.71943 13.6594 5.65257C13.6589 2.53086 11.1606 0 8.07943 0ZM6.43593 5.20513C6.46777 5.25206 6.49249 5.30611 6.51009 5.36728H7.06313C7.04554 5.23991 7.00573 5.12343 6.94372 5.01785C6.88172 4.91143 6.80169 4.81968 6.70365 4.74259C6.60645 4.66549 6.495 4.606 6.36931 4.5641C6.24362 4.52137 6.10787 4.5 5.96207 4.5C5.79196 4.5 5.63401 4.52975 5.48821 4.58924C5.3424 4.64874 5.21462 4.73546 5.10485 4.84942C4.99507 4.96339 4.9096 5.10249 4.84843 5.26672C4.7881 5.43012 4.75793 5.61615 4.75793 5.8248C4.75793 6.09629 4.80863 6.33092 4.91002 6.52867C5.01225 6.72559 5.1547 6.87768 5.33738 6.98494C5.52005 7.09136 5.73205 7.14457 5.97338 7.14457C6.18957 7.14457 6.38146 7.10099 6.54905 7.01385C6.71664 6.92586 6.8482 6.80101 6.94372 6.63928C7.03925 6.47672 7.08701 6.28232 7.08701 6.05607V5.73178H6.00983V6.14154H6.5627C6.56047 6.24444 6.53707 6.3341 6.49249 6.41052C6.4464 6.49097 6.37937 6.55339 6.29138 6.59781C6.20423 6.64138 6.09907 6.66317 5.97589 6.66317C5.84015 6.66317 5.72241 6.63049 5.6227 6.56512C5.52298 6.49893 5.44589 6.40298 5.39142 6.27729C5.33696 6.1516 5.30972 5.99909 5.30972 5.81977C5.30972 5.64045 5.33738 5.48878 5.39268 5.36476C5.44799 5.23991 5.52508 5.1448 5.62395 5.07944C5.72367 5.01408 5.83931 4.9814 5.97087 4.9814C6.04125 4.9814 6.10536 4.9902 6.16317 5.0078C6.22183 5.02539 6.27378 5.05095 6.31903 5.08447C6.36512 5.11715 6.40409 5.15737 6.43593 5.20513ZM7.49583 4.53519V7.10937H8.04008V6.27478H8.4976C8.69535 6.27478 8.86378 6.23832 9.00288 6.16542C9.14282 6.09252 9.24965 5.99071 9.32339 5.85999C9.39713 5.72927 9.434 5.57844 9.434 5.4075C9.434 5.23656 9.39755 5.08573 9.32465 4.95501C9.25259 4.82345 9.14784 4.7208 9.01042 4.64706C8.873 4.57248 8.70666 4.53519 8.51142 4.53519H7.49583ZM8.04008 5.83862H8.40961C8.51435 5.83862 8.60066 5.82061 8.66854 5.78458C8.73725 5.74771 8.78836 5.69701 8.82188 5.63249C8.85624 5.56713 8.87342 5.49213 8.87342 5.4075C8.87342 5.32203 8.85624 5.24745 8.82188 5.18377C8.78836 5.11924 8.73725 5.06939 8.66854 5.03419C8.59982 4.99816 8.51268 4.98014 8.4071 4.98014H8.04008V5.83862ZM11.184 5.27552C11.1739 5.17413 11.1307 5.09536 11.0545 5.03922C10.9782 4.98308 10.8748 4.95501 10.744 4.95501C10.6552 4.95501 10.5802 4.96758 10.519 4.99271C10.4579 5.01701 10.4109 5.05095 10.3783 5.09452C10.3464 5.1381 10.3305 5.18754 10.3305 5.24284C10.3288 5.28893 10.3385 5.32915 10.3594 5.36351C10.3812 5.39786 10.4109 5.42761 10.4487 5.45275C10.4864 5.47705 10.5299 5.49842 10.5794 5.51685C10.6288 5.53445 10.6816 5.54953 10.7377 5.5621L10.969 5.6174C11.0813 5.64254 11.1844 5.67606 11.2782 5.71796C11.3721 5.75986 11.4534 5.81139 11.5221 5.87256C11.5908 5.93373 11.644 6.00579 11.6817 6.08875C11.7202 6.17171 11.7399 6.26682 11.7408 6.37407C11.7399 6.53161 11.6997 6.66819 11.6201 6.78383C11.5413 6.89863 11.4274 6.98787 11.2782 7.05155C11.1299 7.1144 10.951 7.14582 10.7415 7.14582C10.5337 7.14582 10.3527 7.11398 10.1985 7.0503C10.0452 6.98661 9.92536 6.89234 9.83905 6.76749C9.75358 6.6418 9.70875 6.48636 9.70456 6.30117H10.2312C10.2371 6.38748 10.2618 6.45954 10.3054 6.51736C10.3498 6.57434 10.4089 6.6175 10.4826 6.64682C10.5572 6.67531 10.6414 6.68956 10.7352 6.68956C10.8274 6.68956 10.9074 6.67615 10.9753 6.64934C11.044 6.62252 11.0972 6.58524 11.1349 6.53747C11.1726 6.48971 11.1915 6.43482 11.1915 6.37282C11.1915 6.315 11.1743 6.2664 11.14 6.22701C11.1064 6.18763 11.057 6.15411 10.9916 6.12646C10.9271 6.09881 10.8479 6.07367 10.7541 6.05104L10.4738 5.98066C10.2568 5.92786 10.0854 5.84533 9.95971 5.73304C9.83402 5.62076 9.77159 5.46951 9.77243 5.27929C9.77159 5.12343 9.81307 4.98727 9.89686 4.87079C9.9815 4.75432 10.0976 4.6634 10.245 4.59804C10.3925 4.53268 10.5601 4.5 10.7478 4.5C10.9389 4.5 11.1056 4.53268 11.2481 4.59804C11.3913 4.6634 11.5028 4.75432 11.5824 4.87079C11.662 4.98727 11.7031 5.12218 11.7056 5.27552H11.184ZM9.73486 13.7429C10.1741 13.376 10.5986 12.9919 11.0074 12.5914C12.1531 12.9389 12.8949 13.484 12.8949 14.0983C12.8949 15.1486 10.7389 16 8.07943 16C5.42 16 3.264 15.1486 3.264 14.0983C3.264 13.484 4.00571 12.9389 5.15143 12.5914C5.56041 12.9917 5.98492 13.3758 6.424 13.7429C6.88857 14.1303 7.47714 14.344 8.07943 14.344C8.68171 14.344 9.27029 14.1303 9.73486 13.7429Z" fill="#939CA3"/>
</svg>
