<svg width="16" height="16" viewBox="0 0 16 16" fill="none" xmlns="http://www.w3.org/2000/svg">
<path d="M13.9551 10.1693C13.6881 10.1693 13.4718 10.3855 13.4718 10.6526V13.6165C13.4718 13.6914 13.4107 13.7524 13.3359 13.7524H8.46843L9.54534 10.5678C9.63096 10.3148 9.49507 10.0406 9.24235 9.95521C8.98962 9.86986 8.71508 10.0055 8.62973 10.2582L7.44815 13.7524H7.02502L7.6995 11.7577C7.78512 11.5047 7.64923 11.2304 7.3965 11.1451C7.14378 11.0597 6.86924 11.1953 6.78389 11.4481L6.00473 13.7524H2.10259C2.02774 13.7524 1.9667 13.6914 1.9667 13.6165V2.3832C1.9667 2.30835 2.02774 2.24731 2.10259 2.24731H4.23651L3.1596 5.43189C3.07398 5.68489 3.20987 5.95915 3.46259 6.0445C3.51397 6.0619 3.56617 6.07018 3.61754 6.07018C3.81917 6.07018 4.00726 5.94313 4.07548 5.74151L5.25706 2.24731H5.6802L5.00572 4.24202C4.9201 4.49502 5.05599 4.76928 5.30871 4.85463C5.36009 4.87203 5.41229 4.88032 5.46366 4.88032C5.66529 4.88032 5.85338 4.75327 5.9216 4.55164L6.70076 2.24731H13.3362C13.411 2.24731 13.4721 2.30835 13.4721 2.3832V3.00133C13.4721 3.26842 13.6883 3.48468 13.9554 3.48468C14.2225 3.48468 14.4388 3.26842 14.4388 3.00133V2.3832C14.4388 1.77528 13.9441 1.28061 13.3362 1.28061H2.10259C1.49467 1.28061 1 1.77528 1 2.3832V13.6165C1 14.2244 1.49467 14.7191 2.10259 14.7191H6.34777C6.34777 14.7191 6.34998 14.7191 6.35109 14.7191C6.35219 14.7191 6.3533 14.7191 6.3544 14.7191H7.79119C7.79119 14.7191 7.7934 14.7191 7.79451 14.7191C7.79561 14.7191 7.79672 14.7191 7.79782 14.7191H13.3353C13.9433 14.7191 14.4379 14.2244 14.4379 13.6165V10.6526C14.4379 10.3855 14.2217 10.1693 13.9546 10.1693H13.9551Z" fill="#80868B"/>
<path d="M11.5138 5.62191L11.1741 6.54L10.256 6.87972C10.1137 6.9322 10.1137 7.13327 10.256 7.18603L11.1741 7.52575L11.5138 8.44384C11.5663 8.58608 11.7673 8.58608 11.8201 8.44384L12.1598 7.52575L13.0779 7.18603C13.2201 7.13355 13.2201 6.93248 13.0779 6.87972L12.1598 6.54L11.8201 5.62191C11.7676 5.47967 11.5665 5.47967 11.5138 5.62191Z" fill="#80868B"/>
<path d="M14.953 4.73172L14.2893 4.48618L14.0438 3.82247C14.0206 3.75978 13.9316 3.75978 13.9084 3.82247L13.6629 4.48618L12.9992 4.73172C12.9365 4.75492 12.9365 4.84386 12.9992 4.86706L13.6629 5.1126L13.9084 5.77631C13.9316 5.83901 14.0206 5.83901 14.0438 5.77631L14.2893 5.1126L14.953 4.86706C15.0157 4.84386 15.0157 4.75492 14.953 4.73172Z" fill="#80868B"/>
<path d="M14.4653 8.7681L14.0932 8.63028L13.9554 8.25824C13.9322 8.19554 13.8433 8.19554 13.8201 8.25824L13.6822 8.63028L13.3102 8.7681C13.2475 8.7913 13.2475 8.88024 13.3102 8.90344L13.6822 9.04126L13.8201 9.4133C13.8433 9.476 13.9322 9.476 13.9554 9.4133L14.0932 9.04126L14.4653 8.90344C14.528 8.88024 14.528 8.7913 14.4653 8.7681Z" fill="#80868B"/>
</svg>
