<svg width="16" height="16" viewBox="0 0 16 16" fill="none" xmlns="http://www.w3.org/2000/svg">
<path d="M8.56799 2.65974C8.67117 2.60052 8.74148 2.48401 8.74148 2.35004C8.74148 2.15621 8.59409 2 8.41344 2H7.59455C7.41364 2 7.26678 2.15621 7.26678 2.35004C7.26678 2.4838 7.33687 2.6002 7.43969 2.65948C3.06125 2.74067 1.94457 3.77927 1.94457 4.30906H14.0637C14.0588 3.77989 12.935 2.74302 8.56799 2.65974Z" fill="#939CA3"/>
<path d="M8.37238 7.99984C8.37238 8.19832 8.2055 8.35924 7.99965 8.35924C7.79379 8.35924 7.62692 8.19832 7.62692 7.99984C7.62692 7.80136 7.79379 7.64044 7.99965 7.64044C8.2055 7.64044 8.37238 7.80136 8.37238 7.99984Z" fill="#939CA3"/>
<path fill-rule="evenodd" clip-rule="evenodd" d="M14.9993 4.78067C14.9955 5.01509 14.8259 5.1939 14.595 5.20133C14.4656 5.20499 14.3359 5.20426 14.2034 5.20348L14.1201 5.20306C14.0916 5.2029 14.0629 5.2028 14.0341 5.2028C13.8305 6.12133 13.6273 7.03731 13.4238 7.95438L13.0348 9.7077H12.1558V10.1276H11.5086V9.71215H4.27498V10.1269H3.62771V9.7077H3.14093C2.96529 9.7077 2.96454 9.7077 2.92668 9.53778L2.6345 8.22254C2.50974 7.66042 2.38511 7.09836 2.26048 6.53603C2.16888 6.12207 2.07727 5.70878 1.98492 5.29482C1.98262 5.28383 1.97977 5.27305 1.97654 5.26196C1.9738 5.25249 1.97077 5.24282 1.96757 5.23262C1.96464 5.22325 1.96156 5.21336 1.95842 5.2028C1.92366 5.2028 1.88889 5.2029 1.85413 5.20311L1.78803 5.20353C1.6632 5.20437 1.53847 5.20515 1.4141 5.20206C1.17791 5.19615 1.00757 5.02252 1 4.78067H14.9993ZM9.96654 7.99984C9.96654 8.38127 9.08593 8.6905 7.99965 8.6905C6.91336 8.6905 6.03275 8.38127 6.03275 7.99984C6.03275 7.61836 6.91336 7.30913 7.99965 7.30913C9.08593 7.30913 9.96654 7.61836 9.96654 7.99984Z" fill="#939CA3"/>
<path d="M2.71619 11.6578L2.71404 11.6579C2.6924 11.6599 2.67089 11.6619 2.6496 11.6634L2.5103 11.7094C2.22868 11.814 2.04775 12.0099 1.94024 12.2711L1.88044 12.5374C1.86681 12.8305 1.95766 13.0753 2.17872 13.2867C2.38388 13.4833 2.61553 13.5694 2.89412 13.5671C3.08447 13.5656 3.27482 13.5659 3.46516 13.5662L8.0004 13.5664C8.00873 13.5983 8.01629 13.6235 8.02235 13.6495C8.07005 13.8483 8.21616 13.9634 8.4039 13.9863C8.5586 14.0049 8.71622 14.0006 8.87473 13.9962C8.94428 13.9942 9.01401 13.9923 9.08373 13.9923V12.7221C9.01556 12.7221 8.94782 12.7209 8.88045 12.7198C8.72712 12.7171 8.57576 12.7145 8.42586 12.7258C8.23433 12.7407 8.08897 12.8498 8.03598 13.0367C8.00949 13.1309 7.96861 13.1584 7.87549 13.1502L6.42347 13.1473C5.83722 13.149 5.25097 13.1489 4.66471 13.1488L4.22501 13.1487C4.02158 13.1487 3.81814 13.1483 3.6147 13.148C3.37299 13.1477 3.13129 13.1478 2.88959 13.1495C2.72985 13.1509 2.5913 13.1087 2.47623 12.9996C2.30968 12.8423 2.25896 12.616 2.34148 12.4113C2.42627 12.2013 2.62613 12.0685 2.86611 12.0685C3.16573 12.0682 3.46534 12.0681 3.76496 12.0682L10.6599 12.0685C11.3079 12.0685 11.956 12.0685 12.604 12.0692L13.6336 12.0581C13.6492 12.0545 13.6657 12.0537 13.6823 12.053C13.6962 12.0523 13.7102 12.0516 13.7237 12.0492C14.4474 11.9276 14.9766 11.3325 14.9993 10.6144C15.0212 9.90063 14.5307 9.27448 13.8191 9.11346C13.7431 9.09604 13.6653 9.08777 13.5862 9.0794H13.5857C13.5507 9.07574 13.5154 9.07203 13.4799 9.06747V9.48594C13.5024 9.48866 13.5238 9.49159 13.5449 9.49441L13.5489 9.49494C13.5719 9.49802 13.5943 9.50111 13.6169 9.50373C14.1355 9.56457 14.595 10.0156 14.5716 10.6025C14.5488 11.1938 14.0643 11.6478 13.4799 11.6478H8.13894C6.38259 11.6478 4.62701 11.6478 2.87065 11.6486C2.81862 11.6486 2.76697 11.6532 2.71619 11.6578Z" fill="#939CA3"/>
<path d="M9.21132 13.0338C9.21132 13.0879 9.25679 13.1331 9.31288 13.1331H9.85465C9.91074 13.1331 9.95621 13.0874 9.95621 13.0333C9.95621 12.9792 9.91073 12.9373 9.85464 12.9373H9.31288C9.25679 12.9373 9.21132 12.9798 9.21132 13.0338Z" fill="#939CA3"/>
<path d="M9.21132 13.6824C9.21132 13.6293 9.25593 13.5827 9.31096 13.5827H9.85924C9.91427 13.5827 9.95888 13.6244 9.95888 13.6774C9.95888 13.7305 9.91427 13.7749 9.85925 13.7749H9.31096C9.25593 13.7749 9.21132 13.7355 9.21132 13.6824Z" fill="#939CA3"/>
</svg>
