<svg width="16" height="16" viewBox="0 0 16 16" fill="none" xmlns="http://www.w3.org/2000/svg">
<g clip-path="url(#clip0_5047_50737)">
<g clip-path="url(#clip1_5047_50737)">
<path d="M15.8775 4.06384H0.122527C0.0548573 4.06384 0 4.1187 0 4.18637V4.85006C0 4.91773 0.0548573 4.97259 0.122527 4.97259H15.8775C15.9451 4.97259 16 4.91773 16 4.85006V4.18637C16 4.1187 15.9451 4.06384 15.8775 4.06384Z" fill="#939CA3"/>
<path d="M14.9483 5.13599H1.05173C0.980252 5.13599 0.929199 5.19725 0.929199 5.25851V5.58525C0.929199 7.44358 1.68478 9.27128 3.00195 10.5884C3.37974 10.9662 3.79838 11.293 4.24764 11.5789L2.38931 14.836C2.38931 14.836 2.36889 14.8973 2.3791 14.9279C2.38931 14.9586 2.40974 14.9892 2.44037 15.0096L3.01216 15.3364C3.01216 15.3364 3.053 15.3568 3.07342 15.3568C3.11427 15.3568 3.16532 15.3364 3.18574 15.2955L5.05428 12.0281C5.84049 12.3855 6.67776 12.5999 7.55587 12.6612V15.6223C7.55587 15.6937 7.61714 15.7448 7.6784 15.7448H8.33188C8.40335 15.7448 8.45441 15.6835 8.45441 15.6223V12.6612C9.17936 12.6101 9.8941 12.457 10.5782 12.1915L12.3549 15.3057C12.3549 15.3057 12.4161 15.367 12.4672 15.367C12.4876 15.367 12.508 15.367 12.5284 15.3466L13.1002 15.0198C13.1002 15.0198 13.1513 14.979 13.1615 14.9382C13.1717 14.8973 13.1615 14.8667 13.1513 14.8463L11.4155 11.7933C11.9975 11.4768 12.5386 11.0786 13.0185 10.5987C14.3561 9.26107 15.0913 7.48442 15.0913 5.59546V5.26872C15.0913 5.19725 15.03 5.1462 14.9688 5.1462L14.9483 5.13599ZM8.32167 10.8335H7.66819C7.59672 10.8335 7.54566 10.8948 7.54566 10.956V11.732C6.07534 11.6299 4.70712 11.0071 3.64522 9.94518C2.59353 8.89348 1.96047 7.51505 1.85836 6.04473H14.1519C14.0396 7.51505 13.4065 8.90369 12.3651 9.94518C11.3236 10.9867 9.92473 11.6197 8.46462 11.732V10.956C8.46462 10.8846 8.40335 10.8335 8.34209 10.8335H8.32167Z" fill="#939CA3"/>
<path d="M9.67969 2.21574C9.83285 2.59353 9.99622 2.99174 9.76138 3.22658C9.71033 3.27764 9.71033 3.35932 9.76138 3.41037L10.2209 3.86985C10.2209 3.86985 10.2719 3.91069 10.3128 3.91069C10.3128 3.91069 10.374 3.90048 10.4046 3.86985C11.0683 3.20616 10.762 2.471 10.517 1.87879L10.4965 1.82773C10.4353 1.66436 10.374 1.5112 10.3536 1.4091C10.3536 1.36826 10.3536 1.34783 10.3638 1.32741C10.3842 1.29678 10.4659 1.22531 10.7314 1.17425C10.7314 1.17425 10.7314 1.17425 10.7518 1.17425C10.8131 1.17425 10.8641 1.11299 10.8641 1.05173C10.8641 1.05173 10.8641 1.0211 10.8641 1.01089L10.7518 0.377829C10.7416 0.306354 10.6701 0.265512 10.5986 0.275723C10.1085 0.367618 9.79201 0.520777 9.60822 0.75562C9.44485 0.959832 9.40401 1.22531 9.46527 1.57247C9.51633 1.7971 9.5878 2.01152 9.67969 2.22595V2.21574Z" fill="#939CA3"/>
<path d="M4.97255 2.21569C5.12571 2.59348 5.28908 2.9917 5.05423 3.22654C5.03381 3.24696 5.01339 3.2878 5.01339 3.31844C5.01339 3.34907 5.0236 3.3797 5.05423 3.41033L5.52392 3.86981C5.52392 3.86981 5.58518 3.91065 5.61581 3.91065C5.64645 3.91065 5.67708 3.90044 5.70771 3.86981C6.36119 3.20612 6.06508 2.47096 5.82003 1.86853C5.74855 1.69495 5.67708 1.52137 5.65666 1.39884C5.65666 1.358 5.65666 1.33758 5.66687 1.31716C5.68729 1.28653 5.76897 1.21505 6.03445 1.164C6.03445 1.164 6.03445 1.164 6.05487 1.164C6.11613 1.164 6.16719 1.10274 6.16719 1.04147C6.16719 1.04147 6.16719 1.01084 6.16719 1.00063L6.05487 0.367575C6.04466 0.2961 5.97319 0.255258 5.90171 0.265469C5.00318 0.428838 4.6356 0.837262 4.75812 1.56221C4.79897 1.77664 4.88065 1.98085 4.97255 2.21569Z" fill="#939CA3"/>
<path d="M7.32104 2.2259C7.4742 2.60369 7.63757 2.9917 7.40272 3.22654C7.3823 3.24696 7.36188 3.2878 7.36188 3.31844C7.36188 3.34907 7.37209 3.3797 7.40272 3.41033L7.87241 3.86981C7.87241 3.86981 7.93367 3.91065 7.96431 3.91065C7.99494 3.91065 8.02557 3.90044 8.0562 3.86981C8.70968 3.20612 8.41357 2.47096 8.16852 1.87874C8.09704 1.69495 8.02557 1.52137 8.00515 1.39884C8.00515 1.358 8.00515 1.33758 8.01536 1.31716C8.03578 1.28653 8.11746 1.21505 8.38294 1.164C8.38294 1.164 8.38294 1.164 8.40336 1.164C8.46462 1.164 8.51568 1.10274 8.51568 1.04147C8.51568 1.04147 8.51568 1.01084 8.51568 1.00063L8.40336 0.367575C8.39315 0.2961 8.32168 0.255258 8.2502 0.265469C7.76009 0.357364 7.44357 0.510523 7.25977 0.745367C7.10662 0.949578 7.05556 1.21505 7.11683 1.552C7.15767 1.76643 7.23935 1.97064 7.33125 2.21569L7.32104 2.2259Z" fill="#939CA3"/>
</g>
</g>
<defs>
<clipPath id="clip0_5047_50737">
<rect width="16" height="16" fill="white"/>
</clipPath>
<clipPath id="clip1_5047_50737">
<rect width="16" height="15.469" fill="white" transform="translate(0 0.265503)"/>
</clipPath>
</defs>
</svg>
