<svg width="16" height="16" viewBox="0 0 16 16" fill="none" xmlns="http://www.w3.org/2000/svg">
<path d="M6.55822 14.9999C6.55822 11.5519 6.55822 8.12288 6.55822 4.67934C6.60455 4.67934 6.6458 4.67934 6.68683 4.67934C8.49535 4.67934 10.3041 4.6791 12.1126 4.67957C12.6676 4.67957 13.0207 5.03734 13.0209 5.59888C13.0212 8.42176 13.0212 11.2444 13.0209 14.0673C13.0209 14.6492 12.6761 14.9999 12.105 14.9999C10.3041 14.9999 8.50319 14.9999 6.70227 14.9999C6.6571 14.9997 6.61192 14.9999 6.55822 14.9999ZM7.42642 4.97424C7.42642 5.02729 7.42642 5.06585 7.42642 5.10417C7.42711 6.21416 7.42711 7.32392 7.42895 8.43392C7.42987 8.98307 7.84081 9.41188 8.36467 9.41375C8.88946 9.41562 9.30063 8.98961 9.30109 8.43859C9.30224 7.32486 9.30155 6.21089 9.30109 5.09716C9.30109 5.05627 9.2974 5.01537 9.29556 4.97424C8.66775 4.97424 8.05446 4.97424 7.42642 4.97424ZM9.67768 13.8388C10.3161 13.8432 10.8377 13.3212 10.8418 12.6739C10.8457 12.0258 10.3313 11.497 9.69289 11.4933C9.05056 11.4893 8.53131 12.0037 8.52301 12.6524C8.51448 13.3034 9.0312 13.8343 9.67768 13.8388Z" fill="#939CA3"/>
<path d="M6.40703 4.69125C6.40703 8.12778 6.40703 11.5566 6.40703 14.9938C6.36532 14.9959 6.32798 14.9994 6.29087 14.9994C5.78798 14.9999 5.28486 15.0002 4.78196 14.9997C4.26409 14.999 3.90248 14.6351 3.90248 14.1129C3.90225 11.2668 3.90225 8.42082 3.90248 5.57503C3.90248 5.0628 4.23344 4.69849 4.74186 4.684C5.28278 4.66858 5.82463 4.6805 6.36601 4.68073C6.37684 4.68073 6.38767 4.68611 6.40703 4.69125Z" fill="#939CA3"/>
<path d="M10.7609 3.91146C10.1236 3.91146 9.49537 3.91146 8.85927 3.91146C8.85927 2.92695 8.85927 2.61165 8.85927 1.62411C9.49076 1.62411 10.1223 1.62411 10.7609 1.62411C10.7609 2.60464 10.7609 2.91994 10.7609 3.91146Z" fill="#939CA3"/>
<path d="M12.161 4.0568C12.161 4.21805 12.161 4.37181 12.161 4.53095C9.733 4.53095 7.31233 4.53095 4.88407 4.53095C4.88407 4.37251 4.88407 4.21898 4.88407 4.0568C7.30772 4.0568 9.72793 4.0568 12.161 4.0568Z" fill="#939CA3"/>
<path d="M13.1712 6.67661C13.4819 6.67661 13.7889 6.6911 14.0935 6.67171C14.304 6.65839 14.4393 6.71821 14.5487 6.90656C14.6787 7.12972 14.8419 7.33303 15 7.55853C14.3846 7.55853 13.7829 7.55853 13.1712 7.55853C13.1712 7.2739 13.1712 6.98484 13.1712 6.67661Z" fill="#939CA3"/>
<path d="M10.9531 0.999939C10.9531 1.15767 10.9531 1.31167 10.9531 1.47221C10.1896 1.47221 9.43107 1.47221 8.66429 1.47221C8.66429 1.31705 8.66429 1.16305 8.66429 0.999939C9.42278 0.999939 10.1806 0.999939 10.9531 0.999939Z" fill="#939CA3"/>
<path d="M8.37274 8.78583C8.15656 8.78864 7.98278 8.61922 7.97771 8.40119C7.97241 8.17685 8.14273 7.99598 8.36168 7.99318C8.57925 7.99038 8.75971 8.17078 8.75948 8.39021C8.75924 8.60636 8.58639 8.78303 8.37274 8.78583Z" fill="#939CA3"/>
<path d="M1.60943 6.55457V13.1405H1L1.91415 14.9999L2.8283 13.1405H2.21887V6.55457H2.8283L1.91415 4.69515L1 6.55457H1.60943Z" fill="#939CA3"/>
</svg>
