<svg width="16" height="16" viewBox="0 0 16 16" fill="none" xmlns="http://www.w3.org/2000/svg">
<path d="M2.80645 2.03226V2.02639C3.079 1.82023 3.25806 1.49642 3.25806 1.12903C3.25806 0.506484 2.75158 0 2.12903 0C1.50648 0 1 0.506484 1 1.12903C1 1.49642 1.17906 1.82023 1.45161 2.02639V14.9653H1.90323V2.23526C2.05222 2.2657 2.20584 2.2657 2.35484 2.23526V14.9653H2.80645V11.9677H15V2.03226H2.80645ZM2.12903 1.80645C1.75555 1.80645 1.45161 1.50252 1.45161 1.12903C1.45161 0.755548 1.75555 0.451613 2.12903 0.451613C2.50252 0.451613 2.80645 0.755548 2.80645 1.12903C2.80645 1.50252 2.50252 1.80645 2.12903 1.80645ZM14.5484 11.5161H2.80645V2.48387H14.5484V11.5161Z" fill="#939CA3"/>
<path d="M1.45161 14.9653H2.77957V14.5136H1.45161L1.45161 14.9653Z" fill="#939CA3"/>
<path d="M4.9047 2.77584L5.22402 3.09516L3.41757 4.90161L3.09822 4.58229L4.9047 2.77584ZM5.90164 3.77266L4.09519 5.57911L3.77584 5.25977L5.58229 3.45331L5.90164 3.77266ZM6.579 4.45008L4.77255 6.25653L4.4532 5.93719L6.25965 4.13073L6.579 4.45008ZM14.2566 4.58237L13.9373 4.90172L13.2598 4.22425L13.5792 3.9049L14.2566 4.58237ZM12.6751 3.00165L13.3526 3.67912L13.0333 3.99844L12.3558 3.32099L12.6751 3.00165ZM12.5824 6.25724L11.9049 5.57976L12.2242 5.26042L12.9017 5.93789L12.5824 6.25724ZM11.3208 4.35699L11.9982 5.03447L11.6789 5.35379L11.0014 4.67631L11.3208 4.35699ZM11.9982 3.67887L13.5787 5.2594L13.2594 5.57875L11.6788 3.99821L11.9982 3.67887ZM5.35657 10.3212L4.67909 9.64371L4.99841 9.3244L5.67589 10.0018L5.35657 10.3212ZM3.77542 8.7404L4.09473 8.42106L4.77221 9.09853L4.45289 9.41785L3.77542 8.7404ZM11.679 10.0015L12.3565 9.32403L12.6758 9.64337L11.9984 10.3209L11.679 10.0015ZM13.2598 8.42072L13.5792 8.74004L12.9017 9.41751L12.5824 9.09819L13.2598 8.42072ZM11.0017 9.32411L11.6792 8.64661L11.9985 8.96596L11.321 9.64343L11.0017 9.32411ZM12.2244 8.74035L11.9051 8.421L12.5825 7.74355L12.9019 8.06287L12.2244 8.74035ZM12.6758 10.9984L12.3565 10.6791L13.034 10.0016L13.3533 10.3209L12.6758 10.9984ZM13.5791 10.0952L13.2597 9.7759L13.9372 9.09845L14.2565 9.41777L13.5791 10.0952ZM4.67884 10.9984L3.09831 9.41782L3.41765 9.09848L4.99819 10.679L4.67884 10.9984ZM6.03371 9.64459L4.45317 8.06406L4.77249 7.74474L6.35302 9.32527L6.03371 9.64459ZM5.97474 7.13842C6.04745 8.568 7.23 9.70968 8.67742 9.70968C10.1716 9.70968 11.3871 8.49416 11.3871 7C11.3871 6.95326 11.3848 6.90719 11.3801 6.86158C11.3074 5.432 10.1248 4.29032 8.67742 4.29032C7.18326 4.29032 5.96774 5.50584 5.96774 7C5.96774 7.04674 5.97 7.09281 5.97474 7.13842ZM10.9355 7C10.9355 8.2451 9.92252 9.25806 8.67742 9.25806C7.89387 9.25806 7.2029 8.85658 6.79781 8.24893C6.95926 8.31713 7.13652 8.35484 7.32258 8.35484C7.9641 8.35484 8.53268 7.96984 8.7709 7.37439L9.00348 6.79339C9.17239 6.37022 9.57635 6.09677 10.0323 6.09677C10.5304 6.09677 10.9355 6.50187 10.9355 7ZM8.67742 4.74194C9.46097 4.74194 10.1519 5.14342 10.557 5.75106C10.391 5.68096 10.2125 5.64495 10.0323 5.64516C9.39074 5.64516 8.82216 6.03016 8.58393 6.62561L8.35135 7.20661C8.18245 7.62977 7.77848 7.90323 7.32258 7.90323C6.82445 7.90323 6.41936 7.49813 6.41936 7C6.41936 5.7549 7.43232 4.74194 8.67742 4.74194Z" fill="#939CA3"/>
</svg>
