<svg width="16" height="16" viewBox="0 0 16 16" fill="none" xmlns="http://www.w3.org/2000/svg">
<path d="M13.5102 1.10567C13.444 1.03804 13.3533 1 13.2586 1H2.74161C2.64692 1 2.55618 1.03804 2.48996 1.10567C2.42374 1.17359 2.38739 1.26489 2.38936 1.35957L2.67116 14.6551C2.6751 14.8467 2.83178 15 3.0234 15H12.9765C13.1681 15 13.3245 14.8467 13.3288 14.6551L13.6105 1.35957C13.6125 1.26489 13.5765 1.17331 13.5102 1.10567ZM12.8987 1.70449L12.8821 2.48761H3.11809L3.10146 1.70449H12.8987ZM3.36832 14.2955L3.13302 3.19211H12.8672L12.6319 14.2955H3.36832Z" fill="#80868B"/>
<path d="M5.18789 4.91162H4.3625C4.16806 4.91162 4.01025 5.06943 4.01025 5.26387C4.01025 5.45831 4.16806 5.61612 4.3625 5.61612H5.18789C5.38233 5.61612 5.54013 5.45831 5.54013 5.26387C5.54013 5.06943 5.38233 4.91162 5.18789 4.91162Z" fill="#80868B"/>
<path d="M7.33779 4.91162H6.5124C6.31796 4.91162 6.16016 5.06943 6.16016 5.26387C6.16016 5.45831 6.31796 5.61612 6.5124 5.61612H7.33779C7.53223 5.61612 7.69004 5.45831 7.69004 5.26387C7.69004 5.06943 7.53223 4.91162 7.33779 4.91162Z" fill="#80868B"/>
<path d="M9.48757 4.91162H8.66218C8.46774 4.91162 8.30994 5.06943 8.30994 5.26387C8.30994 5.45831 8.46774 5.61612 8.66218 5.61612H9.48757C9.68201 5.61612 9.83982 5.45831 9.83982 5.26387C9.83982 5.06943 9.68201 4.91162 9.48757 4.91162Z" fill="#80868B"/>
<path d="M11.6377 4.91162H10.8123C10.6179 4.91162 10.4601 5.06943 10.4601 5.26387C10.4601 5.45831 10.6179 5.61612 10.8123 5.61612H11.6377C11.8322 5.61612 11.99 5.45831 11.99 5.26387C11.99 5.06943 11.8322 4.91162 11.6377 4.91162Z" fill="#80868B"/>
<path d="M5.18789 7.31818H4.3625C4.16806 7.31818 4.01025 7.47598 4.01025 7.67042C4.01025 7.86486 4.16806 8.02267 4.3625 8.02267H5.18789C5.38233 8.02267 5.54013 7.86486 5.54013 7.67042C5.54013 7.47598 5.38233 7.31818 5.18789 7.31818Z" fill="#80868B"/>
<path d="M7.33779 7.31818H6.5124C6.31796 7.31818 6.16016 7.47598 6.16016 7.67042C6.16016 7.86486 6.31796 8.02267 6.5124 8.02267H7.33779C7.53223 8.02267 7.69004 7.86486 7.69004 7.67042C7.69004 7.47598 7.53223 7.31818 7.33779 7.31818Z" fill="#80868B"/>
<path d="M9.48757 7.31818H8.66218C8.46774 7.31818 8.30994 7.47598 8.30994 7.67042C8.30994 7.86486 8.46774 8.02267 8.66218 8.02267H9.48757C9.68201 8.02267 9.83982 7.86486 9.83982 7.67042C9.83982 7.47598 9.68201 7.31818 9.48757 7.31818Z" fill="#80868B"/>
<path d="M11.6377 7.31818H10.8123C10.6179 7.31818 10.4601 7.47598 10.4601 7.67042C10.4601 7.86486 10.6179 8.02267 10.8123 8.02267H11.6377C11.8322 8.02267 11.99 7.86486 11.99 7.67042C11.99 7.47598 11.8322 7.31818 11.6377 7.31818Z" fill="#80868B"/>
<path d="M5.18789 9.72473H4.3625C4.16806 9.72473 4.01025 9.88254 4.01025 10.077C4.01025 10.2714 4.16806 10.4292 4.3625 10.4292H5.18789C5.38233 10.4292 5.54013 10.2714 5.54013 10.077C5.54013 9.88254 5.38233 9.72473 5.18789 9.72473Z" fill="#80868B"/>
<path d="M7.33779 9.72473H6.5124C6.31796 9.72473 6.16016 9.88254 6.16016 10.077C6.16016 10.2714 6.31796 10.4292 6.5124 10.4292H7.33779C7.53223 10.4292 7.69004 10.2714 7.69004 10.077C7.69004 9.88254 7.53223 9.72473 7.33779 9.72473Z" fill="#80868B"/>
<path d="M9.48757 9.72473H8.66218C8.46774 9.72473 8.30994 9.88254 8.30994 10.077C8.30994 10.2714 8.46774 10.4292 8.66218 10.4292H9.48757C9.68201 10.4292 9.83982 10.2714 9.83982 10.077C9.83982 9.88254 9.68201 9.72473 9.48757 9.72473Z" fill="#80868B"/>
<path d="M11.6377 9.72473H10.8123C10.6179 9.72473 10.4601 9.88254 10.4601 10.077C10.4601 10.2714 10.6179 10.4292 10.8123 10.4292H11.6377C11.8322 10.4292 11.99 10.2714 11.99 10.077C11.99 9.88254 11.8322 9.72473 11.6377 9.72473Z" fill="#80868B"/>
<path d="M5.18789 12.1313H4.3625C4.16806 12.1313 4.01025 12.2891 4.01025 12.4835C4.01025 12.678 4.16806 12.8358 4.3625 12.8358H5.18789C5.38233 12.8358 5.54013 12.678 5.54013 12.4835C5.54013 12.2891 5.38233 12.1313 5.18789 12.1313Z" fill="#80868B"/>
<path d="M7.33779 12.1313H6.5124C6.31796 12.1313 6.16016 12.2891 6.16016 12.4835C6.16016 12.678 6.31796 12.8358 6.5124 12.8358H7.33779C7.53223 12.8358 7.69004 12.678 7.69004 12.4835C7.69004 12.2891 7.53223 12.1313 7.33779 12.1313Z" fill="#80868B"/>
<path d="M9.48757 12.1313H8.66218C8.46774 12.1313 8.30994 12.2891 8.30994 12.4835C8.30994 12.678 8.46774 12.8358 8.66218 12.8358H9.48757C9.68201 12.8358 9.83982 12.678 9.83982 12.4835C9.83982 12.2891 9.68201 12.1313 9.48757 12.1313Z" fill="#80868B"/>
<path d="M11.6377 12.1313H10.8123C10.6179 12.1313 10.4601 12.2891 10.4601 12.4835C10.4601 12.678 10.6179 12.8358 10.8123 12.8358H11.6377C11.8322 12.8358 11.99 12.678 11.99 12.4835C11.99 12.2891 11.8322 12.1313 11.6377 12.1313Z" fill="#80868B"/>
</svg>
