<svg width="16" height="16" viewBox="0 0 16 16" fill="none" xmlns="http://www.w3.org/2000/svg">
<g clip-path="url(#clip0_3609_7031)">
<path d="M14.6515 2.79358H1.34852C1.15613 2.79358 1 2.94971 1 3.14209V12.8579C1 13.0502 1.15613 13.2064 1.34852 13.2064H14.6515C14.8439 13.2064 15 13.0502 15 12.8579V3.14209C15 2.94971 14.8439 2.79358 14.6515 2.79358ZM14.303 12.5094H1.69703V3.49061H14.303V12.5094Z" fill="#939CA3"/>
<path d="M3.45159 6.4265C4.06247 6.4265 4.55931 5.92938 4.55931 5.31878C4.55931 4.70818 4.06247 4.21106 3.45159 4.21106C2.84072 4.21106 2.34387 4.7079 2.34387 5.31878C2.34387 5.92966 2.84072 6.4265 3.45159 6.4265ZM3.45159 4.90781C3.67799 4.90781 3.86228 5.09211 3.86228 5.3185C3.86228 5.5449 3.67799 5.72919 3.45159 5.72919C3.2252 5.72919 3.0409 5.5449 3.0409 5.3185C3.0409 5.09211 3.2252 4.90781 3.45159 4.90781Z" fill="#939CA3"/>
<path d="M6.48394 6.4265C7.09482 6.4265 7.59166 5.92938 7.59166 5.31878C7.59166 4.70818 7.09482 4.21106 6.48394 4.21106C5.87306 4.21106 5.37622 4.7079 5.37622 5.31878C5.37622 5.92966 5.87306 6.4265 6.48394 6.4265ZM6.48394 4.90781C6.71034 4.90781 6.89463 5.09211 6.89463 5.3185C6.89463 5.5449 6.71034 5.72919 6.48394 5.72919C6.25755 5.72919 6.07325 5.5449 6.07325 5.3185C6.07325 5.09211 6.25755 4.90781 6.48394 4.90781Z" fill="#939CA3"/>
<path d="M9.51629 6.4265C10.1272 6.4265 10.624 5.92938 10.624 5.31878C10.624 4.70818 10.1272 4.21106 9.51629 4.21106C8.90541 4.21106 8.40857 4.7079 8.40857 5.31878C8.40857 5.92966 8.90541 6.4265 9.51629 6.4265ZM9.51629 4.90781C9.74269 4.90781 9.92698 5.09211 9.92698 5.3185C9.92698 5.5449 9.74269 5.72919 9.51629 5.72919C9.2899 5.72919 9.1056 5.5449 9.1056 5.3185C9.1056 5.09211 9.2899 4.90781 9.51629 4.90781Z" fill="#939CA3"/>
<path d="M12.5484 6.4265C13.1593 6.4265 13.6561 5.92938 13.6561 5.31878C13.6561 4.70818 13.1593 4.21106 12.5484 4.21106C11.9375 4.21106 11.4407 4.7079 11.4407 5.31878C11.4407 5.92966 11.9375 6.4265 12.5484 6.4265ZM12.5484 4.90781C12.7748 4.90781 12.9591 5.09211 12.9591 5.3185C12.9591 5.5449 12.7748 5.72919 12.5484 5.72919C12.322 5.72919 12.1377 5.5449 12.1377 5.3185C12.1377 5.09211 12.322 4.90781 12.5484 4.90781Z" fill="#939CA3"/>
<path d="M3.45159 9.10784C4.06247 9.10784 4.55931 8.61072 4.55931 8.00012C4.55931 7.38952 4.06247 6.8924 3.45159 6.8924C2.84072 6.8924 2.34387 7.38952 2.34387 8.00012C2.34387 8.61072 2.84072 9.10784 3.45159 9.10784ZM3.45159 7.58915C3.67799 7.58915 3.86228 7.77344 3.86228 7.99984C3.86228 8.22623 3.67799 8.41053 3.45159 8.41053C3.2252 8.41053 3.0409 8.22623 3.0409 7.99984C3.0409 7.77344 3.2252 7.58915 3.45159 7.58915Z" fill="#939CA3"/>
<path d="M6.48394 9.10784C7.09482 9.10784 7.59166 8.61072 7.59166 8.00012C7.59166 7.38952 7.09482 6.8924 6.48394 6.8924C5.87306 6.8924 5.37622 7.38952 5.37622 8.00012C5.37622 8.61072 5.87306 9.10784 6.48394 9.10784ZM6.48394 7.58915C6.71034 7.58915 6.89463 7.77344 6.89463 7.99984C6.89463 8.22623 6.71034 8.41053 6.48394 8.41053C6.25755 8.41053 6.07325 8.22623 6.07325 7.99984C6.07325 7.77344 6.25755 7.58915 6.48394 7.58915Z" fill="#939CA3"/>
<path d="M9.51629 9.10784C10.1272 9.10784 10.624 8.61072 10.624 8.00012C10.624 7.38952 10.1272 6.8924 9.51629 6.8924C8.90541 6.8924 8.40857 7.38952 8.40857 8.00012C8.40857 8.61072 8.90541 9.10784 9.51629 9.10784ZM9.51629 7.58915C9.74269 7.58915 9.92698 7.77344 9.92698 7.99984C9.92698 8.22623 9.74269 8.41053 9.51629 8.41053C9.2899 8.41053 9.1056 8.22623 9.1056 7.99984C9.1056 7.77344 9.2899 7.58915 9.51629 7.58915Z" fill="#939CA3"/>
<path d="M12.5484 9.10784C13.1593 9.10784 13.6561 8.61072 13.6561 8.00012C13.6561 7.38952 13.1593 6.8924 12.5484 6.8924C11.9375 6.8924 11.4407 7.38952 11.4407 8.00012C11.4407 8.61072 11.9375 9.10784 12.5484 9.10784ZM12.5484 7.58915C12.7748 7.58915 12.9591 7.77344 12.9591 7.99984C12.9591 8.22623 12.7748 8.41053 12.5484 8.41053C12.322 8.41053 12.1377 8.22623 12.1377 7.99984C12.1377 7.77344 12.322 7.58915 12.5484 7.58915Z" fill="#939CA3"/>
<path d="M3.45159 11.7892C4.06247 11.7892 4.55931 11.2921 4.55931 10.6815C4.55931 10.0709 4.06247 9.57373 3.45159 9.57373C2.84072 9.57373 2.34387 10.0709 2.34387 10.6815C2.34387 11.2921 2.84072 11.7892 3.45159 11.7892ZM3.45159 10.2705C3.67799 10.2705 3.86228 10.4548 3.86228 10.6812C3.86228 10.9076 3.67799 11.0919 3.45159 11.0919C3.2252 11.0919 3.0409 10.9076 3.0409 10.6812C3.0409 10.4548 3.2252 10.2705 3.45159 10.2705Z" fill="#939CA3"/>
<path d="M6.48394 11.7892C7.09482 11.7892 7.59166 11.2921 7.59166 10.6815C7.59166 10.0709 7.09482 9.57373 6.48394 9.57373C5.87306 9.57373 5.37622 10.0709 5.37622 10.6815C5.37622 11.2921 5.87306 11.7892 6.48394 11.7892ZM6.48394 10.2705C6.71034 10.2705 6.89463 10.4548 6.89463 10.6812C6.89463 10.9076 6.71034 11.0919 6.48394 11.0919C6.25755 11.0919 6.07325 10.9076 6.07325 10.6812C6.07325 10.4548 6.25755 10.2705 6.48394 10.2705Z" fill="#939CA3"/>
<path d="M9.51629 11.7892C10.1272 11.7892 10.624 11.2921 10.624 10.6815C10.624 10.0709 10.1272 9.57373 9.51629 9.57373C8.90541 9.57373 8.40857 10.0709 8.40857 10.6815C8.40857 11.2921 8.90541 11.7892 9.51629 11.7892ZM9.51629 10.2705C9.74269 10.2705 9.92698 10.4548 9.92698 10.6812C9.92698 10.9076 9.74269 11.0919 9.51629 11.0919C9.2899 11.0919 9.1056 10.9076 9.1056 10.6812C9.1056 10.4548 9.2899 10.2705 9.51629 10.2705Z" fill="#939CA3"/>
<path d="M12.5484 11.7892C13.1593 11.7892 13.6561 11.2921 13.6561 10.6815C13.6561 10.0709 13.1593 9.57373 12.5484 9.57373C11.9375 9.57373 11.4407 10.0709 11.4407 10.6815C11.4407 11.2921 11.9375 11.7892 12.5484 11.7892ZM12.5484 10.2705C12.7748 10.2705 12.9591 10.4548 12.9591 10.6812C12.9591 10.9076 12.7748 11.0919 12.5484 11.0919C12.322 11.0919 12.1377 10.9076 12.1377 10.6812C12.1377 10.4548 12.322 10.2705 12.5484 10.2705Z" fill="#939CA3"/>
</g>
<defs>
<clipPath id="clip0_3609_7031">
<rect width="14" height="10.4128" fill="white" transform="translate(1 2.79358)"/>
</clipPath>
</defs>
</svg>
