<svg width="16" height="16" viewBox="0 0 16 16" fill="none" xmlns="http://www.w3.org/2000/svg">
<path d="M7.54498 1.66112H6.19364V1.5758C6.19364 1.25584 5.93699 0.999878 5.62797 0.999878H5.16705C4.85279 0.999878 4.60138 1.26118 4.60138 1.5758V1.66112H3.25004C2.95673 1.66112 2.70008 1.8211 2.5639 2.07173C2.522 2.15172 2.57961 2.25304 2.66865 2.25304L8.14208 2.29037C8.23112 2.29037 8.28873 2.19438 8.25207 2.11439C8.12113 1.8371 7.84876 1.66112 7.54498 1.66112Z" fill="#939CA3"/>
<path d="M9.1899 3.17025C8.92277 2.89295 8.58232 2.70631 8.21044 2.62632C8.13711 2.61032 8.06902 2.66365 8.06902 2.73831L8.02712 3.67684C8.02712 3.72484 8.05331 3.77283 8.09521 3.79416C8.28377 3.87948 8.45661 4.00747 8.59803 4.16744C8.87039 4.46607 9.01181 4.86601 9.01181 5.27662V7.51098C9.01181 7.79894 9.22656 8.03891 9.50416 8.05491C9.51463 8.05491 9.52511 8.05491 9.53558 8.05491C9.66653 8.05491 9.79747 8.00158 9.89699 7.91093C10.0017 7.80961 10.0646 7.66563 10.0646 7.52165V5.34595C10.0646 4.53006 9.75557 3.75683 9.1899 3.17025Z" fill="#939CA3"/>
<path d="M2.53771 4.19411L2.59533 5.40461H4.3971C4.53852 5.40461 4.64852 5.48993 4.64852 5.59125C4.64852 5.69257 4.53328 5.77789 4.3971 5.77789H2.61628L2.65294 6.50312L2.6477 6.39647H3.4805C3.62192 6.39647 3.73191 6.48179 3.73191 6.58311C3.73191 6.68443 3.61668 6.76975 3.4805 6.76975H2.66342L2.69484 7.38833H4.3971C4.53852 7.38833 4.64852 7.47366 4.64852 7.57497C4.64852 7.67629 4.53328 7.76162 4.3971 7.76162H2.71056L2.74198 8.3802H3.4805C3.62192 8.3802 3.73191 8.46552 3.73191 8.56684C3.73191 8.66816 3.61668 8.75348 3.4805 8.75348H2.76293L2.75246 8.58817L2.89911 11.5851C2.90435 11.6864 2.98816 11.7664 3.08767 11.7664H7.70735C7.80686 11.7664 7.89067 11.6864 7.89591 11.5851L8.3254 2.7543C8.33064 2.68498 8.27302 2.62632 8.20493 2.62632H2.11869C2.03489 2.62632 1.97727 2.71164 2.0087 2.79163L2.53771 4.19411Z" fill="#939CA3"/>
<path d="M11.8855 13.9676H9.65238V15H11.8855V13.9676Z" fill="#939CA3"/>
<path d="M13.0758 9.68019H8.7059V12.132C8.7059 12.8156 9.04915 13.4462 9.62428 13.819L9.65416 13.8384H11.9078L11.9384 13.8174C12.4895 13.4407 12.8318 12.7949 12.8318 12.132V10.6839H13.0233C13.1418 10.6839 13.2311 10.7669 13.2311 10.8769V12.5377C13.2311 12.6317 13.2734 12.7196 13.3503 12.7855C13.4228 12.8468 13.5174 12.8805 13.6171 12.8805C13.7882 12.8805 13.9363 12.7824 13.9855 12.6363L13.9883 12.6279L13.9898 12.6191C13.9969 12.577 14 12.5322 14 12.4742V10.5854C14.0003 10.0863 13.5856 9.68019 13.0758 9.68019Z" fill="#939CA3"/>
<path d="M12.7734 9.37908C12.7734 9.10464 12.6894 8.89299 12.5236 8.75017C12.354 8.60406 12.1084 8.53308 11.7725 8.53308H9.69349C9.1815 8.53308 8.93542 8.76279 8.81903 8.95551C8.69406 9.16285 8.69258 9.37034 8.69258 9.37908V9.4938H12.7734V9.37908Z" fill="#939CA3"/>
</svg>
