<svg width="16" height="16" viewBox="0 0 16 16" fill="none" xmlns="http://www.w3.org/2000/svg">
<path d="M1.125 3.52902C1.74107 3.52902 2.2433 3.02679 2.2433 2.41071C2.2433 1.78795 1.74107 1.28571 1.125 1.28571C0.502232 1.28571 0 1.78795 0 2.41071C0 3.02679 0.502232 3.52902 1.125 3.52902Z" fill="#9CA3AF"/>
<path d="M1.125 7.01114C1.74107 7.01114 2.2433 6.50891 2.2433 5.89286C2.2433 5.27009 1.74107 4.76786 1.125 4.76786C0.502232 4.76786 0 5.27009 0 5.89286C0 6.50891 0.502232 7.01114 1.125 7.01114Z" fill="#9CA3AF"/>
<path d="M1.125 10.5067C1.74107 10.5067 2.2433 10.0045 2.2433 9.3884C2.2433 8.7656 1.74107 8.26337 1.125 8.26337C0.502232 8.26337 0 8.7656 0 9.3884C0 10.0045 0.502232 10.5067 1.125 10.5067Z" fill="#9CA3AF"/>
<path d="M1.125 13.9889C1.74107 13.9889 2.2433 13.4866 2.2433 12.8705C2.2433 12.2478 1.74107 11.7455 1.125 11.7455C0.502232 11.7455 0 12.2478 0 12.8705C0 13.4866 0.502232 13.9889 1.125 13.9889Z" fill="#9CA3AF"/>
<path d="M4.50659 7.07811C4.50659 9.70314 6.23429 11.5446 8.79229 11.7589V13.3192H6.30795C6.02669 13.3192 5.79898 13.5469 5.79898 13.8281C5.79898 14.1094 6.02669 14.3303 6.30795 14.3303H12.2878C12.5691 14.3303 12.7968 14.1094 12.7968 13.8281C12.7968 13.5469 12.5691 13.3192 12.2878 13.3192H9.80344V11.7589C12.3548 11.5446 14.0892 9.70314 14.0892 7.07811V5.71874C14.0892 5.4375 13.8682 5.21652 13.5802 5.21652C13.299 5.21652 13.078 5.4375 13.078 5.71874V7.03794C13.078 9.32143 11.5914 10.8348 9.29452 10.8348C7.00435 10.8348 5.51775 9.32143 5.51775 7.03794V5.71874C5.51775 5.4375 5.29007 5.21652 5.00882 5.21652C4.72757 5.21652 4.50659 5.4375 4.50659 5.71874V7.07811ZM6.86372 6.83703C6.86372 8.37726 7.85481 9.46206 9.29452 9.46206C10.741 9.46206 11.732 8.37726 11.732 6.83703V2.625C11.732 1.07813 10.741 0 9.29452 0C7.85481 0 6.86372 1.07813 6.86372 2.625V6.83703ZM7.87487 6.83703V2.625C7.87487 1.63393 8.43738 0.997766 9.29452 0.997766C10.1517 0.997766 10.7209 1.63393 10.7209 2.625V6.83703C10.7209 7.82811 10.1517 8.46428 9.29452 8.46428C8.43738 8.46428 7.87487 7.82811 7.87487 6.83703Z" fill="#9CA3AF"/>
</svg>
