<svg width="16" height="16" viewBox="0 0 16 16" fill="none" xmlns="http://www.w3.org/2000/svg">
<path d="M13.8538 5.30442V11.6956H13.2807L14.1404 13.5L15 11.6956H14.4269V5.30442H15L14.1404 3.5L13.2807 5.30442H13.8538Z" fill="#939CA3"/>
<path d="M11.7456 3.5H1.71637C1.32236 3.5 1 3.85525 1 4.28943C1 4.72626 1.32236 5.07887 1.71637 5.07887V12.1843C1.71637 12.9106 2.25365 13.5 2.91033 13.5H10.5517C11.2107 13.5 11.7456 12.9106 11.7456 12.1843V5.07887C12.142 5.07887 12.462 4.72626 12.462 4.28943C12.462 3.85525 12.142 3.5 11.7456 3.5Z" fill="#939CA3"/>
</svg>
