<svg width="16" height="16" viewBox="0 0 16 16" fill="none" xmlns="http://www.w3.org/2000/svg">
<g clip-path="url(#clip0_4301_555164)">
<path d="M12.1354 5.33483C12.1349 5.34261 12.134 5.35039 12.1332 5.35788C12.1324 5.36538 12.131 5.37316 12.1299 5.38066C12.1285 5.38899 12.1268 5.3976 12.1249 5.40565C12.1232 5.41232 12.1215 5.41926 12.1196 5.42592C12.1174 5.43453 12.1149 5.44286 12.1121 5.4512C12.1099 5.45786 12.1074 5.46453 12.1049 5.47091C12.1018 5.47869 12.0988 5.48674 12.0954 5.49424C12.0924 5.50118 12.0888 5.50813 12.0854 5.51507C12.0821 5.52201 12.0785 5.52868 12.0749 5.53534C12.0707 5.54284 12.0663 5.55006 12.0615 5.55728C12.0579 5.56311 12.054 5.56895 12.0502 5.5745C12.0452 5.58172 12.0396 5.58894 12.034 5.59588C12.0299 5.60116 12.0257 5.60671 12.0213 5.61171C12.0157 5.61838 12.0099 5.62477 12.0038 5.63088C11.9985 5.63643 11.9932 5.64171 11.9879 5.64698C11.9824 5.65254 11.9766 5.65781 11.9705 5.66281C11.9638 5.66864 11.9571 5.67392 11.9505 5.67948C11.9474 5.68197 11.9446 5.68447 11.9416 5.6867C11.9388 5.68864 11.936 5.69031 11.9335 5.69225C11.926 5.69753 11.9182 5.70253 11.9105 5.70752C11.9046 5.71113 11.8985 5.71502 11.8927 5.71835C11.8849 5.7228 11.8771 5.72669 11.8694 5.73085C11.8627 5.73418 11.8563 5.73752 11.8496 5.74029C11.8421 5.74363 11.8344 5.74668 11.8266 5.74974C11.8194 5.75251 11.8122 5.75529 11.8047 5.75779C11.7972 5.76029 11.7897 5.76223 11.7822 5.76445C11.7741 5.76668 11.7663 5.7689 11.7583 5.77056C11.7511 5.77223 11.7438 5.77334 11.7366 5.77473C11.728 5.77612 11.7194 5.77779 11.7105 5.77862C11.7036 5.77945 11.6966 5.78001 11.6897 5.78056C11.6805 5.78112 11.6714 5.78167 11.6622 5.78195C11.6589 5.78195 11.6558 5.78251 11.6525 5.78251H9.80319C9.53464 5.78251 9.3172 5.56506 9.3172 5.29651C9.3172 5.02796 9.53464 4.81051 9.80319 4.81051H10.5075C10.3036 4.65 10.0851 4.50864 9.85512 4.39034C9.27859 4.09346 8.65485 3.94294 8.00112 3.94294C5.76443 3.94294 3.94459 5.76279 3.94459 7.99948C3.94459 8.26803 3.72714 8.48547 3.45859 8.48547C3.19004 8.48547 2.9726 8.26803 2.9726 7.99948C2.9726 5.2268 5.22845 2.97095 8.00112 2.97095C8.79954 2.97095 9.59463 3.16285 10.3 3.5261C10.6069 3.68412 10.8977 3.8749 11.1665 4.09319V3.44751C11.1665 3.17896 11.3839 2.96151 11.6525 2.96151C11.921 2.96151 12.1385 3.17896 12.1385 3.44751V5.29679C12.1385 5.30068 12.1379 5.30429 12.1379 5.30817C12.1379 5.31706 12.1374 5.32595 12.1365 5.33456L12.1354 5.33483Z" fill="#939CA3"/>
<path d="M8.00002 13.0285C7.2016 13.0285 6.40651 12.8366 5.70112 12.4734C5.39425 12.3153 5.10349 12.1245 4.83466 11.9063V12.5425C4.83466 12.811 4.61721 13.0285 4.34867 13.0285C4.08012 13.0285 3.86267 12.811 3.86267 12.5425V10.701C3.86267 10.6971 3.86323 10.6935 3.86323 10.6896C3.86323 10.6821 3.86378 10.6746 3.86434 10.6674C3.86517 10.6571 3.866 10.6466 3.86739 10.6366C3.86795 10.6332 3.8685 10.6296 3.86906 10.6263C3.90516 10.3936 4.10595 10.2153 4.34867 10.2153H6.19017C6.45872 10.2153 6.67617 10.4327 6.67617 10.7013C6.67617 10.9698 6.45872 11.1873 6.19017 11.1873H5.49089C5.69529 11.3486 5.91496 11.4908 6.14574 11.6097C6.72227 11.9065 7.34601 12.0571 7.99974 12.0571C10.2364 12.0571 12.0563 10.2372 12.0563 8.00053C12.0563 7.73198 12.2737 7.51453 12.5423 7.51453C12.8108 7.51453 13.0283 7.73198 13.0283 8.00053C13.0283 10.7732 10.7724 13.0291 7.99974 13.0291L8.00002 13.0285Z" fill="#939CA3"/>
<path d="M3.5966 4.28389L3.05034 3.73763C2.86066 3.54795 2.86066 3.24025 3.05034 3.05029C3.14532 2.95532 3.26973 2.90783 3.39387 2.90783C3.51801 2.90783 3.6427 2.95532 3.7374 3.05029L4.28366 3.59655C4.47333 3.78623 4.47333 4.09393 4.28366 4.28389C4.09398 4.47357 3.786 4.47357 3.59632 4.28389H3.5966Z" fill="#939CA3"/>
<path d="M12.2626 12.9496L11.7336 12.4206C11.5439 12.2309 11.5439 11.9229 11.7336 11.7333C11.8285 11.6383 11.953 11.5911 12.0771 11.5911C12.2012 11.5911 12.3259 11.6386 12.4206 11.7335L12.9497 12.2626C13.1393 12.4522 13.1393 12.7602 12.9497 12.9499C12.76 13.1396 12.4523 13.1396 12.2623 12.9499L12.2626 12.9496Z" fill="#939CA3"/>
<path d="M7.99997 2.74878C7.73143 2.74878 7.51398 2.53133 7.51398 2.26278V1.48575C7.51398 1.2172 7.73143 0.999751 7.99997 0.999751C8.26852 0.999751 8.48597 1.2172 8.48597 1.48575V2.26278C8.48597 2.53133 8.26852 2.74878 7.99997 2.74878Z" fill="#939CA3"/>
<path d="M7.99997 13.2488C8.26852 13.2488 8.48597 13.4662 8.48597 13.7347V14.514C8.48597 14.7826 8.26852 15 7.99997 15C7.73143 15 7.51398 14.7826 7.51398 14.514V13.7347C7.51398 13.4662 7.73143 13.2488 7.99997 13.2488Z" fill="#939CA3"/>
<path d="M2.26414 8.48596H1.486C1.21745 8.48596 1 8.26851 1 7.99997C1 7.73142 1.21745 7.51397 1.486 7.51397H2.26414C2.53269 7.51397 2.75014 7.73142 2.75014 7.99997C2.75014 8.26851 2.53269 8.48596 2.26414 8.48596Z" fill="#939CA3"/>
<path d="M14.514 8.48596H13.7359C13.4673 8.48596 13.2499 8.26851 13.2499 7.99997C13.2499 7.73142 13.4673 7.51397 13.7359 7.51397H14.514C14.7826 7.51397 15 7.73142 15 7.99997C15 8.26851 14.7826 8.48596 14.514 8.48596Z" fill="#939CA3"/>
</g>
<defs>
<clipPath id="clip0_4301_555164">
<rect width="14" height="14" fill="white" transform="matrix(1 0 0 -1 1 15)"/>
</clipPath>
</defs>
</svg>
