<svg width="16" height="16" viewBox="0 0 16 16" fill="none" xmlns="http://www.w3.org/2000/svg">
<path fill-rule="evenodd" clip-rule="evenodd" d="M2.36238 8.37712C2.48627 8.27437 2.61298 8.16928 2.74351 8.06098C2.74351 8.1523 2.74351 8.20432 2.74322 8.25653C2.74322 9.92868 2.74322 11.6008 2.74408 13.273C2.74408 13.3516 2.74408 13.4326 2.76187 13.5083C2.83592 13.8219 3.07987 13.9955 3.44349 13.9955C4.29344 13.9957 5.1434 13.9955 5.99335 13.9953C8.1715 13.9948 10.3497 13.9942 12.5278 14C12.9615 14.0012 13.2617 13.7038 13.2576 13.2489C13.2466 12.0451 13.2484 10.8411 13.2502 9.63712C13.2509 9.18385 13.2516 8.73058 13.2516 8.2773V8.05831L14.2739 8.90877L15 8.16543C13.4599 6.80998 11.9194 5.45428 10.3766 4.09661C9.5831 3.39834 8.78902 2.69955 7.99412 2C5.65251 4.06118 3.32008 6.11464 1 8.15742L1.72065 8.90966C1.92937 8.73625 2.1414 8.5604 2.36238 8.37712ZM10.5444 9.62543H5.55446C5.54428 9.61193 5.53425 9.59843 5.52406 9.58472C5.51932 9.57833 5.51455 9.5719 5.50971 9.56541C5.55756 9.52117 5.60647 9.47787 5.6554 9.43455C5.76633 9.33637 5.87736 9.23808 5.97637 9.1285C6.13203 8.95648 6.11258 8.69427 5.95724 8.53801C5.8006 8.38042 5.55316 8.3717 5.38485 8.53231C5.25798 8.65325 5.13667 8.78044 5.01535 8.90765C4.9658 8.95961 4.91624 9.01157 4.8663 9.06311L3.91221 10.0476C4.03724 10.1771 4.16136 10.3064 4.28507 10.4353C4.65741 10.8232 5.02594 11.2072 5.40398 11.581C5.48344 11.6594 5.64526 11.6997 5.75779 11.6816C6.07917 11.6299 6.19884 11.2396 5.98221 10.9811C5.88886 10.8694 5.78771 10.7645 5.68107 10.6539C5.63248 10.6034 5.58274 10.5519 5.53208 10.4979H10.5701C10.5209 10.5469 10.4746 10.5929 10.4304 10.6368C10.321 10.7456 10.2243 10.8416 10.1287 10.9388C10.023 11.0465 9.9659 11.1752 9.99184 11.3318C10.0197 11.4995 10.1112 11.6162 10.2681 11.6728C10.4481 11.7379 10.5963 11.6752 10.7241 11.5434C11.1833 11.0696 11.6419 10.5951 12.1001 10.1203C12.1122 10.1078 12.1217 10.0924 12.1306 10.078C12.1347 10.0712 12.1388 10.0646 12.1429 10.0586C12.0231 9.93396 11.9038 9.80955 11.7848 9.68544C11.4131 9.29789 11.0443 8.91328 10.6719 8.53231C10.6184 8.47766 10.5341 8.44077 10.4585 8.42602C10.2737 8.3898 10.1076 8.48134 10.0249 8.64531C9.94092 8.8123 9.96071 8.99336 10.0917 9.14157C10.1878 9.24991 10.2876 9.35476 10.3943 9.46691C10.4428 9.5179 10.4927 9.5704 10.5444 9.62543Z" fill="#939CA3"/>
</svg>
