<svg width="16" height="16" viewBox="0 0 16 16" fill="none" xmlns="http://www.w3.org/2000/svg">
<path fill-rule="evenodd" clip-rule="evenodd" d="M8.00096 7.76905C7.72935 7.76805 7.47902 7.94625 7.40045 8.22024L5.68419 14.2056C5.5894 14.5361 5.78053 14.8809 6.1111 14.9757C6.44166 15.0705 6.78647 14.8794 6.88125 14.5488L8.00085 10.6443L9.12044 14.5488C9.21523 14.8794 9.56004 15.0705 9.8906 14.9757C10.2212 14.8809 10.4123 14.5361 10.3175 14.2056L8.60124 8.22024C8.5227 7.94633 8.27249 7.76815 8.00096 7.76905Z" fill="#939CA3"/>
<path fill-rule="evenodd" clip-rule="evenodd" d="M10.1824 13.0535C10.1696 13.1392 10.2287 13.219 10.3144 13.2318L11.8658 13.4635C11.9515 13.4762 12.0314 13.4172 12.0441 13.3315C12.0569 13.2458 11.9979 13.166 11.9122 13.1532L10.5452 12.949L10.9842 11.6365C11.0117 11.5543 10.9674 11.4654 10.8852 11.4379C10.8031 11.4105 10.7142 11.4548 10.6867 11.5369L10.1892 13.0246C10.186 13.034 10.1837 13.044 10.1824 13.0535V13.0535Z" fill="#939CA3"/>
<path fill-rule="evenodd" clip-rule="evenodd" d="M2.35111 10.3322C2.99983 11.5718 4.03717 12.5617 5.30089 13.1522C5.41482 13.2054 5.54872 13.151 5.59786 13.0353C5.647 12.9195 5.59276 12.7862 5.47897 12.7327C4.31218 12.1836 3.35448 11.2673 2.75462 10.1211C2.1195 8.90749 1.92482 7.51124 2.20375 6.17021C2.48269 4.82919 3.21797 3.62637 4.28433 2.7667C5.35068 1.90702 6.68213 1.44369 8.0518 1.45564C9.42148 1.4676 10.7446 1.9541 11.7958 2.83225C12.847 3.7104 13.5612 4.92587 13.8167 6.27156C14.0721 7.61725 13.8531 9.00989 13.1969 10.2122C12.5772 11.3478 11.6036 12.2472 10.4274 12.7759C10.3127 12.8274 10.2561 12.9597 10.3033 13.0763C10.3504 13.1929 10.4833 13.2496 10.5982 13.1984C11.872 12.63 12.9264 11.6584 13.5967 10.4304C14.3034 9.13558 14.5392 7.63581 14.2641 6.18661C13.9889 4.73741 13.2198 3.42844 12.0878 2.48274C10.9557 1.53704 9.53081 1.01312 8.05578 1.00024C6.58074 0.987373 5.14688 1.48634 3.9985 2.41215C2.85011 3.33795 2.05827 4.63329 1.75788 6.07747C1.45749 7.52165 1.66714 9.02531 2.35111 10.3322Z" fill="#939CA3"/>
</svg>
