<svg width="16" height="16" viewBox="0 0 16 16" fill="none" xmlns="http://www.w3.org/2000/svg">
<path d="M8.1078 7.58825C7.97054 7.7255 7.90192 7.86276 7.90192 8.00001C7.90192 8.13727 7.97054 8.27452 8.03917 8.41178C8.17643 8.54903 8.31368 8.54903 8.45094 8.54903C8.58819 8.54903 8.72545 8.48041 8.8627 8.41178C8.99996 8.27452 8.99996 8.13727 8.99996 8.00001C8.99996 7.86276 8.93133 7.7255 8.8627 7.58825C8.72545 7.38237 8.38231 7.38237 8.1078 7.58825Z" fill="#939CA3"/>
<path d="M7.97059 6.90196C8.03922 6.90196 8.10784 6.83333 8.17647 6.83333H8.72549C8.86275 6.83333 8.93137 6.90196 9 6.90196C9 6.90196 9.06863 6.90196 9.06863 6.97059C9.20588 7.03922 9.27451 7.10784 9.34314 7.17647C9.54902 7.38235 9.68628 7.72549 9.68628 8.06863C9.68628 8.13726 9.68627 8.27451 9.61765 8.34314V8.41177C9.61765 8.48039 9.54902 8.54902 9.54902 8.61765V8.68628L10.098 9.23529C10.9902 8.13725 10.9216 6.4902 9.89216 5.46078C8.79412 4.29412 3.9902 1 2.06863 1H2L7.97059 6.90196ZM9.06863 9.09804C8.86275 9.16667 8.72549 9.23529 8.51961 9.23529C8.31373 9.23529 8.17647 9.16667 7.97059 9.09804C7.83333 9.02941 7.76471 8.96078 7.62745 8.89216C7.42157 8.68628 7.28431 8.34314 7.28431 8C7.28431 7.93137 7.28431 7.79412 7.35294 7.72549V7.65686C7.35294 7.58824 7.42157 7.51961 7.42157 7.45098V7.38235L6.87255 6.83333C6.46078 7.31373 6.2549 7.93137 6.2549 8.61765C6.2549 9.37255 6.52941 10.0588 7.07843 10.6078C8.17647 11.7059 13.049 15 14.902 15H14.9706L9.06863 9.09804C9.13726 9.09804 9.13726 9.09804 9.06863 9.09804Z" fill="#939CA3"/>
<path d="M8.51962 12.804C5.91177 12.804 3.71569 10.6765 3.71569 8.00006C3.71569 7.79418 3.57844 7.65692 3.37256 7.65692C3.16667 7.65692 3.02942 7.79418 3.02942 8.00006C3.02942 11.0197 5.50001 13.4216 8.45099 13.4216C8.65687 13.4216 8.79412 13.2844 8.79412 13.0785C8.86275 12.9412 8.7255 12.804 8.51962 12.804ZM13.3235 8.00006C13.3235 8.20594 13.4608 8.3432 13.6667 8.3432C13.8726 8.3432 14.0098 8.20594 14.0098 8.00006C14.0098 4.98045 11.5392 2.57849 8.58824 2.57849C8.38236 2.57849 8.24511 2.71575 8.24511 2.92163C8.17648 3.05888 8.31373 3.19614 8.51962 3.19614C11.1275 3.19614 13.3235 5.39222 13.3235 8.00006Z" fill="#939CA3"/>
</svg>
