<svg width="16" height="16" viewBox="0 0 16 16" fill="none" xmlns="http://www.w3.org/2000/svg">
<path d="M8.00155 14.9931C8.30604 14.9931 8.48598 14.7785 8.48598 14.481V12.9793L9.67627 13.6575C9.93233 13.7959 10.1953 13.7751 10.3406 13.519C10.4652 13.3045 10.3891 13.0346 10.1261 12.8893L8.48598 11.955V11.0761L8.34755 8.60554L10.4306 9.95505L11.1988 10.391L11.1849 12.2803C11.1849 12.5779 11.3718 12.7924 11.614 12.7924C11.9116 12.7924 12.0638 12.571 12.0638 12.2803L12.0707 10.8962L13.3787 11.6575C13.6486 11.8166 13.9047 11.7474 14.05 11.4983C14.1953 11.2353 14.1192 10.9654 13.8632 10.8201L12.5552 10.0658L13.7455 9.36681C13.9946 9.21457 14.1053 8.97924 13.96 8.73009C13.8216 8.50863 13.5586 8.44639 13.3026 8.59863L11.6763 9.55366L10.9081 9.11766L8.67282 7.99657L10.9151 6.87544L11.6694 6.43253L13.2957 7.38755C13.5517 7.53979 13.8355 7.47755 13.967 7.263C14.1053 7.01385 13.9946 6.77164 13.7455 6.61938L12.5552 5.92734L13.8632 5.17302C14.1261 5.02076 14.2023 4.75779 14.0569 4.49481C13.9116 4.24568 13.6486 4.18339 13.3857 4.33565L12.0707 5.08305L12.0569 3.70588C12.0569 3.4083 11.9116 3.20069 11.6209 3.20069C11.3649 3.20069 11.1849 3.4083 11.1849 3.70588L11.1918 5.58824L10.4306 6.03115L8.34755 7.38755L8.48598 4.91004V4.03114L10.1261 3.10381C10.3891 2.95156 10.4652 2.68859 10.3406 2.46713C10.1953 2.21799 9.93233 2.19031 9.67627 2.33564L8.48598 3.01385V1.50519C8.48598 1.20761 8.30604 1 8.00155 1C7.71089 1 7.52404 1.20761 7.52404 1.50519V3.01385L6.31297 2.33564C6.05691 2.19031 5.80777 2.21799 5.65553 2.46713C5.53096 2.68859 5.614 2.95156 5.87698 3.09689L7.52404 4.03114V4.91004L7.65552 7.38755L5.57248 6.03115L4.80431 5.58824L4.81815 3.70588C4.81815 3.4083 4.63822 3.20069 4.38908 3.20069C4.09151 3.20069 3.93926 3.41523 3.93926 3.70588L3.93234 5.08305L2.61746 4.33565C2.3614 4.19031 2.08459 4.24568 1.94618 4.49481C1.79393 4.75779 1.87697 5.02769 2.13995 5.17302L3.44099 5.92734L2.2576 6.61938C2.00846 6.77164 1.89773 6.99307 2.03614 7.263C2.16071 7.48446 2.44445 7.53979 2.70742 7.38755L4.32681 6.43945L5.08805 6.87544L7.32334 7.99657L5.08805 9.11766L4.32681 9.56057L2.7005 8.59863C2.44445 8.44639 2.16763 8.50863 2.04998 8.72318C1.90465 8.99312 2.00846 9.21457 2.2576 9.36681L3.44791 10.0658L2.13995 10.8201C1.88389 10.9654 1.80085 11.2423 1.94618 11.4913C2.09843 11.7543 2.3614 11.8028 2.61746 11.6575L3.93234 10.91L3.93926 12.2803C3.93926 12.571 4.09151 12.7924 4.38217 12.7924C4.6313 12.7924 4.81815 12.5779 4.81815 12.2803L4.81123 10.391L5.57248 9.96196L7.65552 8.60554L7.52404 11.0761V11.955L5.87698 12.8893C5.614 13.0346 5.53096 13.3045 5.65553 13.519C5.80777 13.7751 6.05691 13.7959 6.31297 13.6575L7.52404 12.9723V14.481C7.52404 14.7785 7.71089 14.9931 8.00155 14.9931Z" fill="#939CA3"/>
</svg>
