<svg width="16" height="16" viewBox="0 0 16 16" fill="none" xmlns="http://www.w3.org/2000/svg">
<path d="M14.9995 6.41994C14.9995 6.54623 14.9242 6.68847 14.7737 6.84665L11.7298 9.95941L12.4534 14.3681C12.4534 14.4102 12.4534 14.4733 12.4534 14.5575C12.4534 14.6733 12.4233 14.7734 12.363 14.8579C12.3028 14.9424 12.2173 14.9898 12.1066 15C12.0063 15 11.8957 14.9632 11.775 14.8895L7.99244 12.8038L4.22498 14.8895C4.10455 14.9632 3.98897 15 3.87825 15C3.76754 15 3.68207 14.9526 3.62185 14.8579C3.56163 14.7632 3.53152 14.6631 3.53152 14.5575C3.53152 14.5154 3.53654 14.4523 3.54658 14.3681L4.26968 9.95941L1.21074 6.84665C1.07023 6.6888 0.999969 6.54656 0.999969 6.41994C0.999969 6.19861 1.15569 6.06164 1.46714 6.00902L5.68671 5.3771L7.58549 1.36357C7.69589 1.12119 7.83154 1 7.99244 1C8.15334 1 8.29401 1.12119 8.41445 1.36357L10.2982 5.3771L14.5177 6.00902C14.8392 6.06164 14.9995 6.19861 14.9995 6.41994Z" fill="#939CA3"/>
</svg>
