<svg width="16" height="16" viewBox="0 0 16 16" fill="none" xmlns="http://www.w3.org/2000/svg">
<path d="M12.527 5.21188C12.4191 5.21185 12.3157 5.16855 12.2394 5.09163C11.1069 3.94972 9.60158 3.32072 8.00006 3.32072C6.39842 3.32072 4.893 3.94952 3.76044 5.09163C3.60158 5.25183 3.34399 5.25183 3.18515 5.09162C3.02629 4.93139 3.02628 4.67138 3.18515 4.51116C4.47074 3.21462 6.18195 2.5 8.00006 2.5C9.81802 2.5 11.5304 3.21365 12.8151 4.51128C12.9737 4.67146 12.9737 4.93183 12.8148 5.09179C12.7383 5.16877 12.6351 5.21191 12.527 5.21188ZM5.10663 6.85955C4.99848 6.85954 4.89494 6.81621 4.81862 6.73891C4.66029 6.57853 4.66022 6.31885 4.81918 6.15891C5.66932 5.30356 6.79886 4.8303 8.00008 4.83029C9.20106 4.83029 10.3306 5.30381 11.1807 6.15889C11.3398 6.31894 11.3397 6.57905 11.1809 6.73927C11.022 6.89949 10.7644 6.89949 10.6056 6.73927C9.90948 6.03727 8.98448 5.65104 8.00008 5.65103C7.01556 5.65102 6.09067 6.03701 5.3946 6.73925C5.31808 6.81644 5.21488 6.85956 5.10663 6.85955ZM9.25935 8.50718C9.15118 8.50715 9.04768 8.46385 8.97136 8.38653C8.71218 8.12395 8.3672 7.98104 8.00007 7.98103C7.63247 7.98102 7.28832 8.12516 7.02826 8.38705C6.86926 8.54716 6.61161 8.54717 6.45274 8.38687C6.29396 8.22668 6.29395 7.96664 6.45295 7.80659C6.86613 7.39067 7.41613 7.1603 8.00007 7.16029C8.58401 7.16028 9.13371 7.39068 9.54689 7.80659C9.7058 7.96655 9.70574 8.22618 9.54742 8.38655C9.47107 8.46389 9.36756 8.50721 9.25935 8.50718Z" fill="#939CA3"/>
<path d="M2.97875 11.0734C2.75013 11.0734 2.56401 11.2611 2.56401 11.4914C2.56403 11.7219 2.75009 11.9096 2.97873 11.9096C3.20712 11.9096 3.39318 11.722 3.39318 11.4914C3.39322 11.2611 3.2071 11.0734 2.97875 11.0734Z" fill="#939CA3"/>
<path d="M5.16901 11.0734C4.94039 11.0734 4.75426 11.2611 4.75426 11.4914C4.75428 11.7219 4.94033 11.9096 5.16899 11.9096C5.39737 11.9096 5.58342 11.722 5.58342 11.4914C5.58348 11.2611 5.39735 11.0734 5.16901 11.0734Z" fill="#939CA3"/>
<path d="M8.0003 10.4275C7.41817 10.4275 6.94481 10.9048 6.94481 11.4916C6.94485 12.0786 7.41816 12.556 8.00029 12.556C8.58216 12.556 9.05548 12.0786 9.05548 11.4916C9.05549 10.9048 8.58213 10.4275 8.0003 10.4275Z" fill="#939CA3"/>
<path d="M10.8312 11.0734C10.6025 11.0734 10.4164 11.2611 10.4164 11.4914C10.4164 11.7219 10.6025 11.9096 10.8312 11.9096C11.0598 11.9096 11.2456 11.722 11.2456 11.4914C11.2456 11.2611 11.0598 11.0734 10.8312 11.0734Z" fill="#939CA3"/>
<path d="M13.0214 11.0734C12.7928 11.0734 12.6067 11.2611 12.6067 11.4914C12.6067 11.7219 12.7928 11.9096 13.0214 11.9096C13.2498 11.9096 13.4359 11.722 13.4359 11.4914C13.4359 11.2611 13.2498 11.0734 13.0214 11.0734Z" fill="#939CA3"/>
<path d="M13.0083 9.48322H2.9917C1.89361 9.48322 1 10.3841 1 11.4915C1.00005 12.5991 1.89361 13.5 2.99167 13.5L13.0083 13.5C14.1067 13.5 15 12.5991 15 11.4915C15 10.3841 14.1067 9.48322 13.0083 9.48322ZM8.00014 10.0885C8.76719 10.0885 9.3913 10.7179 9.3913 11.4915C9.39131 12.2652 8.76717 12.8947 8.00015 12.8947C7.23284 12.8947 6.60868 12.2653 6.60868 11.4915C6.60872 10.7179 7.23281 10.0885 8.00014 10.0885ZM5.16911 10.7347C5.58301 10.7347 5.91952 11.0741 5.91952 11.4915C5.91957 11.9088 5.58295 12.2485 5.16913 12.2485C4.75526 12.2485 4.4184 11.9088 4.4184 11.4915C4.41843 11.0741 4.75526 10.7347 5.16911 10.7347ZM2.97882 10.7347C3.39271 10.7347 3.72924 11.0741 3.72924 11.4915C3.72928 11.9088 3.39268 12.2485 2.97884 12.2485C2.56503 12.2485 2.22812 11.9088 2.22812 11.4915C2.22814 11.0741 2.56498 10.7347 2.97882 10.7347ZM12.2707 11.4915C12.2708 11.0741 12.6076 10.7347 13.0214 10.7347C13.4353 10.7347 13.7719 11.0741 13.7719 11.4915C13.7719 11.9088 13.4353 12.2485 13.0215 12.2485C12.6077 12.2485 12.2707 11.9088 12.2707 11.4915ZM10.0805 11.4915C10.0805 11.0741 10.4173 10.7347 10.8312 10.7347C11.245 10.7347 11.5816 11.0741 11.5816 11.4915C11.5816 11.9088 11.245 12.2485 10.8312 12.2485C10.4174 12.2485 10.0805 11.9088 10.0805 11.4915Z" fill="#939CA3"/>
</svg>
