<svg width="16" height="16" viewBox="0 0 16 16" fill="none" xmlns="http://www.w3.org/2000/svg">
<path d="M15.6637 7.1053H14.4192V6.14335C14.4192 6.05415 14.3837 5.9686 14.3207 5.90552C14.2576 5.84244 14.172 5.80701 14.0828 5.80701H1.93399C1.84479 5.80701 1.75924 5.84244 1.69616 5.90552C1.63308 5.9686 1.59765 6.05415 1.59765 6.14335V7.1053H0.336346C0.247142 7.1053 0.161591 7.14074 0.0985136 7.20382C0.0354364 7.26689 0 7.35245 0 7.44165C0 7.53086 0.0354364 7.61641 0.0985136 7.67948C0.161591 7.74256 0.247142 7.778 0.336346 7.778H1.60101V12.7425C1.60101 14.2325 2.66723 14.7605 3.66954 14.7605H12.3809C13.8709 14.7605 14.399 13.7179 14.399 12.7425V7.778H15.6637C15.7529 7.778 15.8384 7.74256 15.9015 7.67948C15.9646 7.61641 16 7.53086 16 7.44165C16 7.35245 15.9646 7.26689 15.9015 7.20382C15.8384 7.14074 15.7529 7.1053 15.6637 7.1053ZM13.7465 12.7425C13.7465 13.358 13.511 14.0879 12.4011 14.0879H3.65609C3.13475 14.0879 2.26025 13.913 2.26025 12.7425V6.4797H13.7465V12.7425Z" fill="#939CA3"/>
<path d="M8.97645 2.6382C9.05539 2.48219 9.09736 2.30911 9.0989 2.13314C9.0989 1.50732 8.60691 1 8 1C7.39309 1 6.9011 1.50732 6.9011 2.13314C6.90265 2.30911 6.94461 2.48219 7.02355 2.6382C4.39875 2.77418 2 3.46701 2 4.67462C1.99978 4.72 2.00882 4.76493 2.02652 4.80648C2.04423 4.84803 2.0702 4.88528 2.10277 4.9158C2.13534 4.94633 2.17376 4.96946 2.21556 4.98368C2.25735 4.99791 2.30158 5.00292 2.34537 4.99838H13.686C13.7693 4.99838 13.8492 4.96427 13.908 4.90355C13.9669 4.84283 14 4.76049 14 4.67462C14 3.46701 11.6107 2.77418 8.97645 2.6382ZM8.0157 1.65075C8.27233 1.65075 8.48038 1.86528 8.48038 2.12991C8.48038 2.39454 8.27233 2.60906 8.0157 2.60906C7.75907 2.60906 7.55102 2.39454 7.55102 2.12991C7.55102 1.86528 7.75907 1.65075 8.0157 1.65075ZM2.85087 4.36382C3.43171 3.82638 5.32182 3.25657 8.0157 3.25657V3.26952C10.7096 3.26952 12.5997 3.83933 13.1805 4.36382H2.85087Z" fill="#939CA3"/>
</svg>
