<svg width="16" height="16" viewBox="0 0 16 16" fill="none" xmlns="http://www.w3.org/2000/svg">
<path d="M10.5805 10.5917V2.58933C10.5805 1.71299 9.86748 1 8.99086 1C8.11425 1 7.40154 1.71299 7.40154 2.58933V3.73522H6.8469C6.65554 3.73522 6.50024 3.89052 6.50024 4.08187C6.50024 4.27322 6.65554 4.42852 6.8469 4.42852H7.40154V5.07329H6.8469C6.65554 5.07329 6.50024 5.22859 6.50024 5.41994C6.50024 5.6113 6.65554 5.76659 6.8469 5.76659H7.40154V6.41137H6.8469C6.65554 6.41137 6.50024 6.56667 6.50024 6.75802C6.50024 6.94937 6.65554 7.10467 6.8469 7.10467H7.40154V7.74944H6.8469C6.65554 7.74944 6.50024 7.90474 6.50024 8.09609C6.50024 8.28744 6.65554 8.44274 6.8469 8.44274H7.40154V10.592C6.83414 11.0634 6.50024 11.767 6.50024 12.5094C6.50024 13.8827 7.61757 15.0003 8.99059 15.0003C10.3636 15.0003 11.4815 13.883 11.4815 12.5094C11.4815 11.7667 11.1476 11.0632 10.5802 10.592L10.5805 10.5917ZM8.99086 14.3067C8 14.3067 7.19382 13.5002 7.19382 12.5091C7.19382 11.9289 7.47641 11.3812 7.94952 11.044C7.9523 11.0421 7.95479 11.0396 7.95784 11.0376C7.96311 11.0338 7.9681 11.0299 7.9731 11.0254C7.97753 11.0218 7.98142 11.0179 7.98558 11.0141C7.98946 11.0105 7.99334 11.0066 7.99722 11.0027C8.00166 10.9983 8.00582 10.9935 8.00998 10.9888C8.01303 10.9852 8.01636 10.9816 8.01941 10.9777C8.02329 10.9727 8.02717 10.9675 8.03078 10.9625C8.03355 10.9586 8.03633 10.9544 8.0391 10.9503C8.04243 10.9453 8.04548 10.94 8.04853 10.9347C8.0513 10.93 8.0538 10.9253 8.05629 10.9206C8.05879 10.9156 8.06101 10.9109 8.0635 10.9059C8.066 10.9004 8.06849 10.8951 8.07071 10.8895C8.07265 10.8848 8.07432 10.8804 8.07571 10.8757C8.07765 10.8696 8.07987 10.8638 8.08153 10.8577C8.08292 10.8529 8.08402 10.8482 8.08513 10.8435C8.08652 10.8374 8.08791 10.8313 8.08902 10.8252C8.09013 10.8199 8.09068 10.8144 8.09151 10.8091C8.09234 10.8036 8.0929 10.798 8.09345 10.7922C8.09401 10.7858 8.09429 10.7792 8.09456 10.7728C8.09456 10.7692 8.09512 10.7659 8.09512 10.7623V8.0972C8.09512 8.0972 8.09512 8.09665 8.09512 8.09637C8.09512 8.09609 8.09512 8.09581 8.09512 8.09554V6.75913C8.09512 6.75913 8.09512 6.75857 8.09512 6.7583C8.09512 6.75802 8.09512 6.75774 8.09512 6.75746V5.42105C8.09512 5.42105 8.09512 5.4205 8.09512 5.42022C8.09512 5.41994 8.09512 5.41967 8.09512 5.41939V4.08298C8.09512 4.08298 8.09512 4.08242 8.09512 4.08215C8.09512 4.08187 8.09512 4.08159 8.09512 4.08131V2.5896C8.09512 2.0957 8.49696 1.69358 8.99114 1.69358C9.48533 1.69358 9.88744 2.09542 9.88744 2.5896V10.7623C9.88744 10.7659 9.888 10.7692 9.888 10.7725C9.888 10.7792 9.88855 10.7856 9.88911 10.7922C9.88966 10.7978 9.89022 10.8033 9.89105 10.8088C9.89188 10.8144 9.89244 10.8197 9.89354 10.8249C9.89465 10.831 9.89604 10.8371 9.89743 10.8432C9.89854 10.8479 9.89965 10.8527 9.90103 10.8574C9.9027 10.8635 9.90464 10.8696 9.90686 10.8757C9.90852 10.8804 9.91018 10.8848 9.91185 10.8895C9.91407 10.8951 9.91656 10.9006 9.91906 10.9062C9.92128 10.9112 9.9235 10.9159 9.92599 10.9209C9.92849 10.9256 9.93126 10.9306 9.93376 10.935C9.93681 10.9403 9.93986 10.9453 9.94319 10.9506C9.94596 10.9547 9.94873 10.9589 9.95151 10.9628C9.95511 10.968 9.95899 10.973 9.96287 10.978C9.96593 10.9819 9.96898 10.9855 9.9723 10.9891C9.97646 10.9938 9.98062 10.9985 9.98478 11.003C9.98867 11.0069 9.99255 11.0107 9.99643 11.0143C10.0006 11.0182 10.0048 11.0221 10.0089 11.0257C10.0139 11.0299 10.0189 11.0338 10.0242 11.0379C10.0269 11.0401 10.0294 11.0424 10.0325 11.0443C10.5056 11.3815 10.7882 11.9292 10.7882 12.5094C10.7882 13.5005 9.98173 14.307 8.99059 14.307L8.99086 14.3067Z" fill="#939CA3"/>
<path d="M9.32787 11.8474C9.33397 11.8213 9.33785 11.7944 9.33785 11.7667V2.98062C9.33785 2.78927 9.18255 2.63397 8.9912 2.63397C8.79985 2.63397 8.64455 2.78927 8.64455 2.98062V11.7667C8.64455 11.7947 8.64815 11.8216 8.65453 11.8474C8.41354 11.9703 8.24854 12.2204 8.24854 12.5094C8.24854 12.9195 8.58104 13.2523 8.99148 13.2523C9.40191 13.2523 9.73442 12.9198 9.73442 12.5094C9.73442 12.2204 9.56942 11.9703 9.32842 11.8474H9.32787Z" fill="#939CA3"/>
<path d="M3.9519 4.1146C4.08723 3.97927 4.08723 3.75963 3.9519 3.6243C3.81656 3.48896 3.59692 3.48896 3.46159 3.6243L2.94189 4.144C2.5065 4.57939 2.5065 5.28795 2.94189 5.72334C3.1069 5.88835 3.1069 6.15707 2.94189 6.32235L2.87533 6.38891C2.66429 6.59995 2.5481 6.88032 2.5481 7.17872C2.5481 7.47712 2.66429 7.75749 2.87533 7.96853L3.39087 8.48407C3.45854 8.55174 3.54728 8.58557 3.63603 8.58557C3.72477 8.58557 3.81351 8.55174 3.88118 8.48407C4.01651 8.34874 4.01651 8.1291 3.88118 7.99377L3.36564 7.47823C3.28577 7.39836 3.24168 7.29187 3.24168 7.17872C3.24168 7.06557 3.28577 6.95936 3.36564 6.87921L3.4322 6.81266C3.86759 6.37726 3.86759 5.66871 3.4322 5.23331C3.26719 5.06831 3.26719 4.79958 3.4322 4.6343L3.9519 4.1146Z" fill="#939CA3"/>
<path d="M5.67821 4.1146C5.81355 3.97927 5.81355 3.75963 5.67821 3.6243C5.54288 3.48896 5.32324 3.48896 5.18791 3.6243L4.66821 4.144C4.23282 4.57939 4.23282 5.28795 4.66821 5.72334C4.83322 5.88835 4.83322 6.15707 4.66821 6.32235L4.60165 6.38891C4.39061 6.59995 4.27441 6.88032 4.27441 7.17872C4.27441 7.47712 4.39061 7.75749 4.60165 7.96853L5.11719 8.48407C5.18486 8.55174 5.2736 8.58557 5.36234 8.58557C5.45109 8.58557 5.53983 8.55174 5.6075 8.48407C5.74283 8.34874 5.74283 8.1291 5.6075 7.99377L5.09196 7.47823C5.01209 7.39836 4.96799 7.29187 4.96799 7.17872C4.96799 7.06557 5.01209 6.95936 5.09196 6.87921L5.15851 6.81266C5.59391 6.37726 5.59391 5.66871 5.15851 5.23331C4.99351 5.06831 4.99351 4.79958 5.15851 4.6343L5.67821 4.1146Z" fill="#939CA3"/>
<path d="M12.2106 5.83176H13.1277C13.3767 5.83176 13.5323 5.5622 13.4078 5.34645L12.9494 4.5522C12.8249 4.33644 12.5137 4.33644 12.3892 4.5522L11.9308 5.34645C11.8063 5.5622 11.9619 5.83176 12.2109 5.83176H12.2106Z" fill="#939CA3"/>
<path d="M13.1276 7.37729H12.2105C11.9615 7.37729 11.8059 7.64684 11.9304 7.8626L12.3888 8.65685C12.5134 8.8726 12.8245 8.8726 12.949 8.65685L13.4074 7.8626C13.532 7.64684 13.3764 7.37729 13.1273 7.37729H13.1276Z" fill="#939CA3"/>
</svg>
