<svg width="16" height="16" viewBox="0 0 16 16" fill="none" xmlns="http://www.w3.org/2000/svg">
<mask id="path-1-inside-1_4978_7" fill="white">
<path d="M1 5C1 3.89543 1.89543 3 3 3H13C14.1046 3 15 3.89543 15 5V11C15 12.1046 14.1046 13 13 13H3C1.89543 13 1 12.1046 1 11V5Z"/>
</mask>
<path d="M3 4H13V2H3V4ZM14 5V11H16V5H14ZM13 12H3V14H13V12ZM2 11V5H0V11H2ZM3 12C2.44772 12 2 11.5523 2 11H0C0 12.6569 1.34315 14 3 14V12ZM14 11C14 11.5523 13.5523 12 13 12V14C14.6569 14 16 12.6569 16 11H14ZM13 4C13.5523 4 14 4.44772 14 5H16C16 3.34315 14.6569 2 13 2V4ZM3 2C1.34315 2 0 3.34315 0 5H2C2 4.44772 2.44772 4 3 4V2Z" fill="#939CA3" mask="url(#path-1-inside-1_4978_7)"/>
</svg>
