<svg width="16" height="16" viewBox="0 0 16 16" fill="none" xmlns="http://www.w3.org/2000/svg">
<path d="M10.69 3.77H10.63V0.5C10.63 0.22 10.41 0 10.13 0H6.06C5.78 0 5.56 0.22 5.56 0.5V3.77H5.5C5.22 3.77 5 3.99 5 4.27V11.1C5 11.38 5.22 11.6 5.5 11.6H6.28V14.18C6.28 14.46 6.5 14.68 6.78 14.68H7.6V15.41C7.6 15.69 7.82 15.91 8.1 15.91C8.38 15.91 8.6 15.69 8.6 15.41V14.68H9.42C9.7 14.68 9.92 14.46 9.92 14.18V11.6H10.7C10.98 11.6 11.2 11.38 11.2 11.1V4.27C11.2 3.99 10.98 3.77 10.7 3.77H10.69ZM6.56 1H9.64V3.77H6.56V1ZM8.91 13.68H7.27V13.18H8.91V13.68ZM8.91 12.19H7.27V11.61H8.91V12.19ZM10.19 10.6H6V4.77H10.19V10.6Z" fill="#939CA3"/>
</svg>
