<svg width="16" height="16" viewBox="0 0 16 16" fill="none" xmlns="http://www.w3.org/2000/svg">
<path d="M3.44419 8.00249C3.44419 6.0273 4.62716 4.33253 6.29917 3.6346L7.15233 1.86347C4.24395 2.2905 2 4.88051 2 8.00249C2 10.8429 3.85745 13.2432 6.3828 13.9746L6.5469 12.4655C4.74513 11.8372 3.44419 10.0739 3.44419 8.00249Z" fill="#939CA3"/>
<path d="M14 8.0025C14 5.16267 12.1434 2.76282 9.61887 2.03089L9.45107 3.53889C11.2539 4.16658 12.5558 5.93033 12.5558 8.0025C12.5558 9.96617 11.3866 11.6526 9.73003 12.3581L8.85322 14.1407C11.7589 13.7112 14 11.1225 14 8.0025Z" fill="#939CA3"/>
<path d="M11.4343 7.25101C11.4912 7.13538 11.4858 7.00837 11.4201 6.89782C11.3545 6.78723 11.238 6.74315 11.1124 6.74315H8.36752L8.95842 1.43379C8.97855 1.25379 8.8706 1.06731 8.70244 1.01572C8.66773 1.00508 8.63258 1 8.59787 1C8.46455 1 8.33855 1.07841 8.27649 1.20719L4.56434 8.91635C4.50865 9.03198 4.51479 9.18595 4.58059 9.29584C4.64643 9.40569 4.76251 9.49515 4.88757 9.49515H7.59628L7.04099 14.6047C7.02158 14.784 7.12904 14.9348 7.29629 14.9865C7.33064 14.9971 7.36543 15 7.39978 15C7.53282 15 7.65883 14.9236 7.7217 14.7958L11.4343 7.25101Z" fill="#939CA3"/>
</svg>
