<svg width="16" height="16" viewBox="0 0 16 16" fill="none" xmlns="http://www.w3.org/2000/svg">
<path d="M9.67669 11.0793C8.9402 11.7143 7.99799 12.0643 7.02404 12.0643C4.78313 12.0643 2.95992 10.241 2.95992 8.00014C2.95992 5.75924 4.78313 3.93574 7.02404 3.93574C7.99119 3.93574 8.9283 4.28117 9.66252 4.90855C9.84104 5.06101 10.1094 5.04004 10.2619 4.86151C10.4143 4.68299 10.3933 4.41463 10.2148 4.26218C10.0303 4.10463 9.83509 3.96209 9.63163 3.83457V1.42506C9.63163 1.19043 9.44121 1 9.20657 1H4.84179C4.60716 1 4.41673 1.19043 4.41673 1.42506V3.83627C3.03218 4.70651 2.1098 6.24749 2.1098 8.00014C2.1098 9.7528 3.03218 11.2938 4.41673 12.1637V14.5749C4.41673 14.8096 4.60716 15 4.84179 15H9.20629C9.44092 15 9.63135 14.8096 9.63135 14.5749V12.1657C9.84133 12.0342 10.0422 11.8866 10.2318 11.7231C10.4095 11.5698 10.4293 11.3014 10.276 11.1235C10.1227 10.9458 9.85465 10.926 9.67669 11.0793ZM5.26685 1.85012H8.78123V3.41093C8.22441 3.19783 7.62904 3.08562 7.02404 3.08562C6.41904 3.08562 5.81263 3.20095 5.26685 3.41065V1.85012ZM8.78123 14.1499H5.26685V12.5891C5.81291 12.7988 6.40516 12.9141 7.02404 12.9141C7.64293 12.9141 8.22469 12.8019 8.78123 12.5891V14.1499Z" fill="#939CA3"/>
<path d="M7.02404 5.8553C6.78941 5.8553 6.59898 6.04572 6.59898 6.28036V8.33339C6.59898 8.56802 6.78941 8.75845 7.02404 8.75845H7.98609C8.22072 8.75845 8.41115 8.56802 8.41115 8.33339C8.41115 8.09876 8.22072 7.90833 7.98609 7.90833H7.4491V6.28036C7.4491 6.04572 7.25867 5.8553 7.02404 5.8553Z" fill="#939CA3"/>
<path d="M12.4577 7.35915C12.6836 7.08853 12.8199 6.74055 12.8199 6.36112C12.8199 5.50108 12.1202 4.80144 11.2602 4.80144C10.4001 4.80144 9.70078 5.50108 9.70078 6.36112C9.70078 6.74055 9.83708 7.08853 10.0629 7.35915C9.21309 7.79555 8.63048 8.68109 8.63048 9.70037C8.63048 9.83413 8.69339 9.95994 8.80022 10.0401C9.51517 10.5774 10.3659 10.8614 11.2602 10.8614C12.1519 10.8614 13.0006 10.5788 13.7145 10.0447C13.8227 9.96618 13.8901 9.83923 13.8901 9.70037C13.8901 8.68109 13.3073 7.79555 12.4577 7.35915ZM10.5509 6.36112C10.5509 5.97006 10.8691 5.65155 11.2602 5.65155C11.6512 5.65155 11.9697 5.96978 11.9697 6.36112C11.9697 6.75245 11.6526 7.06926 11.2624 7.0704C11.2616 7.0704 11.261 7.0704 11.2602 7.0704C11.2593 7.0704 11.2588 7.0704 11.2579 7.0704C10.8677 7.06926 10.5509 6.7516 10.5509 6.36112ZM11.2602 10.0112C10.626 10.0112 10.0196 9.83101 9.49306 9.48813C9.59819 8.60684 10.3497 7.92165 11.2585 7.9208C11.259 7.9208 11.2596 7.9208 11.2602 7.9208C11.2607 7.9208 11.2613 7.9208 11.2619 7.9208C12.1706 7.92165 12.9221 8.60712 13.0273 9.48813C12.5008 9.83101 11.8944 10.0112 11.2602 10.0112Z" fill="#939CA3"/>
</svg>
