<svg width="16" height="16" viewBox="0 0 16 16" fill="none" xmlns="http://www.w3.org/2000/svg">
<path d="M12.9805 8C12.9839 6.9132 12.6292 5.85555 11.9712 4.99055C11.3597 4.18628 10.5204 3.58446 9.56249 3.26324V1.75195C9.5622 1.55261 9.48288 1.36152 9.34193 1.22056C9.20097 1.07961 9.00988 1.00029 8.81054 1H7.16991C6.97057 1.00029 6.77948 1.07961 6.63852 1.22056C6.49756 1.36152 6.41825 1.55261 6.41796 1.75195V3.26324C5.46002 3.58446 4.62079 4.18628 4.00925 4.99055C3.5154 5.64404 3.18996 6.40903 3.06164 7.21803C2.93331 8.02703 3.00605 8.85517 3.27343 9.62941V13.4277C3.27357 13.5546 3.32403 13.6762 3.41374 13.7659C3.50345 13.8556 3.62508 13.9061 3.75194 13.9062H3.76562V14.7949C3.76562 14.8493 3.78722 14.9015 3.82568 14.9399C3.86414 14.9784 3.9163 15 3.97069 15C4.02508 15 4.07725 14.9784 4.11571 14.9399C4.15417 14.9015 4.17577 14.8493 4.17577 14.7949V13.9062H4.29882C4.42568 13.9061 4.54731 13.8556 4.63702 13.7659C4.72673 13.6762 4.77719 13.5546 4.77733 13.4277V11.8145C5.67588 12.5734 6.81407 12.9897 7.99022 12.9897C9.16638 12.9897 10.3046 12.5734 11.2031 11.8145V13.4277C11.2033 13.5546 11.2537 13.6762 11.3434 13.7659C11.4331 13.8556 11.5548 13.9061 11.6816 13.9062H11.6953V14.7949C11.6953 14.8493 11.7169 14.9015 11.7554 14.9399C11.7938 14.9784 11.846 15 11.9004 15C11.9548 15 12.0069 14.9784 12.0454 14.9399C12.0839 14.9015 12.1055 14.8493 12.1055 14.7949V13.9062H12.2285C12.3554 13.9061 12.477 13.8556 12.5667 13.7659C12.6564 13.6762 12.7069 13.5546 12.707 13.4277V9.62941C12.8884 9.10534 12.9809 8.55459 12.9805 8ZM7.16991 7.42578H8.81054C9.00988 7.42549 9.20097 7.34618 9.34193 7.20522C9.48288 7.06426 9.5622 6.87317 9.56249 6.67383V6.1975C9.92969 6.51763 10.1904 6.94221 10.3098 7.4145C10.4292 7.88679 10.4016 8.38428 10.2307 8.84045C10.0598 9.29663 9.75364 9.68976 9.35328 9.96729C8.95292 10.2448 8.47737 10.3935 7.99022 10.3935C7.50308 10.3935 7.02753 10.2448 6.62717 9.96729C6.2268 9.68976 5.9207 9.29663 5.74977 8.84045C5.57884 8.38428 5.55123 7.88679 5.67063 7.4145C5.79004 6.94221 6.05076 6.51763 6.41796 6.1975V6.67383C6.41825 6.87317 6.49756 7.06426 6.63852 7.20522C6.77948 7.34618 6.97057 7.42549 7.16991 7.42578ZM6.41796 5.68125C5.92149 6.01768 5.54602 6.50449 5.34674 7.07014C5.14747 7.63578 5.13488 8.25044 5.31084 8.82377C5.4868 9.3971 5.84202 9.89887 6.32431 10.2553C6.80659 10.6118 7.3905 10.8042 7.99022 10.8042C8.58995 10.8042 9.17386 10.6118 9.65614 10.2553C10.1384 9.89887 10.4936 9.3971 10.6696 8.82377C10.8456 8.25044 10.833 7.63578 10.6337 7.07014C10.4344 6.50449 10.059 6.01768 9.56249 5.68125V4.88828C10.2623 5.2419 10.8225 5.82111 11.1526 6.53235C11.4827 7.2436 11.5634 8.04534 11.3816 8.80809C11.1998 9.57084 10.7663 10.25 10.1509 10.736C9.53554 11.222 8.77433 11.4863 7.99022 11.4863C7.20612 11.4863 6.44491 11.222 5.82955 10.736C5.21419 10.25 4.78061 9.57084 4.59886 8.80809C4.4171 8.04534 4.49777 7.2436 4.82784 6.53235C5.15792 5.82111 5.71812 5.2419 6.41796 4.88828V5.68125ZM6.82812 1.75195C6.82826 1.66135 6.86432 1.57449 6.92839 1.51043C6.99245 1.44636 7.07931 1.4103 7.16991 1.41016H8.81054C8.90114 1.4103 8.988 1.44636 9.05206 1.51043C9.11613 1.57449 9.15219 1.66135 9.15233 1.75195V6.67383C9.15219 6.76443 9.11613 6.85129 9.05206 6.91536C8.988 6.97942 8.90114 7.01548 8.81054 7.01562H7.16991C7.07931 7.01548 6.99245 6.97942 6.92839 6.91536C6.86432 6.85129 6.82826 6.76443 6.82812 6.67383V1.75195ZM4.29882 13.4961H3.75194C3.73381 13.4961 3.71643 13.4889 3.70361 13.4761C3.69079 13.4633 3.68358 13.4459 3.68358 13.4277V10.5184C3.87624 10.8465 4.10557 11.1517 4.36718 11.4281V13.4277C4.36718 13.4459 4.35998 13.4633 4.34716 13.4761C4.33434 13.4889 4.31695 13.4961 4.29882 13.4961ZM3.41015 8C3.41015 6.08156 4.63378 4.3507 6.41796 3.69746V4.43574C5.72712 4.74112 5.13978 5.24046 4.72721 5.87315C4.31463 6.50584 4.09458 7.24468 4.09374 8C4.09374 10.1487 5.84183 11.8965 7.99022 11.8965C10.1386 11.8965 11.8867 10.1487 11.8867 8C11.886 7.24459 11.666 6.50563 11.2534 5.87283C10.8408 5.24003 10.2534 4.74061 9.56249 4.4352V3.69691C11.3467 4.35016 12.5703 6.08102 12.5703 7.99945C12.5703 10.5249 10.5157 12.5795 7.99022 12.5795C5.46476 12.5795 3.41015 10.5255 3.41015 8ZM12.2969 13.4277C12.2969 13.4459 12.2897 13.4633 12.2768 13.4761C12.264 13.4889 12.2466 13.4961 12.2285 13.4961H11.6816C11.6635 13.4961 11.6461 13.4889 11.6333 13.4761C11.6205 13.4633 11.6133 13.4459 11.6133 13.4277V11.4281C11.8749 11.1517 12.1042 10.8465 12.2969 10.5184V13.4277Z" fill="#939CA3" stroke="#939CA3" stroke-width="0.2"/>
<path d="M7.44509 4.67419H8.08355L7.44509 5.31411C7.42421 5.3343 7.40755 5.35844 7.3961 5.38514C7.38465 5.41183 7.37863 5.44054 7.37839 5.46958C7.37815 5.49863 7.3837 5.52743 7.39471 5.55431C7.40572 5.58119 7.42198 5.6056 7.44253 5.62613C7.46307 5.64666 7.48751 5.66289 7.5144 5.67388C7.54128 5.68487 7.57009 5.69039 7.59914 5.69012C7.62818 5.68985 7.65688 5.68381 7.68357 5.67233C7.71025 5.66085 7.73438 5.64418 7.75455 5.62327L8.76751 4.61032C8.79816 4.57974 8.81905 4.54075 8.82753 4.4983C8.83602 4.45584 8.83171 4.41182 8.81515 4.37181C8.7986 4.3318 8.77055 4.29761 8.73455 4.27355C8.69855 4.2495 8.65622 4.23667 8.61292 4.23669H7.9733L8.54117 3.66852C8.57847 3.62689 8.5984 3.57255 8.59689 3.51667C8.59538 3.46079 8.57254 3.40761 8.53305 3.36805C8.49356 3.32849 8.44042 3.30554 8.38455 3.30392C8.32867 3.30231 8.2743 3.32214 8.23259 3.35936L7.29051 4.30173C7.25995 4.33233 7.23915 4.37129 7.23072 4.41369C7.2223 4.4561 7.22663 4.50005 7.24317 4.54C7.25971 4.57995 7.28772 4.6141 7.32366 4.63814C7.3596 4.66218 7.40185 4.67415 7.44509 4.67419Z" fill="#939CA3"/>
</svg>
