<svg width="16" height="16" viewBox="0 0 16 16" fill="none" xmlns="http://www.w3.org/2000/svg">
<path d="M7.67044 12.2767C7.86756 12.3086 8.06496 12.3243 8.26124 12.3243C9.11776 12.3243 9.94768 12.025 10.6029 11.4669C11.4087 10.7809 11.871 9.78107 11.871 8.72351C11.871 7.99831 11.6562 7.29915 11.2502 6.70163C11.1856 6.60615 11.1139 6.51123 11.0374 6.41939L8.96124 3.67203C8.80864 3.47015 8.57624 3.35311 8.32312 3.35059C8.3206 3.35059 8.3178 3.35059 8.31528 3.35059C8.06524 3.35059 7.83396 3.46287 7.67912 3.65971L5.59704 6.30823C5.48364 6.43367 5.37752 6.56891 5.28148 6.71087C4.77132 7.46715 4.56944 8.38835 4.71336 9.30451C4.8304 10.051 5.17564 10.73 5.71128 11.2684C6.2472 11.8069 6.92452 12.1552 7.67044 12.2759V12.2767ZM5.86164 7.10315C5.94116 6.98555 6.02908 6.87383 6.12316 6.77051C6.12876 6.76435 6.13436 6.75763 6.13968 6.75091L8.2296 4.09259C8.25816 4.05647 8.2954 4.05087 8.31556 4.05087H8.31668C8.33684 4.05087 8.37464 4.05703 8.40292 4.09427L10.4844 6.84835C10.4878 6.85311 10.4914 6.85759 10.4954 6.86207C10.5589 6.93795 10.618 7.01607 10.6715 7.09475C10.9985 7.57607 11.1713 8.13943 11.1713 8.72351C11.1713 9.57527 10.7989 10.3811 10.1493 10.9338C9.49072 11.4944 8.65016 11.7257 7.78244 11.5857C7.18324 11.4888 6.63892 11.2085 6.20772 10.7753C5.7768 10.3422 5.49904 9.79619 5.40496 9.19671C5.28876 8.45555 5.45088 7.71215 5.86164 7.10315Z" fill="#939CA3"/>
<path d="M8.81147 10.9288C8.85515 10.9288 8.89967 10.9207 8.94251 10.903C9.89171 10.5191 10.5049 9.60943 10.5049 8.58575C10.5049 8.39255 10.3481 8.23575 10.1549 8.23575C9.96171 8.23575 9.80491 8.39255 9.80491 8.58575C9.80491 9.32299 9.36335 9.97763 8.68015 10.2543C8.50095 10.3268 8.41443 10.5309 8.48695 10.7101C8.54211 10.8462 8.67315 10.9291 8.81147 10.9291V10.9288Z" fill="#939CA3"/>
<path d="M13.234 5.79949C13.257 5.80033 13.2797 5.80089 13.3023 5.80089C13.7436 5.80089 14.1591 5.63401 14.4786 5.32657C14.8146 5.00345 14.9997 4.56861 14.9997 4.10241C14.9997 3.76053 14.8983 3.43069 14.7071 3.14901C14.6774 3.10533 14.6447 3.06193 14.6099 3.01965L13.962 2.16257C13.8094 1.96069 13.577 1.84365 13.3239 1.84113C13.0713 1.84001 12.8361 1.95145 12.6799 2.15025L12.0365 2.96897C11.9849 3.02637 11.9365 3.08825 11.8925 3.15349C11.6895 3.45421 11.5899 3.80589 11.6044 4.17073C11.6389 5.04993 12.3548 5.76533 13.234 5.79949ZM12.4727 3.54549C12.5001 3.50489 12.5304 3.46625 12.5629 3.43069C12.5687 3.42453 12.5741 3.41781 12.5794 3.41109L13.2304 2.58285C13.2589 2.54673 13.2962 2.54113 13.3163 2.54113H13.3175C13.3376 2.54113 13.3754 2.54729 13.4037 2.58453L14.0564 3.44833C14.0597 3.45309 14.0634 3.45757 14.0673 3.46205C14.0894 3.48837 14.1096 3.51525 14.1281 3.54213C14.2406 3.70761 14.3 3.90137 14.3 4.10241C14.3 4.37653 14.1911 4.63189 13.9937 4.82201C13.7963 5.01185 13.5364 5.11041 13.2615 5.10005C12.7449 5.07989 12.3246 4.65961 12.3041 4.14329C12.2957 3.92853 12.3543 3.72161 12.473 3.54549H12.4727Z" fill="#939CA3"/>
<path d="M4.00686 10.8896L3.35894 10.0325C3.20634 9.83065 2.97394 9.7136 2.72082 9.71108C2.46854 9.70912 2.23306 9.82141 2.07682 10.0202L1.43338 10.8389C1.38186 10.8966 1.33342 10.9585 1.28946 11.0234C1.08674 11.3242 0.987065 11.6758 1.00134 12.0404C1.03578 12.9196 1.75174 13.635 2.63094 13.6692C2.6539 13.67 2.67658 13.6706 2.69926 13.6706C3.14054 13.6706 3.55606 13.5037 3.87554 13.1962C4.21154 12.8731 4.39662 12.4383 4.39662 11.9721C4.39662 11.6302 4.29526 11.3004 4.10402 11.0187C4.07434 10.975 4.04186 10.9316 4.00686 10.8893V10.8896ZM3.3903 12.6917C3.1929 12.8815 2.9325 12.9801 2.6581 12.9697C2.1415 12.9496 1.72122 12.5293 1.70078 12.013C1.69238 11.7982 1.7509 11.5913 1.86962 11.4152C1.89706 11.3746 1.9273 11.3359 1.95978 11.3004C1.96538 11.2942 1.97098 11.2875 1.9763 11.281L2.6273 10.4531C2.65586 10.417 2.6931 10.4114 2.71326 10.4114H2.71438C2.73454 10.4114 2.77234 10.4175 2.80062 10.4548L3.4533 11.3186C3.45666 11.3233 3.4603 11.3278 3.46422 11.3323C3.48634 11.3586 3.5065 11.3855 3.52498 11.4124C3.63754 11.5778 3.6969 11.7716 3.6969 11.9726C3.6969 12.2468 3.58798 12.5021 3.39058 12.6922L3.3903 12.6917Z" fill="#939CA3"/>
<path d="M14.794 6.84136C14.7189 6.78396 14.626 6.7596 14.5324 6.77192C14.3392 6.79796 14.2032 6.97632 14.2292 7.16952C14.6408 10.2352 12.704 13.187 9.724 14.0354C8.50712 14.382 7.24012 14.3566 6.04844 13.9634L6.15596 13.8951C6.3206 13.7907 6.3696 13.5717 6.26516 13.4071C6.16072 13.2424 5.94176 13.1934 5.77712 13.2979L5.14068 13.7014C4.97632 13.8058 4.92704 14.0245 5.0312 14.1891L5.43076 14.8202C5.496 14.9233 5.60744 14.9849 5.72952 14.9849H5.73008C5.79728 14.9849 5.86252 14.9658 5.9188 14.93C5.99916 14.879 6.05376 14.8006 6.0742 14.7116C6.70252 14.8936 7.34876 14.986 7.99696 14.986C8.64516 14.986 9.28748 14.895 9.91748 14.7155C11.542 14.253 12.9432 13.2189 13.8618 11.8035C14.7718 10.4021 15.1512 8.72296 14.9298 7.07516C14.9172 6.98164 14.869 6.89848 14.794 6.84108V6.84136Z" fill="#939CA3"/>
<path d="M1.40129 8.95508C1.41221 8.95508 1.42313 8.95452 1.43405 8.95368C1.62809 8.93576 1.77145 8.76328 1.75381 8.56924C1.46989 5.48896 3.52761 2.62036 6.54013 1.89628C7.78557 1.59696 9.11613 1.69076 10.307 2.15864L10.2512 2.19084C10.0824 2.28828 10.0244 2.505 10.1219 2.67384C10.219 2.84184 10.4341 2.90036 10.6026 2.8046C10.6026 2.8046 10.6038 2.80376 10.6043 2.80348L11.2573 2.4266C11.339 2.37928 11.3976 2.30312 11.4219 2.21184C11.4463 2.12056 11.4337 2.02536 11.3866 1.9436L11.0098 1.29092C10.9123 1.12208 10.6956 1.06412 10.5268 1.16156C10.429 1.21812 10.3669 1.31472 10.3529 1.42084C9.07245 0.96388 7.69989 0.89024 6.37493 1.2086C4.73245 1.6034 3.28989 2.57836 2.31297 3.95428C1.34557 5.31676 0.897009 6.97856 1.04961 8.6342C1.06641 8.81732 1.21761 8.95536 1.40129 8.95536V8.95508Z" fill="#939CA3"/>
</svg>
