<svg width="16" height="16" viewBox="0 0 16 16" fill="none" xmlns="http://www.w3.org/2000/svg">
<path d="M2.33984 12.6348C2.33984 13.939 3.40089 15 4.70508 15C6.00927 15 7.07031 13.939 7.07031 12.6348V5.92188H2.33984V12.6348Z" fill="#939CA3"/>
<path d="M8.92969 12.6348C8.92969 13.939 9.99073 15 11.2949 15C12.5991 15 13.6602 13.939 13.6602 12.6348V5.92188H8.92969V12.6348Z" fill="#939CA3"/>
<path d="M1.82031 4.69141C1.82031 4.91792 2.00395 5.10156 2.23047 5.10156H7.17969C7.4062 5.10156 7.58984 4.91792 7.58984 4.69141V4.28125H1.82031V4.69141Z" fill="#939CA3"/>
<path d="M8.41016 4.69141C8.41016 4.91792 8.5938 5.10156 8.82031 5.10156H13.7695C13.996 5.10156 14.1797 4.91792 14.1797 4.69141V4.28125H8.41016V4.69141Z" fill="#939CA3"/>
<path d="M14.5898 1H1.41016C1.18364 1 1 1.18364 1 1.41016V3.05078C1 3.2773 1.18364 3.46094 1.41016 3.46094H14.5898C14.8164 3.46094 15 3.2773 15 3.05078V1.41016C15 1.18364 14.8164 1 14.5898 1Z" fill="#939CA3"/>
</svg>
