<svg width="16" height="17" viewBox="0 0 16 17" fill="none" xmlns="http://www.w3.org/2000/svg">
<g clip-path="url(#clip0_3925_12587)">
<path fill-rule="evenodd" clip-rule="evenodd" d="M12.4495 9.49193V7.9921C12.7275 7.9921 12.9495 7.76863 12.9495 7.49266V6.99171C12.9496 6.92605 12.9368 6.861 12.9117 6.80031C12.8866 6.73963 12.8498 6.68449 12.8033 6.63808C12.7568 6.59167 12.7017 6.5549 12.641 6.52988C12.5802 6.50485 12.5152 6.49207 12.4495 6.49227V5.48939C12.4495 4.82096 12.0096 4.25302 11.4036 4.06155C11.2072 3.92156 10.4497 3.29813 10.4497 1.99278V1.49284C10.4497 1.49284 10.4497 0.992893 9.9498 0.992893C9.9498 0.992893 5.96975 0.990893 5.95026 0.992893C5.45031 0.992893 5.45031 1.49284 5.45031 1.49284V1.99278C5.45031 3.30163 4.6884 3.92556 4.49492 4.06255C4.19221 4.15935 3.92801 4.34969 3.74034 4.60618C3.55267 4.86266 3.4512 5.17207 3.45054 5.48988V12.4951C3.45054 13.1635 3.89049 13.7315 4.49642 13.9229C4.6929 14.0624 5.45031 14.6858 5.45031 15.9912V16.4911C5.45031 16.4911 5.45031 16.9911 5.95026 16.9911C5.96975 16.9931 9.9498 16.9911 9.9498 16.9911C10.4497 16.9911 10.4497 16.4911 10.4497 16.4911V15.9912C10.4497 14.6823 11.2112 14.0584 11.4051 13.9214C11.7078 13.8247 11.9719 13.6344 12.1596 13.378C12.3472 13.1216 12.4488 12.8123 12.4495 12.4946V11.9916C12.4823 11.9917 12.5147 11.9853 12.545 11.9729C12.5753 11.9604 12.6029 11.9421 12.6261 11.9189C12.6493 11.8958 12.6677 11.8684 12.6803 11.8381C12.6929 11.8079 12.6994 11.7754 12.6995 11.7427V9.7409C12.6996 9.70811 12.6931 9.67562 12.6806 9.64532C12.668 9.61501 12.6496 9.5875 12.6264 9.56435C12.6031 9.54121 12.5755 9.52289 12.5452 9.51046C12.5148 9.49803 12.4823 9.49173 12.4495 9.49193ZM4.94687 4.4925H10.9532C11.5031 4.4925 11.9496 4.93945 11.9496 5.48939V12.4946C11.9496 13.0425 11.4996 13.4915 10.9532 13.4915H4.94687C4.39693 13.4915 3.95048 13.0445 3.95048 12.4946V5.48939C3.95048 4.94145 4.40043 4.4925 4.94687 4.4925Z" fill="#939CA3"/>
<path fill-rule="evenodd" clip-rule="evenodd" d="M12.4495 9.49193V7.9921C12.7275 7.9921 12.9495 7.76863 12.9495 7.49266V6.99171C12.9496 6.92605 12.9368 6.861 12.9117 6.80031C12.8866 6.73963 12.8498 6.68449 12.8033 6.63808C12.7568 6.59167 12.7017 6.5549 12.641 6.52988C12.5802 6.50485 12.5152 6.49207 12.4495 6.49227V5.48939C12.4495 4.82096 12.0096 4.25302 11.4036 4.06155C11.2072 3.92156 10.4497 3.29813 10.4497 1.99278V1.49284C10.4497 1.49284 10.4497 0.992893 9.9498 0.992893C9.9498 0.992893 5.96975 0.990893 5.95026 0.992893C5.45031 0.992893 5.45031 1.49284 5.45031 1.49284V1.99278C5.45031 3.30163 4.6884 3.92556 4.49492 4.06255C4.19221 4.15935 3.92801 4.34969 3.74034 4.60618C3.55267 4.86266 3.4512 5.17207 3.45054 5.48988V12.4951C3.45054 13.1635 3.89049 13.7315 4.49642 13.9229C4.6929 14.0624 5.45031 14.6858 5.45031 15.9912V16.4911C5.45031 16.4911 5.45031 16.9911 5.95026 16.9911C5.96975 16.9931 9.9498 16.9911 9.9498 16.9911C10.4497 16.9911 10.4497 16.4911 10.4497 16.4911V15.9912C10.4497 14.6823 11.2112 14.0584 11.4051 13.9214C11.7078 13.8247 11.9719 13.6344 12.1596 13.378C12.3472 13.1216 12.4488 12.8123 12.4495 12.4946V11.9916C12.4823 11.9917 12.5147 11.9853 12.545 11.9729C12.5753 11.9604 12.6029 11.9421 12.6261 11.9189C12.6493 11.8958 12.6677 11.8684 12.6803 11.8381C12.6929 11.8079 12.6994 11.7754 12.6995 11.7427V9.7409C12.6996 9.70811 12.6931 9.67562 12.6806 9.64532C12.668 9.61501 12.6496 9.5875 12.6264 9.56435C12.6031 9.54121 12.5755 9.52289 12.5452 9.51046C12.5148 9.49803 12.4823 9.49173 12.4495 9.49193ZM4.94687 4.4925H10.9532C11.5031 4.4925 11.9496 4.93945 11.9496 5.48939V12.4946C11.9496 13.0425 11.4996 13.4915 10.9532 13.4915H4.94687C4.39693 13.4915 3.95048 13.0445 3.95048 12.4946V5.48939C3.95048 4.94145 4.40043 4.4925 4.94687 4.4925Z" fill="#939CA3"/>
</g>
<path d="M9.1932 5.26746C9.15474 5.26746 9.11857 5.27597 9.08629 5.29052C9.05668 5.30374 9.02981 5.32173 9.00655 5.3445L9.0053 5.34577C8.98306 5.36839 8.96525 5.39475 8.95238 5.42321L8.95102 5.42617C8.93603 5.45888 8.92826 5.49615 8.92826 5.53342L8.92808 5.64795L8.92844 5.65375C8.93308 5.72863 8.96813 5.79429 9.01993 5.83985L9.02575 5.84478C9.07635 5.88769 9.1426 5.91364 9.21419 5.91364H10.0692L8.27019 7.70931C8.20826 7.76639 8.16974 7.848 8.16974 7.93851C8.16974 8.03009 8.20955 8.11222 8.27211 8.16896C8.32246 8.22041 8.38287 8.2562 8.45337 8.26524C8.5261 8.27457 8.59655 8.25377 8.66158 8.21528L8.67217 8.20902L8.68078 8.20023C8.68903 8.19182 8.69821 8.18407 8.70854 8.17682L8.71614 8.17176L10.5296 6.36873L10.5239 7.25305C10.5239 7.32313 10.5521 7.38467 10.5993 7.43524C10.6477 7.48709 10.7096 7.51873 10.7823 7.51873L10.9039 7.51895L10.9104 7.51851C10.9756 7.51401 11.0348 7.48933 11.082 7.45049C11.1303 7.40959 11.1638 7.35028 11.1697 7.2833V5.52405C11.1697 5.46872 11.162 5.40055 11.1065 5.34501C11.0485 5.28672 10.981 5.27669 10.9267 5.27655L10.8417 5.27456H10.8324L9.1932 5.26746Z" fill="#939CA3"/>
<path d="M6.88363 12.4832C6.92209 12.4832 6.95826 12.4747 6.99054 12.4601C7.02015 12.4469 7.04702 12.4289 7.07028 12.4061L7.07153 12.4049C7.09377 12.3823 7.11159 12.3559 7.12445 12.3274L7.12581 12.3245C7.1408 12.2918 7.14857 12.2545 7.14857 12.2172L7.14875 12.1027L7.14839 12.0969C7.14375 12.022 7.1087 11.9564 7.0569 11.9108L7.05108 11.9059C7.00048 11.863 6.93423 11.837 6.86264 11.837H6.00765L7.80664 10.0413C7.86858 9.98426 7.90709 9.90265 7.90709 9.81214C7.90709 9.72056 7.86728 9.63843 7.80472 9.58169C7.75437 9.53024 7.69396 9.49445 7.62347 9.48541C7.55074 9.47608 7.48028 9.49688 7.41525 9.53537L7.40466 9.54163L7.39605 9.55042C7.3878 9.55883 7.37863 9.56658 7.3683 9.57383L7.36069 9.57889L5.54724 11.3819L5.55291 10.4976C5.55291 10.4275 5.52476 10.366 5.47756 10.3154C5.42917 10.2636 5.3672 10.2319 5.29452 10.2319L5.1729 10.2317L5.16644 10.2321C5.10126 10.2366 5.04206 10.2613 4.99484 10.3002C4.94657 10.3411 4.91308 10.4004 4.9071 10.4674L4.9071 12.2266C4.9071 12.2819 4.91482 12.3501 4.97038 12.4056C5.02838 12.4639 5.09586 12.474 5.1501 12.4741L5.2351 12.4761H5.24439L6.88363 12.4832Z" fill="#939CA3"/>
<defs>
<clipPath id="clip0_3925_12587">
<rect width="16" height="16" fill="white" transform="translate(0 0.992004)"/>
</clipPath>
</defs>
</svg>
