<svg width="16" height="16" viewBox="0 0 16 16" fill="none" xmlns="http://www.w3.org/2000/svg">
<path d="M8.37584 8.9926C8.28884 8.90192 8.18399 8.85346 8.07263 8.85346C7.96126 8.85346 7.85642 8.90107 7.76602 8.99147L7.48265 9.27399C7.45941 9.26152 7.43589 9.2499 7.41351 9.238C7.3812 9.22185 7.3506 9.20654 7.32481 9.19039C7.05929 9.02179 6.81814 8.80189 6.58663 8.51767C6.47441 8.37598 6.39903 8.25668 6.34434 8.13568C6.41802 8.06852 6.48603 7.99853 6.55234 7.93109C6.57756 7.90587 6.60249 7.88008 6.62771 7.85486C6.81616 7.66642 6.81616 7.42243 6.62771 7.23427L6.38288 6.98944C6.35511 6.96167 6.32649 6.93305 6.29957 6.90415C6.24573 6.84861 6.18934 6.79108 6.13096 6.73724C6.04397 6.65109 5.93997 6.60547 5.83059 6.60547C5.72121 6.60547 5.61523 6.65109 5.52568 6.73724L5.52398 6.73894L5.21907 7.04668C5.10431 7.16145 5.03885 7.30143 5.0244 7.46381C5.00286 7.72564 5.07994 7.96963 5.13916 8.12945C5.28453 8.52135 5.50159 8.88463 5.82521 9.27399C6.21796 9.74297 6.69062 10.1136 7.23073 10.3746C7.43703 10.4724 7.71246 10.588 8.01992 10.6078C8.03862 10.6087 8.05846 10.6095 8.07631 10.6095C8.28346 10.6095 8.45745 10.535 8.59375 10.3871C8.5946 10.3854 8.5963 10.3845 8.59743 10.3825C8.64419 10.3261 8.69775 10.2749 8.75442 10.2202C8.79296 10.1833 8.83235 10.1448 8.87089 10.1046C8.95958 10.0122 9.00634 9.90449 9.00634 9.79426C9.00634 9.68403 8.95873 9.57635 8.86834 9.48652L8.37584 8.9926Z" fill="#939CA3"/>
<path d="M7.55009 7.23172C7.75497 7.26601 7.94228 7.36349 8.0919 7.51311C8.24067 7.66188 8.33815 7.84976 8.37357 8.0552C8.39482 8.18187 8.50364 8.27397 8.63257 8.27397C8.64788 8.27397 8.66034 8.27227 8.67055 8.27113L8.67593 8.27028C8.81875 8.24705 8.91595 8.11131 8.89243 7.96679C8.83915 7.65338 8.69123 7.36803 8.46453 7.14161C8.23784 6.9152 7.95248 6.76728 7.63822 6.71372C7.49682 6.69048 7.36108 6.78655 7.33615 6.92738C7.32396 6.99653 7.34011 7.06879 7.38064 7.12574C7.42116 7.1827 7.48095 7.22039 7.55009 7.23172Z" fill="#939CA3"/>
<path d="M9.4688 6.13592C9.10949 5.77661 8.65666 5.54169 8.16019 5.45696C8.01851 5.43174 7.8822 5.52752 7.85642 5.67233C7.8329 5.81656 7.92754 5.94918 8.07206 5.97469C8.46028 6.04043 8.81506 6.22434 9.09787 6.50657C9.37983 6.78853 9.56373 7.14331 9.62976 7.5321C9.65101 7.65877 9.75983 7.75086 9.88876 7.75086C9.90435 7.75086 9.91653 7.74916 9.9273 7.74803L9.93042 7.74746C10.0001 7.73698 10.0613 7.69957 10.1024 7.64205C10.1432 7.58537 10.1597 7.5134 10.1475 7.44482C10.0625 6.9475 9.82812 6.49524 9.4688 6.13592Z" fill="#939CA3"/>
<path d="M12.5037 8.02148C12.5037 6.33032 11.6261 4.84035 10.3025 3.98286V1.45008C10.3025 1.21545 10.1121 1.02502 9.87743 1.02502H5.51265C5.27801 1.02502 5.08759 1.21545 5.08759 1.45008V3.98286C3.76396 4.84035 2.88635 6.33032 2.88635 8.02148C2.88635 9.71265 3.76396 11.2026 5.08759 12.0601V14.6C5.08759 14.8346 5.27801 15.025 5.51265 15.025H9.87714C10.1118 15.025 10.3022 14.8346 10.3022 14.6V12.0601C11.6258 11.2026 12.5037 9.71265 12.5037 8.02148ZM5.9377 1.87514H9.45209V3.54534C8.90744 3.33082 8.31463 3.21294 7.69489 3.21294C7.07516 3.21294 6.48235 3.33082 5.9377 3.54534V1.87514ZM9.45237 14.1749H5.93799V12.4976C6.48263 12.7121 7.07544 12.83 7.69518 12.83C8.31491 12.83 8.90773 12.7121 9.45237 12.4976V14.1749ZM7.69489 11.9799C5.51208 11.9799 3.73647 10.204 3.73647 8.02148C3.73647 5.83895 5.51236 4.06277 7.69489 4.06277C9.87743 4.06277 11.6536 5.83867 11.6536 8.0212C11.6536 10.2037 9.87771 11.9799 7.69489 11.9799Z" fill="#939CA3"/>
</svg>
