<svg width="52" height="52" viewBox="0 0 52 52" fill="none" xmlns="http://www.w3.org/2000/svg">
<path d="M17.1175 46.4815L33.8807 46.4815C36.0971 46.4815 37.8881 44.7246 37.8881 42.5646L37.8881 18.5354C37.8881 16.3754 36.0971 14.6185 33.8807 14.6185L21.4276 14.6185C20.4795 14.6185 19.5626 14.947 18.8394 15.545L14.5292 19.109C13.6286 19.8536 13.1101 20.9477 13.1101 22.0993L13.1101 42.5646C13.1101 44.7246 14.901 46.4815 17.1175 46.4815ZM33.8807 12.844C37.0886 12.844 39.6951 15.3889 39.6951 18.5354L39.6951 42.5646C39.6951 45.7111 37.0886 48.256 33.8807 48.256L17.1175 48.256C13.9095 48.256 11.3031 45.7111 11.3031 42.5646L11.3031 22.0993C11.3031 20.4229 12.0581 18.8325 13.3653 17.7516L17.6755 14.1876C18.725 13.3198 20.0544 12.844 21.4276 12.844L33.8807 12.844Z" fill="#090D14" stroke="black" stroke-width="0.312"/>
<path fill-rule="evenodd" clip-rule="evenodd" d="M18.7376 32.3705V40.4305C18.7376 41.2562 19.3765 41.9255 20.1646 41.9255H30.8365C31.6246 41.9255 32.2635 41.2562 32.2635 40.4305V32.3705C32.2635 31.5448 31.6246 30.8755 30.8365 30.8755H20.1646C19.3765 30.8755 18.7376 31.5448 18.7376 32.3705ZM17.3105 40.4305C17.3105 42.0818 18.5884 43.4205 20.1646 43.4205H30.8365C32.4127 43.4205 33.6905 42.0818 33.6905 40.4305V32.3705C33.6905 30.7192 32.4127 29.3805 30.8365 29.3805H20.1646C18.5884 29.3805 17.3105 30.7192 17.3105 32.3705V40.4305Z" fill="#DC2626"/>
<path fill-rule="evenodd" clip-rule="evenodd" d="M25.1593 36.368H18.0551V34.873H32.946V36.368H26.5863V42.6405H25.1593V36.368Z" fill="#DC2626"/>
<path d="M22.5432 2.34H20.057V1.8525H19.9757C19.2937 1.8525 18.7407 1.4378 18.7407 0.92625C18.7407 0.414696 19.2936 0 19.9757 0H32.7157C33.3978 0 33.9507 0.414697 33.9507 0.92625V0.975C33.9507 1.33152 33.6672 1.63839 33.2601 1.77571C33.005 1.86175 32.7807 2.07076 32.7807 2.34H30.7007V1.8525H22.5432V2.34Z" fill="black"/>
<path fill-rule="evenodd" clip-rule="evenodd" d="M19.7813 13.6495L19.7813 3.11951L21.3413 3.11951L21.3413 13.6495L19.7813 13.6495Z" fill="black"/>
<path fill-rule="evenodd" clip-rule="evenodd" d="M31.2203 13.6495L31.2203 3.11951L32.7803 3.11951L32.7803 13.6495L31.2203 13.6495Z" fill="black"/>
<rect x="32.2583" y="48.8805" width="4.16" height="3.12" rx="1.56" fill="#090D14"/>
<rect x="14.5786" y="48.8805" width="4.16" height="3.12" rx="1.56" fill="#090D14"/>
</svg>
