<svg width="16" height="16" viewBox="0 0 16 16" fill="none" xmlns="http://www.w3.org/2000/svg">
<path fill-rule="evenodd" clip-rule="evenodd" d="M7.44147 14.6517C7.43781 14.8158 7.49263 14.9335 7.6454 15L7.8095 14.9996C7.95422 14.9086 7.99772 14.7771 7.99297 14.6097C7.98791 14.4385 7.98867 14.2671 7.98943 14.0957C7.99005 13.9573 7.99066 13.8187 7.98821 13.6803C7.98675 13.5951 8.01087 13.5743 8.0942 13.5758C8.34421 13.5799 8.59445 13.579 8.84474 13.5781L9.0236 13.5776C9.55938 13.5765 9.9 13.2366 9.90439 12.6975L9.90493 12.6344C9.90633 12.4731 9.90774 12.3118 9.90256 12.1508C9.9 12.074 9.92778 12.0393 9.99612 12.0097C10.1456 11.9446 10.2929 11.8723 10.4372 11.7959C13.0372 10.4192 14.1673 7.1807 12.9963 4.48277C11.9594 2.0944 9.4322 0.629585 6.76169 1.08168C5.57499 1.28269 4.53486 1.77717 3.68659 2.63823C2.60333 3.73867 2.05841 5.07667 2.00395 6.61275C1.9601 7.85499 2.28062 8.99929 2.98927 10.0263C3.59998 10.9111 4.41717 11.547 5.39153 11.9867C5.49093 12.0316 5.54027 12.0758 5.5326 12.1932C5.52185 12.355 5.52532 12.5178 5.52879 12.6803L5.53004 12.7399C5.54027 13.2359 5.88565 13.575 6.38123 13.5776C6.69992 13.579 7.01898 13.5805 7.33804 13.5758C7.421 13.5747 7.44695 13.5951 7.44549 13.681C7.44309 13.8322 7.44358 13.9835 7.44406 14.1348C7.44461 14.3072 7.44516 14.4795 7.44147 14.6517ZM7.49336 11.9311C10.4606 12.0579 12.8779 9.6951 12.9097 6.79909C12.8508 3.78686 10.7753 1.67661 7.88223 1.58561C5.08124 1.4979 2.61174 3.41152 2.5317 6.72453C2.46628 9.44694 4.65217 11.8097 7.49336 11.9311ZM12.0899 6.69569C12.0318 9.29896 10.2253 11.0097 7.86284 11.0817C5.30343 11.1599 3.38652 9.31869 3.34742 6.7443C3.31233 4.44108 5.15797 2.44596 7.55438 2.37287C10.052 2.29685 12.0369 4.20828 12.0899 6.69569ZM6.86871 7.45069C6.93741 7.45085 7.00708 7.45101 7.07815 7.45101C7.01639 7.68261 6.95575 7.91113 6.89524 8.13777C6.80394 8.47981 6.71377 8.81758 6.62386 9.15522C6.57343 9.34417 6.61326 9.46185 6.74849 9.53019C6.887 9.6 7.00761 9.56235 7.1231 9.40703C7.39491 9.04092 7.6665 8.67471 7.93809 8.30851C8.38225 7.70962 8.82638 7.11077 9.27135 6.51248C9.34847 6.40868 9.38355 6.30452 9.32361 6.18392C9.26368 6.06222 9.15806 6.0275 9.02904 6.02969C8.87253 6.03227 8.71584 6.03175 8.55538 6.03123C8.48839 6.03101 8.42075 6.03078 8.35219 6.03078C8.40218 5.84444 8.45184 5.65954 8.50124 5.47559C8.60531 5.08805 8.70825 4.70475 8.81086 4.3211C8.86056 4.13471 8.81707 4.0163 8.67746 3.94868C8.53858 3.8818 8.42199 3.92127 8.30467 4.07916C8.09391 4.3633 7.88323 4.64748 7.67257 4.93164C7.16763 5.61275 6.66276 6.29377 6.15679 6.97407C6.07894 7.0786 6.04934 7.18312 6.11037 7.30263C6.16958 7.41849 6.27082 7.45321 6.39435 7.45175C6.55079 7.44995 6.70706 7.45031 6.86871 7.45069Z" fill="#939CA3"/>
</svg>
