<svg width="16" height="16" viewBox="0 0 16 16" fill="none" xmlns="http://www.w3.org/2000/svg">
<path d="M7.97744 3.50852C8.28053 3.50852 8.53201 3.25702 8.53201 2.94749V1.56103C8.53201 1.2515 8.28053 1 7.97744 1C7.6679 1 7.41642 1.2515 7.41642 1.56103V2.94749C7.41642 3.25702 7.6679 3.50852 7.97744 3.50852ZM11.1373 4.83049C11.3565 5.0433 11.7112 5.04975 11.9305 4.83049L12.9171 3.84385C13.1299 3.63105 13.1299 3.26992 12.9171 3.05067C12.7043 2.83786 12.3496 2.83786 12.1304 3.05067L11.1373 4.04376C10.9245 4.26301 10.9245 4.61769 11.1373 4.83049ZM12.4464 7.99675C12.4464 8.29985 12.7043 8.55138 13.0074 8.55138H14.3938C14.6969 8.55138 14.9484 8.29985 14.9484 7.99675C14.9484 7.69371 14.6969 7.43574 14.3938 7.43574H13.0074C12.7043 7.43574 12.4464 7.69371 12.4464 7.99675ZM11.1373 11.1631C10.9245 11.3823 10.9245 11.737 11.1373 11.9498L12.1304 12.9493C12.3496 13.1557 12.7043 13.1492 12.9171 12.9429C13.1299 12.7236 13.1299 12.369 12.9171 12.1561L11.924 11.1631C11.7112 10.9567 11.3565 10.9567 11.1373 11.1631ZM7.97744 12.485C7.6679 12.485 7.41642 12.7365 7.41642 13.0396V14.4325C7.41642 14.7356 7.6679 14.9871 7.97744 14.9871C8.28053 14.9871 8.53201 14.7356 8.53201 14.4325V13.0396C8.53201 12.7365 8.28053 12.485 7.97744 12.485ZM4.81115 11.1631C4.59189 10.9567 4.23077 10.9567 4.01797 11.1631L3.03132 12.1497C2.81852 12.3625 2.81852 12.7172 3.02488 12.9364C3.23768 13.1428 3.5988 13.1492 3.81805 12.9429L4.8047 11.9498C5.0175 11.737 5.0175 11.3823 4.81115 11.1631ZM3.50208 7.99675C3.50208 7.69371 3.24412 7.43574 2.94104 7.43574H1.55458C1.2515 7.43574 1 7.69371 1 7.99675C1 8.29985 1.2515 8.55138 1.55458 8.55138H2.94104C3.24412 8.55138 3.50208 8.29985 3.50208 7.99675ZM4.8047 4.83049C5.0175 4.62414 5.0175 4.25657 4.81115 4.04376L3.8245 3.05067C3.6117 2.84431 3.25057 2.83786 3.03777 3.05067C2.82497 3.26992 2.82497 3.63105 3.03132 3.8374L4.01797 4.83049C4.23077 5.0433 4.58544 5.0433 4.8047 4.83049Z" fill="#939CA3" fill-opacity="0.85"/>
<path d="M7.97086 11.2857C9.76357 11.2857 11.2532 9.7961 11.2532 7.99689C11.2532 6.1913 9.76357 4.70166 7.97086 4.70166C6.17812 4.70166 4.68848 6.1913 4.68848 7.99689C4.68848 9.7961 6.17812 11.2857 7.97086 11.2857Z" fill="#939CA3" fill-opacity="0.85"/>
</svg>
