<svg width="16" height="16" viewBox="0 0 16 16" fill="none" xmlns="http://www.w3.org/2000/svg">
<path d="M1.22738 7.41003H3.74774V6H4.97153V10H3.74774V8.45262H1.22738V10H0V6H1.22738V7.41003Z" fill="#939CA3"/>
<path fill-rule="evenodd" clip-rule="evenodd" d="M8.23407 6C8.91433 6 9.48124 6.15845 9.93407 6.47536C10.3869 6.79024 10.6133 7.28775 10.6134 7.96745V7.99064C10.6133 8.65714 10.3836 9.15867 9.92419 9.49521C9.46478 9.8317 8.90125 10 8.23407 10H5.61218V6H8.23407ZM6.80721 9.10725H8.12265C8.44411 9.10725 8.73293 9.02179 8.98882 8.85039C9.24472 8.67672 9.37331 8.3933 9.37339 8.00045V7.97369C9.37333 7.59606 9.24936 7.32722 9.0023 7.16656C8.75508 7.00368 8.46176 6.92219 8.12265 6.92219H6.80721V9.10725Z" fill="#939CA3"/>
<path fill-rule="evenodd" clip-rule="evenodd" d="M13.9909 6C14.5116 6 14.9136 6.11636 15.1958 6.34872C15.48 6.57886 15.6217 6.90233 15.6217 7.31906C15.6217 7.7599 15.4755 8.10757 15.1823 8.36165C15.0817 8.44873 14.967 8.51872 14.84 8.5757L16 10H14.6342L13.6926 8.7398H12.0447V10H10.8173V6H13.9909ZM12.0447 7.90234H13.7321C13.9398 7.9023 14.0995 7.85565 14.211 7.76232C14.3226 7.66894 14.3782 7.5427 14.3782 7.38417C14.3781 7.2301 14.3226 7.11169 14.211 7.02921C14.0995 6.94457 13.9398 6.9026 13.7321 6.90256H12.0447V7.90234Z" fill="#939CA3"/>
</svg>
