<svg width="201" height="201" viewBox="0 0 201 201" fill="none" xmlns="http://www.w3.org/2000/svg">
<circle cx="100.72" cy="100.5" r="100" fill="url(#paint0_linear_6410_128087)"/>
<circle cx="100.72" cy="100.5" r="91" fill="#CB1C22"/>
<circle cx="100.72" cy="100.5" r="91" fill="url(#paint1_radial_6410_128087)"/>
<circle cx="100.72" cy="100.5" r="91" stroke="url(#paint2_linear_6410_128087)" stroke-width="2.05225"/>
<path d="M79.2197 157.808L80.9036 162.99H86.3527L81.9443 166.193L83.6281 171.375L79.2197 168.173L74.8113 171.375L76.4952 166.193L72.0868 162.99H77.5359L79.2197 157.808Z" fill="url(#paint3_linear_6410_128087)"/>
<path d="M100.22 157.808L101.904 162.99H107.353L102.944 166.193L104.628 171.375L100.22 168.173L95.8113 171.375L97.4952 166.193L93.0868 162.99H98.5359L100.22 157.808Z" fill="url(#paint4_linear_6410_128087)"/>
<path d="M121.22 157.808L122.904 162.99H128.353L123.944 166.193L125.628 171.375L121.22 168.173L116.811 171.375L118.495 166.193L114.087 162.99H119.536L121.22 157.808Z" fill="url(#paint5_linear_6410_128087)"/>
<g filter="url(#filter0_d_6410_128087)">
<path d="M64.3085 81.7243H55.7425V74.5045H64.0025C65.5526 74.5045 66.8731 74.2546 67.9643 73.7549C69.0656 73.2553 69.9018 72.3936 70.4729 71.1699C71.0541 69.9461 71.3448 68.2432 71.3448 66.0609C71.3448 63.8786 71.049 62.1756 70.4576 60.9519C69.8763 59.7282 69.0197 58.8665 67.8878 58.3668C66.7661 57.8671 65.3894 57.6173 63.7578 57.6173H55.6201V50.3974H64.1861C67.4085 50.3974 70.1925 51.0246 72.5379 52.2789C74.8935 53.523 76.7087 55.3177 77.9834 57.6632C79.2683 59.9984 79.9107 62.7977 79.9107 66.0609C79.9107 69.3241 79.2734 72.1284 77.9987 74.4739C76.724 76.8091 74.919 78.6039 72.5838 79.8582C70.2485 81.1023 67.4901 81.7243 64.3085 81.7243ZM60.7597 50.3974V81.7243H52.2549V50.3974H60.7597ZM48.2167 67.2234V62.6957H64.6756V67.2234H48.2167Z" fill="white"/>
<path d="M114.194 66.0609C114.194 69.5484 113.516 72.4904 112.159 74.8869C110.803 77.2731 108.973 79.0832 106.668 80.3171C104.363 81.5408 101.793 82.1526 98.9585 82.1526C96.1032 82.1526 93.5232 81.5357 91.2186 80.3018C88.9241 79.0577 87.0987 77.2425 85.7425 74.8563C84.3964 72.4598 83.7233 69.528 83.7233 66.0609C83.7233 62.5733 84.3964 59.6364 85.7425 57.2502C87.0987 54.8538 88.9241 53.0437 91.2186 51.82C93.5232 50.5861 96.1032 49.9691 98.9585 49.9691C101.793 49.9691 104.363 50.5861 106.668 51.82C108.973 53.0437 110.803 54.8538 112.159 57.2502C113.516 59.6364 114.194 62.5733 114.194 66.0609ZM105.444 66.0609C105.444 64.1845 105.194 62.6039 104.695 61.319C104.205 60.0239 103.476 59.045 102.507 58.3821C101.549 57.7091 100.366 57.3725 98.9585 57.3725C97.5512 57.3725 96.3632 57.7091 95.3945 58.3821C94.4359 59.045 93.7068 60.0239 93.2071 61.319C92.7176 62.6039 92.4729 64.1845 92.4729 66.0609C92.4729 67.9372 92.7176 69.5229 93.2071 70.818C93.7068 72.1029 94.4359 73.0819 95.3945 73.7549C96.3632 74.4178 97.5512 74.7492 98.9585 74.7492C100.366 74.7492 101.549 74.4178 102.507 73.7549C103.476 73.0819 104.205 72.1029 104.695 70.818C105.194 69.5229 105.444 67.9372 105.444 66.0609ZM101.957 47.5829L98.9585 44.2177L95.9604 47.5829H88.9853V47.3993L96.0216 40.4242H101.895L108.932 47.3993V47.5829H101.957ZM98.9585 91.2081C97.8164 91.2081 96.8374 90.8308 96.0216 90.0761C95.2058 89.3215 94.7979 88.4139 94.7979 87.3534C94.7979 86.2928 95.2058 85.3853 96.0216 84.6306C96.8374 83.876 97.8164 83.4987 98.9585 83.4987C100.111 83.4987 101.09 83.876 101.895 84.6306C102.711 85.3853 103.119 86.2928 103.119 87.3534C103.119 88.4139 102.711 89.3215 101.895 90.0761C101.09 90.8308 100.111 91.2081 98.9585 91.2081Z" fill="white"/>
<path d="M147.375 62.145H138.748C138.687 61.4312 138.524 60.7836 138.259 60.2024C138.004 59.6211 137.647 59.1214 137.188 58.7033C136.739 58.275 136.194 57.9487 135.551 57.7244C134.909 57.4898 134.18 57.3725 133.364 57.3725C131.936 57.3725 130.728 57.7193 129.739 58.4127C128.76 59.1061 128.015 60.1004 127.505 61.3955C127.006 62.6906 126.756 64.2457 126.756 66.0609C126.756 67.978 127.011 69.5841 127.521 70.8792C128.041 72.1641 128.79 73.1329 129.769 73.7855C130.748 74.428 131.926 74.7492 133.303 74.7492C134.088 74.7492 134.791 74.6523 135.414 74.4586C136.036 74.2546 136.576 73.964 137.035 73.5867C137.494 73.2094 137.866 72.7556 138.152 72.2253C138.447 71.6848 138.646 71.0781 138.748 70.405L147.375 70.4662C147.273 71.7919 146.901 73.1431 146.259 74.5198C145.616 75.8862 144.704 77.1507 143.521 78.3132C142.348 79.4656 140.895 80.3936 139.161 81.0972C137.428 81.8008 135.414 82.1526 133.119 82.1526C130.243 82.1526 127.663 81.5357 125.379 80.3018C123.105 79.0679 121.305 77.2527 119.98 74.8563C118.664 72.4598 118.006 69.528 118.006 66.0609C118.006 62.5733 118.679 59.6364 120.025 57.2502C121.371 54.8538 123.187 53.0437 125.471 51.82C127.755 50.5861 130.305 49.9691 133.119 49.9691C135.097 49.9691 136.918 50.2394 138.58 50.7798C140.242 51.3203 141.7 52.1106 142.955 53.1508C144.209 54.1807 145.218 55.4503 145.983 56.9595C146.748 58.4688 147.212 60.1973 147.375 62.145Z" fill="white"/>
<path d="M35.7234 122.242H42.3314L44.7177 125.24L48.7559 129.829L54.0178 136.192H46.492L42.7597 131.848L40.2511 128.238L35.7234 122.242ZM53.9567 118.204C53.9567 121.691 53.2785 124.633 51.9222 127.03C50.566 129.416 48.7355 131.226 46.4309 132.46C44.1262 133.684 41.5564 134.295 38.7215 134.295C35.8662 134.295 33.2862 133.679 30.9815 132.445C28.6871 131.201 26.8617 129.385 25.5054 126.999C24.1594 124.603 23.4863 121.671 23.4863 118.204C23.4863 114.716 24.1594 111.779 25.5054 109.393C26.8617 106.997 28.6871 105.187 30.9815 103.963C33.2862 102.729 35.8662 102.112 38.7215 102.112C41.5564 102.112 44.1262 102.729 46.4309 103.963C48.7355 105.187 50.566 106.997 51.9222 109.393C53.2785 111.779 53.9567 114.716 53.9567 118.204ZM45.2071 118.204C45.2071 116.327 44.9573 114.747 44.4576 113.462C43.9681 112.167 43.239 111.188 42.2702 110.525C41.3117 109.852 40.1288 109.515 38.7215 109.515C37.3142 109.515 36.1262 109.852 35.1574 110.525C34.1989 111.188 33.4697 112.167 32.9701 113.462C32.4806 114.747 32.2358 116.327 32.2358 118.204C32.2358 120.08 32.4806 121.666 32.9701 122.961C33.4697 124.246 34.1989 125.225 35.1574 125.898C36.1262 126.561 37.3142 126.892 38.7215 126.892C40.1288 126.892 41.3117 126.561 42.2702 125.898C43.239 125.225 43.9681 124.246 44.4576 122.961C44.9573 121.666 45.2071 120.08 45.2071 118.204Z" fill="white"/>
<path d="M76.4729 102.54H84.9776V122.609C84.9776 124.995 84.4066 127.06 83.2645 128.804C82.1325 130.538 80.5519 131.879 78.5226 132.827C76.4933 133.765 74.1376 134.234 71.4557 134.234C68.7533 134.234 66.3875 133.765 64.3582 132.827C62.3289 131.879 60.7482 130.538 59.6163 128.804C58.4946 127.06 57.9337 124.995 57.9337 122.609V102.54H66.4385V121.875C66.4385 122.844 66.6526 123.71 67.0809 124.475C67.5092 125.23 68.1007 125.821 68.8553 126.25C69.6201 126.678 70.4869 126.892 71.4557 126.892C72.4346 126.892 73.3014 126.678 74.0561 126.25C74.8107 125.821 75.4021 125.23 75.8304 124.475C76.2587 123.71 76.4729 122.844 76.4729 121.875V102.54Z" fill="white"/>
<path d="M87.7348 102.54H97.2186L103.337 115.267H103.582L109.7 102.54H119.184L107.681 124.016V133.867H99.2377V124.016L87.7348 102.54Z" fill="white"/>
<path d="M121.957 133.867V102.54H144.534V109.393H130.461V114.777H143.371V121.63H130.461V127.014H144.473V133.867H121.957ZM135.111 96.1158L141.291 100.338H136.396L133.337 98.1961L130.217 100.338H125.383L131.501 96.1158H135.111ZM122.936 92.5058L126.974 98.3185H122.997L117.612 92.5058H122.936Z" fill="white"/>
<path d="M175.857 102.54V133.867H168.76L157.44 117.408H157.257V133.867H148.752V102.54H155.972L167.108 118.938H167.352V102.54H175.857Z" fill="white"/>
</g>
<defs>
<filter id="filter0_d_6410_128087" x="22.4863" y="40.4242" width="154.371" height="97.7681" filterUnits="userSpaceOnUse" color-interpolation-filters="sRGB">
<feFlood flood-opacity="0" result="BackgroundImageFix"/>
<feColorMatrix in="SourceAlpha" type="matrix" values="0 0 0 0 0 0 0 0 0 0 0 0 0 0 0 0 0 0 127 0" result="hardAlpha"/>
<feOffset dy="1"/>
<feGaussianBlur stdDeviation="0.5"/>
<feColorMatrix type="matrix" values="0 0 0 0 0 0 0 0 0 0 0 0 0 0 0 0 0 0 0.3 0"/>
<feBlend mode="normal" in2="BackgroundImageFix" result="effect1_dropShadow_6410_128087"/>
<feBlend mode="normal" in="SourceGraphic" in2="effect1_dropShadow_6410_128087" result="shape"/>
</filter>
<linearGradient id="paint0_linear_6410_128087" x1="100.72" y1="0.5" x2="100.72" y2="200.5" gradientUnits="userSpaceOnUse">
<stop stop-color="#FBF9EB"/>
<stop offset="1" stop-color="#F3C78F"/>
</linearGradient>
<radialGradient id="paint1_radial_6410_128087" cx="0" cy="0" r="1" gradientUnits="userSpaceOnUse" gradientTransform="translate(100.72 100.5) rotate(90) scale(91)">
<stop stop-color="#524D51"/>
<stop offset="1" stop-color="#1B171A"/>
</radialGradient>
<linearGradient id="paint2_linear_6410_128087" x1="-39.2803" y1="74.8255" x2="135.72" y2="74.8255" gradientUnits="userSpaceOnUse">
<stop stop-color="#FBF8E0"/>
<stop offset="1" stop-color="#DCAF75"/>
</linearGradient>
<linearGradient id="paint3_linear_6410_128087" x1="79.2197" y1="157.808" x2="79.2197" y2="172.808" gradientUnits="userSpaceOnUse">
<stop stop-color="#FBF9EB"/>
<stop offset="1" stop-color="#F3C78F"/>
</linearGradient>
<linearGradient id="paint4_linear_6410_128087" x1="100.22" y1="157.808" x2="100.22" y2="172.808" gradientUnits="userSpaceOnUse">
<stop stop-color="#FBF9EB"/>
<stop offset="1" stop-color="#F3C78F"/>
</linearGradient>
<linearGradient id="paint5_linear_6410_128087" x1="121.22" y1="157.808" x2="121.22" y2="172.808" gradientUnits="userSpaceOnUse">
<stop stop-color="#FBF9EB"/>
<stop offset="1" stop-color="#F3C78F"/>
</linearGradient>
</defs>
</svg>
