<svg width="201" height="200" viewBox="0 0 201 200" fill="none" xmlns="http://www.w3.org/2000/svg">
<circle cx="100.281" cy="100" r="100" fill="url(#paint0_linear_9347_9064)"/>
<path d="M191.281 100C191.281 150.258 150.539 191 100.281 191C50.0233 191 9.28125 150.258 9.28125 100C9.28125 49.7421 50.0233 9 100.281 9C150.539 9 191.281 49.7421 191.281 100Z" fill="#CB1C22"/>
<path d="M191.281 100C191.281 150.258 150.539 191 100.281 191C50.0233 191 9.28125 150.258 9.28125 100C9.28125 49.7421 50.0233 9 100.281 9C150.539 9 191.281 49.7421 191.281 100Z" fill="#CB1C22"/>
<path fill-rule="evenodd" clip-rule="evenodd" d="M100.282 10.0261C50.5908 10.0261 10.3081 50.3088 10.3081 100C10.3081 149.691 50.5908 189.974 100.282 189.974C149.973 189.974 190.256 149.691 190.256 100C190.256 50.3088 149.973 10.0261 100.282 10.0261ZM8.25586 100C8.25586 49.1754 49.4574 7.97388 100.282 7.97388C151.107 7.97388 192.308 49.1754 192.308 100C192.308 150.825 151.107 192.026 100.282 192.026C49.4574 192.026 8.25586 150.825 8.25586 100Z" fill="url(#paint1_linear_9347_9064)"/>
<path d="M80.2285 156.262L81.9124 161.444H87.3614L82.9531 164.647L84.6369 169.829L80.2285 166.626L75.8201 169.829L77.504 164.647L73.0956 161.444H78.5447L80.2285 156.262Z" fill="url(#paint2_linear_9347_9064)"/>
<path d="M101.229 156.262L102.912 161.444H108.361L103.953 164.647L105.637 169.829L101.229 166.626L96.8201 169.829L98.504 164.647L94.0956 161.444H99.5447L101.229 156.262Z" fill="url(#paint3_linear_9347_9064)"/>
<path d="M122.229 156.262L123.912 161.444H129.361L124.953 164.647L126.637 169.829L122.229 166.626L117.82 169.829L119.504 164.647L115.096 161.444H120.545L122.229 156.262Z" fill="url(#paint4_linear_9347_9064)"/>
<g filter="url(#filter0_d_9347_9064)">
<path d="M21.4062 107.987V83.839H38.3852V89.1213H27.962V93.2717H37.3476V98.5541H27.962V107.987H21.4062ZM40.7964 107.987V83.839H51.2196C53.0118 83.839 54.58 84.1652 55.9242 84.8176C57.2684 85.47 58.3138 86.4094 59.0606 87.6357C59.8074 88.8619 60.1807 90.3318 60.1807 92.0455C60.1807 93.7748 59.7956 95.2329 59.0252 96.4199C58.2627 97.6069 57.1898 98.503 55.8063 99.1082C54.4307 99.7135 52.8232 100.016 50.9838 100.016H44.7582V94.9225H49.6632C50.4336 94.9225 51.0899 94.8281 51.6323 94.6395C52.1825 94.443 52.6031 94.1325 52.8939 93.708C53.1926 93.2835 53.342 92.7293 53.342 92.0455C53.342 91.3537 53.1926 90.7917 52.8939 90.3594C52.6031 89.9192 52.1825 89.5969 51.6323 89.3925C51.0899 89.1803 50.4336 89.0741 49.6632 89.0741H47.3522V107.987H40.7964ZM54.9456 96.9033L60.9825 107.987H53.8608L47.9653 96.9033H54.9456ZM62.9752 107.987V83.839H80.3786V89.1213H69.531V93.2717H79.4825V98.5541H69.531V102.704H80.3315V107.987H62.9752ZM83.63 107.987V83.839H101.033V89.1213H90.1857V93.2717H100.137V98.5541H90.1857V102.704H100.986V107.987H83.63ZM117.302 91.3852C117.239 90.5991 116.944 89.986 116.418 89.5458C115.899 89.1056 115.109 88.8855 114.048 88.8855C113.372 88.8855 112.817 88.968 112.385 89.1331C111.961 89.2903 111.646 89.5065 111.442 89.7816C111.237 90.0567 111.131 90.3712 111.123 90.7249C111.108 91.0157 111.159 91.2791 111.277 91.5149C111.403 91.7428 111.599 91.9511 111.866 92.1398C112.134 92.3206 112.476 92.4857 112.892 92.635C113.309 92.7844 113.804 92.918 114.378 93.0359L116.359 93.4604C117.695 93.7434 118.839 94.1167 119.79 94.5805C120.741 95.0443 121.519 95.5906 122.124 96.2195C122.73 96.8404 123.174 97.54 123.457 98.3182C123.748 99.0964 123.897 99.9454 123.905 100.865C123.897 102.453 123.5 103.797 122.714 104.898C121.928 105.998 120.804 106.835 119.342 107.409C117.888 107.983 116.139 108.27 114.095 108.27C111.996 108.27 110.164 107.959 108.6 107.338C107.044 106.717 105.833 105.762 104.969 104.473C104.112 103.176 103.679 101.518 103.672 99.4973H109.897C109.937 100.236 110.121 100.857 110.451 101.36C110.782 101.863 111.245 102.245 111.843 102.504C112.448 102.763 113.167 102.893 114 102.893C114.7 102.893 115.286 102.807 115.757 102.634C116.229 102.461 116.587 102.221 116.83 101.914C117.074 101.608 117.2 101.258 117.208 100.865C117.2 100.496 117.078 100.173 116.842 99.8982C116.614 99.6152 116.237 99.3637 115.71 99.1436C115.184 98.9157 114.472 98.7034 113.576 98.5069L111.171 97.9881C109.033 97.5243 107.346 96.75 106.112 95.6653C104.886 94.5727 104.277 93.0831 104.285 91.1965C104.277 89.6637 104.686 88.3235 105.511 87.1758C106.344 86.0203 107.496 85.1203 108.966 84.4757C110.444 83.8311 112.138 83.5088 114.048 83.5088C115.997 83.5088 117.683 83.835 119.106 84.4875C120.529 85.1399 121.625 86.0596 122.396 87.2466C123.174 88.4256 123.567 89.8052 123.575 91.3852H117.302ZM126.399 107.987V83.839H132.954V93.2717H141.633V83.839H148.188V107.987H141.633V98.5541H132.954V107.987H126.399ZM157.857 83.839V107.987H151.301V83.839H157.857ZM160.964 107.987V83.839H171.387C173.179 83.839 174.747 84.1927 176.092 84.9002C177.436 85.6076 178.481 86.602 179.228 87.8833C179.975 89.1645 180.348 90.662 180.348 92.3756C180.348 94.1049 179.963 95.6024 179.193 96.868C178.43 98.1335 177.357 99.1082 175.974 99.7921C174.598 100.476 172.991 100.818 171.151 100.818H164.926V95.7242H169.831C170.601 95.7242 171.257 95.5906 171.8 95.3233C172.35 95.0482 172.77 94.6591 173.061 94.156C173.36 93.653 173.509 93.0595 173.509 92.3756C173.509 91.6839 173.36 91.0943 173.061 90.607C172.77 90.1117 172.35 89.7344 171.8 89.475C171.257 89.2078 170.601 89.0741 169.831 89.0741H167.52V107.987H160.964Z" fill="white"/>
<path d="M21.4062 107.987V83.839H38.3852V89.1213H27.962V93.2717H37.3476V98.5541H27.962V107.987H21.4062ZM40.7964 107.987V83.839H51.2196C53.0118 83.839 54.58 84.1652 55.9242 84.8176C57.2684 85.47 58.3138 86.4094 59.0606 87.6357C59.8074 88.8619 60.1807 90.3318 60.1807 92.0455C60.1807 93.7748 59.7956 95.2329 59.0252 96.4199C58.2627 97.6069 57.1898 98.503 55.8063 99.1082C54.4307 99.7135 52.8232 100.016 50.9838 100.016H44.7582V94.9225H49.6632C50.4336 94.9225 51.0899 94.8281 51.6323 94.6395C52.1825 94.443 52.6031 94.1325 52.8939 93.708C53.1926 93.2835 53.342 92.7293 53.342 92.0455C53.342 91.3537 53.1926 90.7917 52.8939 90.3594C52.6031 89.9192 52.1825 89.5969 51.6323 89.3925C51.0899 89.1803 50.4336 89.0741 49.6632 89.0741H47.3522V107.987H40.7964ZM54.9456 96.9033L60.9825 107.987H53.8608L47.9653 96.9033H54.9456ZM62.9752 107.987V83.839H80.3786V89.1213H69.531V93.2717H79.4825V98.5541H69.531V102.704H80.3315V107.987H62.9752ZM83.63 107.987V83.839H101.033V89.1213H90.1857V93.2717H100.137V98.5541H90.1857V102.704H100.986V107.987H83.63ZM117.302 91.3852C117.239 90.5991 116.944 89.986 116.418 89.5458C115.899 89.1056 115.109 88.8855 114.048 88.8855C113.372 88.8855 112.817 88.968 112.385 89.1331C111.961 89.2903 111.646 89.5065 111.442 89.7816C111.237 90.0567 111.131 90.3712 111.123 90.7249C111.108 91.0157 111.159 91.2791 111.277 91.5149C111.403 91.7428 111.599 91.9511 111.866 92.1398C112.134 92.3206 112.476 92.4857 112.892 92.635C113.309 92.7844 113.804 92.918 114.378 93.0359L116.359 93.4604C117.695 93.7434 118.839 94.1167 119.79 94.5805C120.741 95.0443 121.519 95.5906 122.124 96.2195C122.73 96.8404 123.174 97.54 123.457 98.3182C123.748 99.0964 123.897 99.9454 123.905 100.865C123.897 102.453 123.5 103.797 122.714 104.898C121.928 105.998 120.804 106.835 119.342 107.409C117.888 107.983 116.139 108.27 114.095 108.27C111.996 108.27 110.164 107.959 108.6 107.338C107.044 106.717 105.833 105.762 104.969 104.473C104.112 103.176 103.679 101.518 103.672 99.4973H109.897C109.937 100.236 110.121 100.857 110.451 101.36C110.782 101.863 111.245 102.245 111.843 102.504C112.448 102.763 113.167 102.893 114 102.893C114.7 102.893 115.286 102.807 115.757 102.634C116.229 102.461 116.587 102.221 116.83 101.914C117.074 101.608 117.2 101.258 117.208 100.865C117.2 100.496 117.078 100.173 116.842 99.8982C116.614 99.6152 116.237 99.3637 115.71 99.1436C115.184 98.9157 114.472 98.7034 113.576 98.5069L111.171 97.9881C109.033 97.5243 107.346 96.75 106.112 95.6653C104.886 94.5727 104.277 93.0831 104.285 91.1965C104.277 89.6637 104.686 88.3235 105.511 87.1758C106.344 86.0203 107.496 85.1203 108.966 84.4757C110.444 83.8311 112.138 83.5088 114.048 83.5088C115.997 83.5088 117.683 83.835 119.106 84.4875C120.529 85.1399 121.625 86.0596 122.396 87.2466C123.174 88.4256 123.567 89.8052 123.575 91.3852H117.302ZM126.399 107.987V83.839H132.954V93.2717H141.633V83.839H148.188V107.987H141.633V98.5541H132.954V107.987H126.399ZM157.857 83.839V107.987H151.301V83.839H157.857ZM160.964 107.987V83.839H171.387C173.179 83.839 174.747 84.1927 176.092 84.9002C177.436 85.6076 178.481 86.602 179.228 87.8833C179.975 89.1645 180.348 90.662 180.348 92.3756C180.348 94.1049 179.963 95.6024 179.193 96.868C178.43 98.1335 177.357 99.1082 175.974 99.7921C174.598 100.476 172.991 100.818 171.151 100.818H164.926V95.7242H169.831C170.601 95.7242 171.257 95.5906 171.8 95.3233C172.35 95.0482 172.77 94.6591 173.061 94.156C173.36 93.653 173.509 93.0595 173.509 92.3756C173.509 91.6839 173.36 91.0943 173.061 90.607C172.77 90.1117 172.35 89.7344 171.8 89.475C171.257 89.2078 170.601 89.0741 169.831 89.0741H167.52V107.987H160.964Z" fill="url(#paint5_linear_9347_9064)"/>
</g>
<g filter="url(#filter1_d_9347_9064)">
<path d="M22.4163 125.805V121.809H38.2933V125.805H32.7988V140.077H27.9108V125.805H22.4163ZM56.9978 130.943C56.9978 132.977 56.6023 134.692 55.8114 136.09C55.0206 137.481 53.9532 138.537 52.6093 139.256C51.2654 139.97 49.7669 140.326 48.1138 140.326C46.4488 140.326 44.9443 139.967 43.6005 139.247C42.2625 138.522 41.1981 137.463 40.4072 136.072C39.6223 134.674 39.2298 132.965 39.2298 130.943C39.2298 128.909 39.6223 127.197 40.4072 125.805C41.1981 124.408 42.2625 123.352 43.6005 122.639C44.9443 121.919 46.4488 121.559 48.1138 121.559C49.7669 121.559 51.2654 121.919 52.6093 122.639C53.9532 123.352 55.0206 124.408 55.8114 125.805C56.6023 127.197 56.9978 128.909 56.9978 130.943ZM51.8957 130.943C51.8957 129.849 51.75 128.927 51.4587 128.178C51.1732 127.423 50.7481 126.852 50.1831 126.465C49.6242 126.073 48.9344 125.877 48.1138 125.877C47.2932 125.877 46.6004 126.073 46.0355 126.465C45.4765 126.852 45.0514 127.423 44.76 128.178C44.4746 128.927 44.3319 129.849 44.3319 130.943C44.3319 132.037 44.4746 132.962 44.76 133.717C45.0514 134.466 45.4765 135.037 46.0355 135.43C46.6004 135.816 47.2932 136.009 48.1138 136.009C48.9344 136.009 49.6242 135.816 50.1831 135.43C50.7481 135.037 51.1732 134.466 51.4587 133.717C51.75 132.962 51.8957 132.037 51.8957 130.943ZM62.8847 140.077H57.5329L63.5626 121.809H70.3415L76.3712 140.077H71.0194L67.0234 126.84H66.8807L62.8847 140.077ZM61.8857 132.87H71.9471V136.58H61.8857V132.87ZM65.3465 120.097L62.6706 116.101H66.8807L68.5933 120.097H65.3465ZM93.9362 121.809V140.077H89.7975L83.197 130.479H83.0899V140.077H78.1306V121.809H82.3407L88.8342 131.371H88.9769V121.809H93.9362ZM108.35 133.298H112.204L113.595 135.046L115.95 137.722L119.018 141.432H114.63L112.453 138.899L110.991 136.794L108.35 133.298ZM118.983 130.943C118.983 132.977 118.587 134.692 117.796 136.09C117.005 137.481 115.938 138.537 114.594 139.256C113.25 139.97 111.752 140.326 110.099 140.326C108.434 140.326 106.929 139.967 105.585 139.247C104.247 138.522 103.183 137.463 102.392 136.072C101.607 134.674 101.215 132.965 101.215 130.943C101.215 128.909 101.607 127.197 102.392 125.805C103.183 124.408 104.247 123.352 105.585 122.639C106.929 121.919 108.434 121.559 110.099 121.559C111.752 121.559 113.25 121.919 114.594 122.639C115.938 123.352 117.005 124.408 117.796 125.805C118.587 127.197 118.983 128.909 118.983 130.943ZM113.881 130.943C113.881 129.849 113.735 128.927 113.443 128.178C113.158 127.423 112.733 126.852 112.168 126.465C111.609 126.073 110.919 125.877 110.099 125.877C109.278 125.877 108.585 126.073 108.02 126.465C107.461 126.852 107.036 127.423 106.745 128.178C106.459 128.927 106.317 129.849 106.317 130.943C106.317 132.037 106.459 132.962 106.745 133.717C107.036 134.466 107.461 135.037 108.02 135.43C108.585 135.816 109.278 136.009 110.099 136.009C110.919 136.009 111.609 135.816 112.168 135.43C112.733 135.037 113.158 134.466 113.443 133.717C113.735 132.962 113.881 132.037 113.881 130.943ZM132.112 121.809H137.072V133.512C137.072 134.903 136.739 136.107 136.073 137.124C135.413 138.135 134.491 138.917 133.308 139.47C132.124 140.017 130.751 140.291 129.187 140.291C127.611 140.291 126.231 140.017 125.048 139.47C123.865 138.917 122.943 138.135 122.283 137.124C121.629 136.107 121.302 134.903 121.302 133.512V121.809H126.261V133.084C126.261 133.649 126.386 134.154 126.636 134.6C126.885 135.04 127.23 135.385 127.67 135.635C128.116 135.884 128.622 136.009 129.187 136.009C129.758 136.009 130.263 135.884 130.703 135.635C131.143 135.385 131.488 135.04 131.738 134.6C131.987 134.154 132.112 133.649 132.112 133.084V121.809ZM157.125 130.943C157.125 132.977 156.73 134.692 155.939 136.09C155.148 137.481 154.081 138.537 152.737 139.256C151.393 139.97 149.894 140.326 148.241 140.326C146.576 140.326 145.072 139.967 143.728 139.247C142.39 138.522 141.326 137.463 140.535 136.072C139.75 134.674 139.357 132.965 139.357 130.943C139.357 128.909 139.75 127.197 140.535 125.805C141.326 124.408 142.39 123.352 143.728 122.639C145.072 121.919 146.576 121.559 148.241 121.559C149.894 121.559 151.393 121.919 152.737 122.639C154.081 123.352 155.148 124.408 155.939 125.805C156.73 127.197 157.125 128.909 157.125 130.943ZM152.023 130.943C152.023 129.849 151.877 128.927 151.586 128.178C151.301 127.423 150.876 126.852 150.311 126.465C149.752 126.073 149.062 125.877 148.241 125.877C147.421 125.877 146.728 126.073 146.163 126.465C145.604 126.852 145.179 127.423 144.887 128.178C144.602 128.927 144.459 129.849 144.459 130.943C144.459 132.037 144.602 132.962 144.887 133.717C145.179 134.466 145.604 135.037 146.163 135.43C146.728 135.816 147.421 136.009 148.241 136.009C149.062 136.009 149.752 135.816 150.311 135.43C150.876 135.037 151.301 134.466 151.586 133.717C151.877 132.962 152.023 132.037 152.023 130.943ZM143.567 120.453L147.135 117.992H149.24L152.844 120.453H149.99L148.206 119.205L146.386 120.453H143.567ZM151.916 119.276L154.235 115.851H157.411L154.271 119.276H151.916ZM176.474 128.66H171.443C171.408 128.243 171.313 127.866 171.158 127.527C171.009 127.188 170.801 126.896 170.534 126.653C170.272 126.403 169.954 126.213 169.579 126.082C169.205 125.945 168.779 125.877 168.304 125.877C167.471 125.877 166.767 126.079 166.19 126.483C165.619 126.887 165.185 127.467 164.888 128.222C164.596 128.978 164.45 129.884 164.45 130.943C164.45 132.061 164.599 132.997 164.896 133.753C165.2 134.502 165.637 135.067 166.208 135.447C166.779 135.822 167.465 136.009 168.268 136.009C168.726 136.009 169.136 135.953 169.499 135.84C169.862 135.721 170.177 135.551 170.444 135.331C170.712 135.111 170.929 134.847 171.096 134.538C171.268 134.222 171.384 133.869 171.443 133.476L176.474 133.512C176.415 134.285 176.198 135.073 175.823 135.876C175.448 136.672 174.916 137.41 174.226 138.088C173.543 138.76 172.695 139.301 171.684 139.711C170.673 140.121 169.499 140.326 168.161 140.326C166.484 140.326 164.98 139.967 163.648 139.247C162.322 138.528 161.272 137.469 160.499 136.072C159.732 134.674 159.348 132.965 159.348 130.943C159.348 128.909 159.741 127.197 160.526 125.805C161.311 124.408 162.369 123.352 163.701 122.639C165.033 121.919 166.52 121.559 168.161 121.559C169.315 121.559 170.376 121.717 171.345 122.032C172.315 122.347 173.165 122.808 173.896 123.415C174.628 124.015 175.216 124.756 175.662 125.636C176.108 126.516 176.379 127.524 176.474 128.66Z" fill="white"/>
</g>
<path d="M93.1442 65.8934C95.6435 63.5635 96.0283 59.9142 94.0038 57.7423C91.9792 55.5705 88.3119 55.6986 85.8125 58.0284C83.3132 60.3582 82.9283 64.0076 84.9529 66.1794C86.9775 68.3513 90.6448 68.2232 93.1442 65.8934Z" fill="url(#paint6_linear_9347_9064)"/>
<path d="M126.213 65.8958C128.712 63.566 129.097 59.9166 127.072 57.7448C125.048 55.5729 121.38 55.701 118.881 58.0308C116.382 60.3607 115.997 64.01 118.021 66.1819C120.046 68.3537 123.713 68.2256 126.213 65.8958Z" fill="url(#paint7_linear_9347_9064)"/>
<path d="M66.9165 37.3783C66.9165 35.936 65.7473 34.7667 64.3049 34.7667C62.8626 34.7667 61.6934 35.936 61.6934 37.3783C61.6934 38.8206 62.8626 39.9899 64.3049 39.9899C65.7473 39.9899 66.9165 38.8206 66.9165 37.3783Z" fill="url(#paint8_linear_9347_9064)"/>
<path d="M113.86 61.4147C114.788 56.8263 119.123 53.18 123.782 53.18C128.268 53.18 131.501 56.5617 131.412 60.91C136.264 61.037 137.614 54.6483 137.614 54.6483C138.023 52.8619 138.633 49.3793 139.144 45.9609C139.311 44.9055 139.183 43.8244 138.772 42.8377C137.504 39.8773 135.971 37.0373 134.193 34.3522C132.511 31.8423 129.689 30.3557 126.468 30.3021C124.547 30.2716 122.661 30.2532 121.237 30.2532L121.225 30.241C121.041 27.1698 118.802 24.8174 115.659 24.536C113.614 24.354 105.514 24.2209 101.626 24.2209C100.081 24.2209 97.8648 24.2424 95.6226 24.2791V24.2699H95.6042H68.6457C68.3026 24.2697 67.9628 24.3371 67.6458 24.4683C67.3287 24.5995 67.0407 24.792 66.798 25.0346C66.5554 25.2772 66.363 25.5653 66.2318 25.8823C66.1006 26.1993 66.0332 26.5391 66.0334 26.8822V26.8945C66.0334 27.5841 66.3073 28.2454 66.7949 28.733C67.2825 29.2206 67.9439 29.4946 68.6335 29.4946H74.0677C74.722 29.5428 75.334 29.8367 75.7807 30.3172C76.2275 30.7977 76.4761 31.4294 76.4766 32.0855V32.0993C76.4776 32.4427 76.4109 32.783 76.2803 33.1006C76.1496 33.4182 75.9576 33.707 75.7153 33.9503C75.4729 34.1937 75.185 34.3869 74.8679 34.5188C74.5508 34.6508 74.2108 34.7189 73.8673 34.7193H71.0806C70.3882 34.7193 69.7241 34.9943 69.2345 35.484C68.7449 35.9736 68.4698 36.6377 68.4698 37.3301C68.4696 37.6731 68.537 38.0127 68.6681 38.3297C68.7992 38.6466 68.9915 38.9346 69.234 39.1772C69.4764 39.4198 69.7643 39.6122 70.0812 39.7435C70.398 39.8748 70.7376 39.9424 71.0806 39.9424H73.8673C74.5602 39.9424 75.2246 40.2177 75.7145 40.7076C76.2044 41.1975 76.4797 41.8619 76.4797 42.5548C76.4797 43.2476 76.2044 43.9121 75.7145 44.402C75.2246 44.8919 74.5602 45.1671 73.8673 45.1671H63.4424C62.7499 45.1671 62.0856 45.4421 61.5958 45.9317C61.1059 46.4213 60.8305 47.0854 60.8301 47.7779C60.8301 48.4708 61.1053 49.1352 61.5952 49.6251C62.0851 50.1151 62.7496 50.3903 63.4424 50.3903H73.8673C74.5602 50.3903 75.2246 50.6655 75.7145 51.1554C76.2044 51.6453 76.4797 52.3098 76.4797 53.0026C76.4789 53.6949 76.2033 54.3586 75.7135 54.8479C75.2236 55.3371 74.5596 55.6119 73.8673 55.6119H70.6432C69.9508 55.6119 69.2867 55.887 68.7971 56.3766C68.3074 56.8662 68.0324 57.5303 68.0324 58.2227C68.0324 58.9153 68.3074 59.5795 68.797 60.0694C69.2866 60.5593 69.9506 60.8347 70.6432 60.8351L80.9305 60.8274L81.7854 58.6969C83.5367 55.4666 87.0208 53.1785 90.7099 53.1785C95.3702 53.1785 98.68 56.8278 98.316 61.4193H113.859M87.9492 35.9352H84.4437C84.4403 35.9355 84.4372 35.9368 84.4347 35.939C84.4322 35.9412 84.4305 35.9442 84.4299 35.9474L84.1072 38.2417C84.1067 38.2435 84.1067 38.2454 84.1071 38.2473C84.1075 38.2491 84.1083 38.2509 84.1095 38.2524C84.1107 38.2538 84.1122 38.255 84.1139 38.2558C84.1156 38.2566 84.1175 38.257 84.1194 38.2569H86.7287C86.8568 38.2533 86.984 38.2783 87.1012 38.3301C87.2184 38.3819 87.3226 38.4592 87.4061 38.5563C87.4896 38.6535 87.5504 38.7681 87.5841 38.8917C87.6177 39.0153 87.6233 39.1449 87.6005 39.271C87.5558 39.5481 87.4159 39.801 87.2048 39.9861C86.9938 40.1712 86.7248 40.2769 86.4442 40.285H83.8319C83.8287 40.285 83.8256 40.286 83.8231 40.2879C83.8206 40.2899 83.8188 40.2926 83.8181 40.2957L83.3501 43.6285C83.3054 43.9056 83.1655 44.1585 82.9544 44.3435C82.7434 44.5286 82.4744 44.6344 82.1938 44.6425C82.0658 44.6462 81.9385 44.6212 81.8214 44.5694C81.7043 44.5176 81.6002 44.4403 81.5168 44.3431C81.4333 44.2459 81.3727 44.1313 81.3393 44.0077C81.3058 43.884 81.3005 43.7545 81.3235 43.6285L82.5379 34.9839C82.5861 34.6912 82.7344 34.4244 82.9576 34.229C83.1809 34.0337 83.465 33.9221 83.7615 33.9132H88.2322C88.3602 33.9095 88.4874 33.9345 88.6046 33.9863C88.7217 34.0381 88.8258 34.1154 88.9092 34.2126C88.9926 34.3098 89.0533 34.4244 89.0867 34.5481C89.1201 34.6717 89.1255 34.8013 89.1024 34.9273C89.0571 35.203 88.9172 35.4544 88.7068 35.6383C88.4964 35.8222 88.2286 35.9272 87.9492 35.9352ZM97.3188 34.6015C97.683 34.9246 97.9392 35.3517 98.0529 35.8251C98.1801 36.3614 98.2009 36.9174 98.1141 37.4616C98.0078 38.3085 97.6612 39.1073 97.1154 39.7635C96.7821 40.1576 96.3587 40.4655 95.8811 40.6613C95.8789 40.6636 95.8777 40.6666 95.8777 40.6697C95.8777 40.6728 95.8789 40.6758 95.8811 40.6781L96.7498 43.1849C96.9838 43.8579 96.3828 44.6425 95.6348 44.6425H95.5859C95.4044 44.6478 95.226 44.5953 95.0764 44.4924C94.9268 44.3896 94.8139 44.2418 94.7539 44.0705L93.7031 41.0115C93.7016 41.0092 93.6996 41.0073 93.6972 41.006C93.6948 41.0047 93.6921 41.0039 93.6893 41.0039H91.4563C91.4532 41.0041 91.4502 41.0052 91.4478 41.0071C91.4453 41.009 91.4435 41.0116 91.4425 41.0146L91.0755 43.6269C91.0308 43.9041 90.8908 44.1569 90.6798 44.342C90.4687 44.5271 90.1998 44.6328 89.9192 44.641C89.7912 44.6447 89.6639 44.6197 89.5468 44.5679C89.4296 44.5161 89.3256 44.4388 89.2421 44.3416C89.1587 44.2444 89.0981 44.1298 89.0646 44.0061C89.0312 43.8825 89.0258 43.7529 89.0489 43.6269L90.2633 34.9823C90.3114 34.6897 90.4598 34.4228 90.683 34.2275C90.9062 34.0322 91.1904 33.9205 91.4869 33.9117H94.9435C94.9435 33.9117 96.4608 33.8643 97.3188 34.6015ZM106.832 34.8554C106.791 35.1142 106.66 35.3505 106.463 35.5233C106.266 35.6962 106.014 35.7948 105.752 35.8021H101.731C101.728 35.8023 101.725 35.8034 101.723 35.8053C101.72 35.8073 101.718 35.8099 101.718 35.8128L101.398 38.0826C101.397 38.0844 101.397 38.0864 101.398 38.0882C101.398 38.0901 101.399 38.0918 101.4 38.0933C101.401 38.0948 101.403 38.096 101.405 38.0968C101.406 38.0976 101.408 38.0979 101.41 38.0979H104.533C104.653 38.0943 104.772 38.1176 104.881 38.1659C104.991 38.2142 105.088 38.2864 105.166 38.3771C105.244 38.4679 105.301 38.5749 105.332 38.6904C105.363 38.8059 105.368 38.9269 105.347 39.0446C105.305 39.3035 105.175 39.5397 104.978 39.7126C104.781 39.8854 104.529 39.984 104.267 39.9914H101.142C101.139 39.9915 101.136 39.9927 101.134 39.9946C101.131 39.9965 101.13 39.9991 101.129 40.0021L100.745 42.7337C100.745 42.7375 100.746 42.7412 100.749 42.744C100.751 42.7469 100.755 42.7486 100.759 42.749H104.777C104.896 42.7455 105.015 42.7687 105.124 42.817C105.234 42.8653 105.331 42.9375 105.409 43.0283C105.487 43.119 105.544 43.226 105.575 43.3415C105.607 43.457 105.612 43.578 105.59 43.6958C105.549 43.9546 105.418 44.1909 105.221 44.3637C105.024 44.5365 104.772 44.6351 104.51 44.6425H99.5243C99.3898 44.6444 99.2565 44.6167 99.1338 44.5613C99.0112 44.5059 98.9022 44.4243 98.8147 44.3221C98.7271 44.22 98.6631 44.0998 98.6271 43.9702C98.5912 43.8405 98.5842 43.7045 98.6066 43.5719L99.8134 34.9885C99.8615 34.6958 100.01 34.4289 100.233 34.2336C100.456 34.0383 100.74 33.9267 101.037 33.9178H106.022C106.14 33.915 106.258 33.9384 106.366 33.9864C106.474 34.0344 106.57 34.1058 106.648 34.1954C106.725 34.285 106.782 34.3907 106.814 34.5048C106.846 34.6189 106.852 34.7386 106.832 34.8554ZM115.185 34.8554C115.143 35.1142 115.012 35.3505 114.815 35.5233C114.618 35.6962 114.367 35.7948 114.105 35.8021H110.084C110.081 35.8023 110.078 35.8034 110.075 35.8053C110.073 35.8073 110.071 35.8099 110.07 35.8128L109.752 38.0826C109.751 38.0844 109.751 38.0864 109.752 38.0882C109.752 38.0901 109.753 38.0918 109.754 38.0933C109.755 38.0948 109.757 38.096 109.759 38.0968C109.76 38.0976 109.762 38.0979 109.764 38.0979H112.887C113.007 38.0943 113.126 38.1176 113.235 38.1659C113.345 38.2142 113.442 38.2864 113.52 38.3771C113.598 38.4679 113.655 38.5749 113.686 38.6904C113.717 38.8059 113.722 38.9269 113.701 39.0446C113.659 39.3035 113.529 39.5397 113.332 39.7126C113.135 39.8854 112.883 39.984 112.621 39.9914H109.495C109.492 39.9915 109.489 39.9927 109.486 39.9946C109.484 39.9965 109.482 39.9991 109.481 40.0021L109.097 42.7337C109.097 42.7375 109.099 42.7412 109.101 42.744C109.104 42.7469 109.107 42.7486 109.111 42.749H113.129C113.249 42.7455 113.367 42.7687 113.477 42.817C113.586 42.8653 113.684 42.9375 113.762 43.0283C113.84 43.119 113.896 43.226 113.928 43.3415C113.959 43.457 113.964 43.578 113.943 43.6958C113.901 43.9546 113.77 44.1909 113.573 44.3637C113.376 44.5365 113.125 44.6351 112.863 44.6425H107.877C107.742 44.6444 107.609 44.6167 107.486 44.5613C107.364 44.5059 107.255 44.4243 107.167 44.3221C107.08 44.22 107.016 44.0998 106.98 43.9702C106.944 43.8405 106.937 43.7045 106.959 43.5719L108.166 34.9885C108.214 34.6958 108.362 34.4289 108.586 34.2336C108.809 34.0383 109.093 33.9267 109.389 33.9178H114.374C114.492 33.915 114.61 33.9384 114.718 33.9864C114.827 34.0344 114.923 34.1058 115 34.1954C115.078 34.285 115.135 34.3907 115.166 34.5048C115.198 34.6189 115.204 34.7386 115.185 34.8554ZM120.997 33.875C122.362 33.875 124.131 33.8934 125.905 33.9224C128.055 33.9576 129.936 34.9456 131.065 36.6311C132.271 38.4487 133.355 40.3444 134.309 42.3055C134.814 43.3333 133.886 44.6716 132.67 44.6716H119.631L120.997 33.875Z" fill="url(#paint9_linear_9347_9064)"/>
<path d="M94.1256 39.112H91.709L92.1678 35.8022H94.5829C94.5829 35.8022 96.3555 35.6875 96.0649 37.4571C96.0726 37.4571 95.8692 39.112 94.1256 39.112Z" fill="url(#paint10_linear_9347_9064)"/>
<defs>
<filter id="filter0_d_9347_9064" x="20.6281" y="83.5088" width="160.498" height="26.3173" filterUnits="userSpaceOnUse" color-interpolation-filters="sRGB">
<feFlood flood-opacity="0" result="BackgroundImageFix"/>
<feColorMatrix in="SourceAlpha" type="matrix" values="0 0 0 0 0 0 0 0 0 0 0 0 0 0 0 0 0 0 127 0" result="hardAlpha"/>
<feOffset dy="0.778157"/>
<feGaussianBlur stdDeviation="0.389078"/>
<feColorMatrix type="matrix" values="0 0 0 0 0 0 0 0 0 0 0 0 0 0 0 0 0 0 0.3 0"/>
<feBlend mode="normal" in2="BackgroundImageFix" result="effect1_dropShadow_9347_9064"/>
<feBlend mode="normal" in="SourceGraphic" in2="effect1_dropShadow_9347_9064" result="shape"/>
</filter>
<filter id="filter1_d_9347_9064" x="21.6937" y="115.851" width="155.503" height="27.0261" filterUnits="userSpaceOnUse" color-interpolation-filters="sRGB">
<feFlood flood-opacity="0" result="BackgroundImageFix"/>
<feColorMatrix in="SourceAlpha" type="matrix" values="0 0 0 0 0 0 0 0 0 0 0 0 0 0 0 0 0 0 127 0" result="hardAlpha"/>
<feOffset dy="0.722267"/>
<feGaussianBlur stdDeviation="0.361134"/>
<feColorMatrix type="matrix" values="0 0 0 0 0 0 0 0 0 0 0 0 0 0 0 0 0 0 0.3 0"/>
<feBlend mode="normal" in2="BackgroundImageFix" result="effect1_dropShadow_9347_9064"/>
<feBlend mode="normal" in="SourceGraphic" in2="effect1_dropShadow_9347_9064" result="shape"/>
</filter>
<linearGradient id="paint0_linear_9347_9064" x1="100.281" y1="0" x2="100.281" y2="200" gradientUnits="userSpaceOnUse">
<stop stop-color="#FBF9EB"/>
<stop offset="1" stop-color="#F3C78F"/>
</linearGradient>
<linearGradient id="paint1_linear_9347_9064" x1="-39.718" y1="74.3255" x2="135.282" y2="74.3255" gradientUnits="userSpaceOnUse">
<stop stop-color="#FBF8E0"/>
<stop offset="1" stop-color="#DCAF75"/>
</linearGradient>
<linearGradient id="paint2_linear_9347_9064" x1="80.2285" y1="156.262" x2="80.2285" y2="171.262" gradientUnits="userSpaceOnUse">
<stop stop-color="#FBF9EB"/>
<stop offset="1" stop-color="#F3C78F"/>
</linearGradient>
<linearGradient id="paint3_linear_9347_9064" x1="101.229" y1="156.262" x2="101.229" y2="171.262" gradientUnits="userSpaceOnUse">
<stop stop-color="#FBF9EB"/>
<stop offset="1" stop-color="#F3C78F"/>
</linearGradient>
<linearGradient id="paint4_linear_9347_9064" x1="122.229" y1="156.262" x2="122.229" y2="171.262" gradientUnits="userSpaceOnUse">
<stop stop-color="#FBF9EB"/>
<stop offset="1" stop-color="#F3C78F"/>
</linearGradient>
<linearGradient id="paint5_linear_9347_9064" x1="100.523" y1="78.9868" x2="100.523" y2="111.987" gradientUnits="userSpaceOnUse">
<stop stop-color="#FBF9EB"/>
<stop offset="1" stop-color="#F3C78F"/>
</linearGradient>
<linearGradient id="paint6_linear_9347_9064" x1="93.4471" y1="57.0249" x2="84.2209" y2="65.6612" gradientUnits="userSpaceOnUse">
<stop stop-color="#FFD69E"/>
<stop offset="1" stop-color="#FFD4B7"/>
</linearGradient>
<linearGradient id="paint7_linear_9347_9064" x1="126.515" y1="57.0274" x2="117.289" y2="65.6637" gradientUnits="userSpaceOnUse">
<stop stop-color="#FFD69E"/>
<stop offset="1" stop-color="#FFD4B7"/>
</linearGradient>
<linearGradient id="paint8_linear_9347_9064" x1="66.9511" y1="36.939" x2="61.6165" y2="36.9486" gradientUnits="userSpaceOnUse">
<stop stop-color="#FFD69E"/>
<stop offset="1" stop-color="#FFD4B7"/>
</linearGradient>
<linearGradient id="paint9_linear_9347_9064" x1="139.735" y1="39.6915" x2="59.6772" y2="39.9945" gradientUnits="userSpaceOnUse">
<stop stop-color="#FFD69E"/>
<stop offset="1" stop-color="#FFD4B7"/>
</linearGradient>
<linearGradient id="paint10_linear_9347_9064" x1="96.1262" y1="37.1778" x2="91.6444" y2="37.1885" gradientUnits="userSpaceOnUse">
<stop stop-color="#FFD69E"/>
<stop offset="1" stop-color="#FFD4B7"/>
</linearGradient>
</defs>
</svg>
