<svg width="24" height="24" viewBox="0 0 24 24" fill="none" xmlns="http://www.w3.org/2000/svg">
<path d="M8.8877 9.86138C8.65113 9.62481 8.65113 9.24126 8.8877 9.00469C9.12427 8.76812 9.50782 8.76812 9.74439 9.00469L12.4309 11.6912C12.6675 11.9278 12.6675 12.3113 12.4309 12.5479C12.1944 12.7845 11.8108 12.7845 11.5742 12.5479L8.8877 9.86138Z" fill="#DC2626"/>
<path d="M15.333 7.93248C15.5695 7.69591 15.9531 7.69591 16.1897 7.93248C16.4262 8.16905 16.4262 8.55261 16.1897 8.78918L12.4309 12.5479C12.1944 12.7845 11.8108 12.7845 11.5742 12.5479C11.3377 12.3113 11.3377 11.9278 11.5742 11.6912L15.333 7.93248Z" fill="#DC2626"/>
<path fill-rule="evenodd" clip-rule="evenodd" d="M16.1546 0C16.6059 0.00013783 16.9979 0.311702 17.0992 0.751538L18.3363 6.12589C19.7669 7.66755 20.643 9.73097 20.643 12C20.643 14.2688 19.7666 16.3316 18.3363 17.8732L17.1096 23.2002C17.0012 23.6698 16.6077 23.9999 16.1555 24H7.85453C7.40219 24 7.00786 23.6699 6.89949 23.2002L5.67374 17.8779C4.24101 16.3358 3.36328 14.271 3.36328 12C3.36328 9.72903 4.24004 7.66324 5.67279 6.12115L6.91084 0.751538C7.0122 0.311675 7.4041 8.86275e-05 7.85547 0H16.1546ZM16.7622 19.2097C15.3973 20.1125 13.7622 20.6398 12.0031 20.6398C10.2446 20.6398 8.6097 20.113 7.24497 19.2106L8.04762 22.6853H15.9624L16.7622 19.2097ZM12.0031 4.5717C7.90059 4.5717 4.57483 7.89746 4.57483 12C4.57483 16.1025 7.90059 19.4283 12.0031 19.4283C16.1057 19.4283 19.4314 16.1025 19.4314 12C19.4314 7.89746 16.1057 4.5717 12.0031 4.5717ZM7.24497 4.78845C8.60961 3.88625 10.2448 3.36015 12.0031 3.36015C13.7624 3.36015 15.3981 3.88726 16.7632 4.79035L15.9624 1.31472H8.04762L7.24497 4.78845Z" fill="black"/>
<path d="M20.9989 10.7979C20.9989 10.4634 21.2701 10.1921 21.6046 10.1921C21.9392 10.1921 22.2104 10.4634 22.2104 10.7979V13.2021C22.2104 13.5366 21.9392 13.8079 21.6046 13.8079C21.2701 13.8079 20.9989 13.5366 20.9989 13.2021V10.7979Z" fill="#DC2626"/>
</svg>
