<svg width="25" height="24" viewBox="0 0 25 24" fill="none" xmlns="http://www.w3.org/2000/svg">
<path d="M13.5914 16.8039C13.9298 16.8039 14.2042 17.0783 14.2042 17.4167C14.2042 17.7552 13.9298 18.0296 13.5914 18.0296H10.6597C10.3213 18.0296 10.0468 17.7552 10.0468 17.4167C10.0469 17.0783 10.3213 16.8039 10.6597 16.8039H13.5914Z" fill="#DC2626"/>
<path d="M9.56471 5.47689C9.90313 5.47692 10.1776 5.75132 10.1776 6.08975V9.71101C10.1776 10.0494 9.90313 10.3238 9.56471 10.3239C9.22626 10.3239 8.95185 10.0495 8.95185 9.71101V6.08975C8.95185 5.7513 9.22626 5.47689 9.56471 5.47689Z" fill="#DC2626"/>
<path d="M14.6873 5.47689C15.0258 5.47692 15.3002 5.75132 15.3002 6.08975V9.71101C15.3002 10.0494 15.0258 10.3238 14.6873 10.3239C14.3489 10.3239 14.0745 10.0495 14.0745 9.71101V6.08975C14.0745 5.7513 14.3489 5.47689 14.6873 5.47689Z" fill="#DC2626"/>
<path fill-rule="evenodd" clip-rule="evenodd" d="M17.0706 4.48871e-06C17.3348 4.1027e-06 17.5698 -0.000684479 17.7639 0.0151602C17.9652 0.0316031 18.176 0.068733 18.3815 0.173348C18.6812 0.326009 18.925 0.570017 19.0778 0.869563C19.1825 1.07521 19.2204 1.28671 19.2369 1.4881C19.2527 1.68223 19.252 1.91727 19.252 2.18148V21.38C19.252 21.6442 19.2518 21.8792 19.2359 22.0733C19.2195 22.2747 19.1825 22.4862 19.0778 22.6919C18.925 22.9915 18.6812 23.2354 18.3815 23.3881C18.176 23.4928 17.9652 23.5298 17.7639 23.5463C17.7454 23.5478 17.7264 23.5469 17.7071 23.5482C17.6959 23.7993 17.4911 23.9998 17.2373 24H15.5398C15.2905 23.9998 15.0888 23.8063 15.071 23.5614H9.18108C9.16324 23.8063 8.96154 23.9998 8.7122 24H7.01477C6.76089 23.9998 6.55523 23.7993 6.54399 23.5482C6.52506 23.547 6.50633 23.5478 6.4881 23.5463C6.28671 23.5298 6.07521 23.4929 5.86956 23.3881C5.56994 23.2354 5.32607 22.9915 5.17335 22.6919C5.06857 22.4862 5.03161 22.2747 5.01516 22.0733C4.99932 21.8792 5 21.6442 5 21.38V2.18148C5 1.91727 4.99932 1.68223 5.01516 1.4881C5.03162 1.28671 5.06856 1.07521 5.17335 0.869563C5.32607 0.569935 5.56993 0.326073 5.86956 0.173348C6.07521 0.0685629 6.28671 0.0316156 6.4881 0.0151602C6.68223 -0.000676179 6.91727 4.24685e-06 7.18148 4.48871e-06H17.0706ZM6.22572 21.38C6.22572 21.6645 6.22624 21.8411 6.23709 21.9739C6.2472 22.0976 6.26304 22.1301 6.26551 22.1349C6.30075 22.2041 6.35736 22.2607 6.42653 22.2959C6.4313 22.2984 6.46367 22.3142 6.58756 22.3243C6.72029 22.3352 6.89692 22.3357 7.18148 22.3357H17.0706C17.355 22.3357 17.5318 22.3352 17.6645 22.3243C17.7897 22.3141 17.8214 22.298 17.8255 22.2959C17.8946 22.2607 17.9504 22.204 17.9856 22.1349C17.9877 22.1308 18.0047 22.0994 18.015 21.9739C18.0258 21.8411 18.0263 21.6645 18.0263 21.38V15.7998H6.22572V21.38ZM7.18148 1.22572C6.89692 1.22572 6.72029 1.22624 6.58756 1.23709C6.46367 1.24721 6.4313 1.26308 6.42653 1.26551C6.35736 1.30076 6.30076 1.35736 6.26551 1.42653C6.26308 1.4313 6.24721 1.46367 6.23709 1.58756C6.22624 1.72029 6.22572 1.89692 6.22572 2.18148V14.5713H11.5132V1.22572H7.18148ZM12.7389 14.5713H18.0263V2.18148C18.0263 1.89692 18.0258 1.72029 18.015 1.58756C18.0049 1.46416 17.9891 1.4315 17.9865 1.42653C17.9513 1.35736 17.8947 1.30075 17.8255 1.26551C17.8211 1.26326 17.7892 1.24729 17.6645 1.23709C17.5318 1.22625 17.355 1.22572 17.0706 1.22572H12.7389V14.5713Z" fill="black"/>
</svg>
