<svg width="24" height="24" viewBox="0 0 24 24" fill="none" xmlns="http://www.w3.org/2000/svg">
<path d="M19.7998 0C20.9199 0 21.4804 -0.000213531 21.9082 0.217773C22.2845 0.409508 22.5905 0.715544 22.7822 1.0918C23.0002 1.51962 23 2.08009 23 3.2002V20.7998C23 21.9199 23.0002 22.4804 22.7822 22.9082L22.7051 23.0459C22.5129 23.3592 22.2374 23.6145 21.9082 23.7822L21.7402 23.8535C21.3311 23.9995 20.7798 24 19.7998 24H4.2002L3.45801 23.9971C2.91644 23.9886 2.55193 23.9578 2.25977 23.8535L2.0918 23.7822C1.76256 23.6145 1.48707 23.3592 1.29492 23.0459L1.21777 22.9082C0.999786 22.4804 1 21.9199 1 20.7998V3.2002C1 2.08009 0.999786 1.51962 1.21777 1.0918C1.40951 0.715544 1.71554 0.409508 2.0918 0.217773C2.41263 0.0543026 2.80803 0.0131539 3.45801 0.00292969L4.2002 0H19.7998ZM2.25 19.1172V20.7998C2.25 21.3804 2.25132 21.7409 2.27344 22.0117C2.29437 22.2679 2.32779 22.3325 2.33203 22.3408C2.40388 22.4816 2.51836 22.5961 2.65918 22.668C2.66751 22.6722 2.73208 22.7056 2.98828 22.7266C3.25907 22.7487 3.61956 22.75 4.2002 22.75H19.7998C20.3804 22.75 20.7409 22.7487 21.0117 22.7266C21.2679 22.7056 21.3325 22.6722 21.3408 22.668C21.4816 22.5961 21.5961 22.4816 21.668 22.3408C21.6722 22.3325 21.7056 22.2679 21.7266 22.0117C21.7487 21.7409 21.75 21.3804 21.75 20.7998V19.1172H2.25ZM4.2002 1.25C3.61956 1.25 3.25907 1.25132 2.98828 1.27344C2.73208 1.29437 2.66751 1.32779 2.65918 1.33203C2.51836 1.40388 2.40388 1.51836 2.33203 1.65918C2.32779 1.66751 2.29437 1.73208 2.27344 1.98828C2.25132 2.25907 2.25 2.61956 2.25 3.2002V17.8672H21.75V3.2002C21.75 2.61956 21.7487 2.25907 21.7266 1.98828C21.7056 1.73208 21.6722 1.66751 21.668 1.65918C21.5961 1.51836 21.4816 1.40388 21.3408 1.33203C21.3325 1.32779 21.2679 1.29437 21.0117 1.27344C20.7409 1.25132 20.3804 1.25 19.7998 1.25H4.2002Z" fill="black"/>
<circle cx="12.002" cy="9.64062" r="6.50977" stroke="#DC2626" stroke-width="1.25"/>
<circle cx="12.002" cy="9.64062" r="4.10352" stroke="#DC2626" stroke-width="1.25"/>
<circle cx="12.002" cy="9.64062" r="1.69336" stroke="#DC2626" stroke-width="1.25"/>
<circle cx="18.9277" cy="20.9707" r="1.14648" fill="#DC2626"/>
<rect x="3.66016" y="20.3457" width="12.5586" height="1.25" rx="0.625" fill="#DC2626"/>
</svg>
