<svg width="24" height="24" viewBox="0 0 24 24" fill="none" xmlns="http://www.w3.org/2000/svg">
<path d="M16.2266 2.05566C16.5369 2.61578 16.6477 3.29041 16.5156 4.06738C16.3301 5.15791 16.2056 5.92035 16.1074 6.33984C15.9772 6.89609 15.7546 7.77831 15.5615 8.6748C15.3651 9.58731 15.2189 10.4305 15.2188 10.9062V15.377C15.2136 15.9357 15.1897 16.8357 15.1338 17.7246C15.0803 18.574 14.9939 19.4705 14.8535 20.042C14.7864 20.4073 14.6035 21.3403 14.2178 22.1895C13.8663 22.9628 13.2034 23.9666 12.0498 23.9961L12.0508 24C12.0372 24.0002 12.0232 23.9981 12.0098 23.998C11.9964 23.9981 11.9822 24.0002 11.9688 24V23.9961C10.8159 23.9658 10.1531 22.9625 9.80176 22.1895C9.41601 21.3403 9.23413 20.4073 9.16699 20.042C9.02662 19.4705 8.93919 18.574 8.88574 17.7246C8.82983 16.8357 8.80589 15.9357 8.80078 15.377V10.9062C8.80062 10.4305 8.65448 9.58732 8.45801 8.6748C8.26496 7.77828 8.04232 6.89608 7.91211 6.33984C7.81396 5.92034 7.6894 5.15796 7.50391 4.06738C7.37186 3.29043 7.48263 2.61577 7.79297 2.05566C7.80424 2.03537 7.8174 2.01596 7.8291 1.99609C8.01448 2.30394 8.40353 2.54239 8.88672 2.63867C8.88343 2.64441 8.88016 2.65047 8.87695 2.65625C8.72034 2.93907 8.63552 3.32203 8.72656 3.8584C8.88348 4.78096 8.98952 5.42 9.07031 5.82422C9.57495 6.12963 10.6927 6.60927 12.0928 6.57422C13.4149 6.56959 14.4656 6.11746 14.9502 5.82422C15.031 5.41999 15.1371 4.78083 15.2939 3.8584C15.385 3.32199 15.2992 2.93906 15.1426 2.65625C15.1391 2.65005 15.1344 2.64386 15.1309 2.6377C15.6145 2.54057 16.0035 2.30115 16.1875 1.99219C16.2 2.01338 16.2145 2.03399 16.2266 2.05566ZM12.0098 10.3906C11.5945 10.4106 11.1613 10.5512 10.7666 10.748C10.4741 10.894 10.2222 11.06 10.04 11.1982V15.3662L10.0635 16.3848C10.0768 16.7792 10.0969 17.215 10.124 17.6465C10.1794 18.5267 10.2626 19.3361 10.376 19.7754L10.3818 19.7969L10.3857 19.8184C10.4506 20.1714 10.6124 20.9749 10.9307 21.6758C11.2684 22.419 11.6406 22.751 12.0098 22.7598C12.379 22.7512 12.752 22.4192 13.0898 21.6758C13.4081 20.975 13.5689 20.1714 13.6338 19.8184L13.6377 19.7969L13.6436 19.7754C13.7569 19.3361 13.8411 18.5267 13.8965 17.6465C13.9236 17.215 13.9428 16.7792 13.9561 16.3848L13.9795 15.3662V11.1982C13.7973 11.06 13.5454 10.894 13.2529 10.748C12.8581 10.5512 12.4251 10.4106 12.0098 10.3906ZM14.5928 7.3584C13.9287 7.6064 13.0818 7.80466 12.123 7.81152L12.124 7.8125C12.0859 7.81345 12.0476 7.81119 12.0098 7.81152C11.972 7.81119 11.9336 7.81345 11.8955 7.8125C10.9374 7.80546 10.0915 7.60625 9.42773 7.3584C9.50706 7.69549 9.59268 8.05634 9.66992 8.41504C9.76827 8.87188 9.86153 9.34942 9.93066 9.79004C10.0208 9.73877 10.1157 9.68813 10.2129 9.63965C10.689 9.40221 11.2802 9.192 11.9111 9.1543V9.14648C11.944 9.14649 11.9771 9.1494 12.0098 9.15039C12.0425 9.1494 12.0755 9.1465 12.1084 9.14648V9.1543C12.7393 9.19196 13.3305 9.4022 13.8066 9.63965C13.9039 9.68816 13.9987 9.73873 14.0889 9.79004C14.158 9.34939 14.2522 8.87191 14.3506 8.41504C14.4278 8.0563 14.5134 7.69552 14.5928 7.3584ZM12.2285 0.197266C12.8159 0.209323 13.5388 0.300617 14.2256 0.533203C13.5582 0.651044 13.0584 1.03908 13.0059 1.50977C12.6807 1.4585 12.3619 1.43494 12.0801 1.43555C12.0572 1.43486 12.0333 1.43591 12.0098 1.43555C11.9865 1.43591 11.9631 1.43585 11.9404 1.43652L11.9395 1.43555C11.6559 1.43498 11.335 1.45871 11.0078 1.51074C10.9561 1.04051 10.4589 0.652992 9.79297 0.53418C10.4801 0.301101 11.2033 0.20935 11.791 0.197266H12.2285Z" fill="black"/>
<path d="M10.5149 1.59096C10.5149 1.50718 10.4631 1.36945 10.2525 1.22978C10.0455 1.09266 9.73102 0.991567 9.35869 0.991567C8.98635 0.991567 8.67189 1.09266 8.46492 1.22978C8.25423 1.36945 8.2025 1.50718 8.2025 1.59096C8.2025 1.67474 8.25423 1.81247 8.46492 1.95215C8.67189 2.08926 8.98635 2.19036 9.35869 2.19036C9.73102 2.19036 10.0455 2.08926 10.2525 1.95215C10.4631 1.81247 10.5149 1.67474 10.5149 1.59096ZM11.5064 1.59096C11.5064 2.112 11.1877 2.52143 10.8005 2.77813C10.4096 3.0373 9.89854 3.18192 9.35869 3.18192C8.81884 3.18192 8.30778 3.0373 7.91685 2.77813C7.52967 2.52143 7.21094 2.112 7.21094 1.59096C7.21094 1.06992 7.52967 0.660496 7.91685 0.403792C8.30778 0.144623 8.81884 0 9.35869 0C9.89854 0 10.4096 0.144623 10.8005 0.403792C11.1877 0.660496 11.5064 1.06992 11.5064 1.59096Z" fill="#DC2626"/>
<path d="M15.8 1.59096C15.8 1.50718 15.7483 1.36945 15.5376 1.22978C15.3306 1.09266 15.0162 0.991567 14.6438 0.991567C14.2715 0.991567 13.957 1.09266 13.7501 1.22978C13.5394 1.36945 13.4877 1.50718 13.4877 1.59096C13.4877 1.67474 13.5394 1.81247 13.7501 1.95215C13.957 2.08926 14.2715 2.19036 14.6438 2.19036C15.0162 2.19036 15.3306 2.08926 15.5376 1.95215C15.7483 1.81247 15.8 1.67474 15.8 1.59096ZM16.7916 1.59096C16.7916 2.112 16.4729 2.52143 16.0857 2.77813C15.6948 3.0373 15.1837 3.18192 14.6438 3.18192C14.104 3.18192 13.5929 3.0373 13.202 2.77813C12.8148 2.52143 12.4961 2.112 12.4961 1.59096C12.4961 1.06992 12.8148 0.660496 13.202 0.403792C13.5929 0.144623 14.104 0 14.6438 0C15.1837 0 15.6948 0.144623 16.0857 0.403792C16.4729 0.660496 16.7916 1.06992 16.7916 1.59096Z" fill="#DC2626"/>
<path d="M13.1594 4.57534C13.1594 4.49155 13.1077 4.35383 12.897 4.21415C12.69 4.07704 12.3756 3.97594 12.0032 3.97594C11.6309 3.97594 11.3164 4.07704 11.1095 4.21415C10.8988 4.35383 10.847 4.49155 10.847 4.57534C10.847 4.65912 10.8988 4.79685 11.1095 4.93652C11.3164 5.07364 11.6309 5.17473 12.0032 5.17473C12.3756 5.17473 12.69 5.07364 12.897 4.93652C13.1077 4.79685 13.1594 4.65912 13.1594 4.57534ZM14.151 4.57534C14.151 5.09638 13.8322 5.5058 13.4451 5.76251C13.0541 6.02167 12.5431 6.1663 12.0032 6.1663C11.4634 6.1663 10.9523 6.02167 10.5614 5.76251C10.1742 5.5058 9.85547 5.09638 9.85547 4.57534C9.85547 4.05429 10.1742 3.64487 10.5614 3.38817C10.9523 3.129 11.4634 2.98438 12.0032 2.98438C12.5431 2.98438 13.0541 3.129 13.4451 3.38817C13.8322 3.64487 14.151 4.05429 14.151 4.57534Z" fill="#DC2626"/>
<rect x="11.0859" y="12.4238" width="1.83207" height="1.99282" rx="0.916037" fill="#DC2626"/>
</svg>
