<svg width="16" height="17" viewBox="0 0 16 17" fill="none" xmlns="http://www.w3.org/2000/svg">
<path d="M4.20593 8.05191C4.20593 10.1306 5.57933 11.5888 7.59966 11.7585V12.994H5.63236C5.40965 12.994 5.22935 13.1743 5.22935 13.397C5.22935 13.6198 5.40965 13.7947 5.63236 13.7947H10.3677C10.5904 13.7947 10.7707 13.6198 10.7707 13.397C10.7707 13.1743 10.5904 12.994 10.3677 12.994H8.40037V11.7585C10.426 11.5888 11.7941 10.1306 11.7941 8.05191V6.97548C11.7941 6.75277 11.6191 6.57778 11.3964 6.57778C11.1737 6.57778 10.9934 6.75277 10.9934 6.97548V8.0201C10.9934 9.82833 9.81617 11.0268 8.00266 11.0268C6.18384 11.0268 5.00664 9.82833 5.00664 8.0201V6.97548C5.00664 6.75277 4.83165 6.57778 4.60364 6.57778C4.38092 6.57778 4.20593 6.75277 4.20593 6.97548V8.05191ZM8.00266 9.88666C9.05792 9.88666 9.76848 9.09655 9.76848 7.96707V4.41958C9.76848 3.2848 9.05792 2.5 8.00266 2.5C6.94213 2.5 6.23156 3.2848 6.23156 4.41958V7.96707C6.23156 9.09655 6.94213 9.88666 8.00266 9.88666Z" fill="#939CA3"/>
</svg>
