<svg width="24" height="24" viewBox="0 0 24 24" fill="none" xmlns="http://www.w3.org/2000/svg">
<g clip-path="url(#clip0_2009_763971)">
<path d="M8.54659 3.44776C8.77554 3.15112 8.85289 2.85284 8.85289 2.57303C8.85289 2.216 8.72677 1.8892 8.6288 1.63529C8.45669 1.18916 8.44286 1.07177 8.54659 0.93728C8.74655 0.678372 8.69244 0.311106 8.42594 0.117004C8.15952 -0.0771774 7.78153 -0.0246785 7.58173 0.234229C7.06059 0.909429 7.32468 1.59389 7.49952 2.04674C7.67166 2.49268 7.68557 2.61018 7.58173 2.74452C7.38192 3.00343 7.43591 3.37066 7.7023 3.56488C7.96876 3.75906 8.34674 3.70663 8.54659 3.44776Z" fill="black"/>
<path d="M10.8894 0.234252C10.3682 0.909491 10.6324 1.59391 10.8072 2.04676C10.9794 2.49286 10.9931 2.6102 10.8894 2.74454C10.6895 3.00337 10.7435 3.37068 11.01 3.56486C11.2764 3.75908 11.6544 3.70662 11.8542 3.44775C12.0832 3.15114 12.1606 2.85282 12.1606 2.57301C12.1606 2.21594 12.0345 1.88915 11.9365 1.63524C11.7643 1.18918 11.7505 1.07176 11.8542 0.937264C12.0542 0.678356 12.0001 0.311087 11.7336 0.116984C11.4672 -0.0771574 11.0892 -0.024656 10.8894 0.234252Z" fill="black"/>
<path d="M14.2285 0.234244C13.7073 0.909444 13.9714 1.5939 14.1462 2.04676C14.3183 2.4927 14.3323 2.6102 14.2285 2.74453C14.0286 3.00344 14.0826 3.37067 14.349 3.56489C14.6155 3.75907 14.9934 3.70661 15.1933 3.44774C15.4223 3.1511 15.4997 2.85281 15.4996 2.57301C15.4996 2.21597 15.3735 1.88918 15.2755 1.63527C15.1034 1.18913 15.0896 1.07175 15.1933 0.937255C15.3932 0.678347 15.3391 0.311079 15.0727 0.116977C14.8062 -0.0771651 14.4283 -0.0246635 14.2285 0.234244Z" fill="black"/>
<rect x="3.7" y="9.7" width="6.6" height="11.6" rx="3.3" stroke="#DC2626" stroke-width="1.4"/>
<rect x="13.7" y="9.7" width="6.6" height="11.6" rx="3.3" stroke="#DC2626" stroke-width="1.4"/>
<rect x="1.7" y="6.7" width="20.6" height="16.6" rx="2.3" stroke="black" stroke-width="1.4"/>
</g>
<defs>
<clipPath id="clip0_2009_763971">
<rect width="24" height="24" fill="white"/>
</clipPath>
</defs>
</svg>
