<svg width="24" height="24" viewBox="0 0 24 24" fill="none" xmlns="http://www.w3.org/2000/svg">
<g clip-path="url(#clip0_2005_763942)">
<path d="M9.21875 10.499C11.7031 10.4991 13.9217 10.8821 15.4941 11.4785C16.2827 11.7776 16.8732 12.1177 17.2549 12.46C17.6369 12.8025 17.752 13.0917 17.752 13.3115C17.7518 13.5313 17.6366 13.8198 17.2549 14.1621C16.8732 14.5043 16.2827 14.8444 15.4941 15.1436C13.9217 15.74 11.7031 16.123 9.21875 16.123C6.73428 16.123 4.51492 15.74 2.94238 15.1436C2.15387 14.8444 1.56325 14.5043 1.18164 14.1621C0.799981 13.8198 0.684723 13.5312 0.68457 13.3115C0.68457 13.0918 0.799688 12.8025 1.18164 12.46C1.56325 12.1177 2.15385 11.7776 2.94238 11.4785C4.51492 10.882 6.73428 10.499 9.21875 10.499Z" stroke="black" stroke-width="1.36931"/>
<path d="M17.6059 13.8247C17.2032 15.3168 16.4056 16.7136 15.0202 17.3987C13.6263 18.088 11.6591 18.7151 9.29219 18.7151C4.36557 18.7151 2.21017 16.4329 0.978516 13.8247" stroke="black" stroke-width="1.36931" stroke-linecap="round"/>
<path d="M15.7344 11.086L16.6113 10.4789C17.2495 10.0371 17.8422 9.53285 18.3807 8.97369L19.3213 7.99685C19.5812 7.72701 19.8833 7.50133 20.2157 7.3287L22.0416 6.38065C22.4659 6.16035 22.9871 6.27565 23.2788 6.65437C23.6542 7.14164 23.4975 7.84982 22.9516 8.13327L21.2126 9.03622C21.0303 9.13092 20.8596 9.24669 20.7042 9.38117L20.2095 9.8093C19.4767 10.4435 18.8623 11.2028 18.3951 12.0519L17.8771 12.9933" stroke="black" stroke-width="1.36931" stroke-linecap="round"/>
<path d="M4.89062 13.4985L4.97319 13.4765C6.54157 13.0582 8.15783 12.8464 9.78102 12.8464L12.2262 13.1725L14.6714 13.8245" stroke="#DC2626" stroke-width="1.36931" stroke-linecap="round"/>
</g>
<defs>
<clipPath id="clip0_2005_763942">
<rect width="24" height="24" fill="white"/>
</clipPath>
</defs>
</svg>
