<svg
  width="52"
  height="52"
  viewBox="0 0 52 52"
  fill="none"
  xmlns="http://www.w3.org/2000/svg"
>
  <path
    d="M42.4302 44.5652C46.0586 44.5652 49 41.6238 49 37.9954L49 21.3358C49 19.7831 48.4501 18.2806 47.4477 17.0947L42.574 11.3287C41.3257 9.85187 39.4902 8.99997 37.5565 8.99997L9.56976 8.99997C5.94138 8.99997 3 11.9414 3 15.5697L3 37.9954C3 41.6238 5.94138 44.5652 9.56977 44.5652L42.4302 44.5652Z"
    stroke="#090D14"
    stroke-width="2"
  />
  <path
    d="M16.7743 20.479H17.5243V20.4777H20.9775L19.1457 28.8592L19.1455 28.8598L18.9575 29.724C18.5321 30.9049 17.4684 31.7049 16.2609 31.7049H11.9316L13.8185 23.0712L13.8943 22.756C13.9013 22.7325 13.9084 22.7095 13.9149 22.6895L13.915 22.6895L13.918 22.6801C14.3258 21.3779 15.4688 20.479 16.7743 20.479Z"
    stroke="#DC2626"
    stroke-width="1.5"
  />
  <path
    d="M24.2173 19.9465L24.2179 19.9444C24.5673 18.6564 25.6854 17.7502 26.9705 17.7502H30.9762L27.8008 32.1492L27.7983 32.1489C27.4782 33.4832 26.3382 34.4321 25.0245 34.4321H21.0248L24.1465 20.2724L24.1498 20.2571L24.1525 20.2418C24.1716 20.1342 24.1924 20.0374 24.2173 19.9465Z"
    stroke="#DC2626"
    stroke-width="1.5"
  />
  <path
    d="M33.0474 22.5627C33.0512 22.5512 33.0529 22.5465 33.0529 22.5465L33.0538 22.544C33.4974 21.3134 34.6054 20.4777 35.8652 20.4777H40.0678L38.1474 29.2681L38.1472 29.268C37.8137 30.6958 36.6096 31.7049 35.2269 31.7049H31.0218L32.9525 22.8706L32.9593 22.8481C32.9684 22.8178 32.9807 22.7769 32.9939 22.7338C33.0071 22.6904 33.0208 22.6463 33.0325 22.6091L33.0474 22.5627Z"
    stroke="#DC2626"
    stroke-width="1.5"
  />
</svg>
