<svg width="16" height="16" viewBox="0 0 16 16" fill="none" xmlns="http://www.w3.org/2000/svg">
<g clip-path="url(#clip0_4851_60)">
<path d="M12.677 11.9984C12.8925 12.1441 13.1604 12.0916 13.3176 11.8703C14.0632 10.8452 14.5 9.43574 14.5 7.99708C14.5 6.55848 14.069 5.13733 13.3176 4.12388C13.1604 3.90256 12.8925 3.85014 12.677 3.99575C12.4615 4.14135 12.4266 4.4151 12.5954 4.65391C13.2303 5.55086 13.5972 6.7565 13.5972 7.99708C13.5972 9.23768 13.2186 10.4317 12.5954 11.3403C12.4324 11.5791 12.4615 11.8529 12.677 11.9984Z" fill="#939CA3"/>
<path d="M10.5219 10.4783C10.7142 10.6122 10.9879 10.5714 11.1452 10.3443C11.5937 9.75604 11.8616 8.8882 11.8616 7.99706C11.8616 7.10595 11.5937 6.24394 11.1452 5.64985C10.9879 5.4227 10.7142 5.3761 10.5219 5.51589C10.2832 5.67898 10.2482 5.97019 10.4288 6.20899C10.7666 6.67494 10.9588 7.32145 10.9588 7.99706C10.9588 8.6727 10.7608 9.3134 10.4288 9.78517C10.2541 10.0298 10.2832 10.3094 10.5219 10.4783Z" fill="#939CA3"/>
<path d="M7.77868 13.14C8.16307 13.14 8.43683 12.8663 8.43683 12.4877V3.55309C8.43683 3.17451 8.16307 2.86581 7.76705 2.86581C7.49329 2.86581 7.31273 2.98813 7.01571 3.2677L4.52868 5.59745C4.49373 5.63239 4.44131 5.64987 4.38307 5.64987H2.7173C1.92518 5.64987 1.5 6.0867 1.5 6.92541V9.0921C1.5 9.93663 1.92518 10.3676 2.7173 10.3676H4.38307C4.44131 10.3676 4.49373 10.3851 4.52868 10.42L7.01571 12.7731C7.27779 13.0293 7.50492 13.14 7.77868 13.14Z" fill="#939CA3"/>
</g>
<defs>
<clipPath id="clip0_4851_60">
<rect width="13" height="10.28" fill="white" transform="translate(1.5 2.85999)"/>
</clipPath>
</defs>
</svg>
