<svg width="200" height="201" viewBox="0 0 200 201" fill="none" xmlns="http://www.w3.org/2000/svg">
<circle cx="100" cy="100.961" r="100" fill="url(#paint0_linear_9250_9159)"/>
<path d="M191 100.961C191 151.219 150.258 191.961 100 191.961C49.7421 191.961 9 151.219 9 100.961C9 50.7031 49.7421 9.96106 100 9.96106C150.258 9.96106 191 50.7031 191 100.961Z" fill="#CB1C22"/>
<path d="M80.8555 158.769L82.5393 163.951H87.9884L83.58 167.154L85.2639 172.337L80.8555 169.134L76.4471 172.337L78.1309 167.154L73.7225 163.951H79.1716L80.8555 158.769Z" fill="url(#paint1_linear_9250_9159)"/>
<path d="M101.855 158.769L103.539 163.951H108.988L104.58 167.154L106.264 172.337L101.855 169.134L97.4471 172.337L99.1309 167.154L94.7225 163.951H100.172L101.855 158.769Z" fill="url(#paint2_linear_9250_9159)"/>
<path d="M122.855 158.769L124.539 163.951H129.988L125.58 167.154L127.264 172.337L122.855 169.134L118.447 172.337L120.131 167.154L115.723 163.951H121.172L122.855 158.769Z" fill="url(#paint3_linear_9250_9159)"/>
<path fill-rule="evenodd" clip-rule="evenodd" d="M99.9988 10.9872C50.3076 10.9872 10.0249 51.2699 10.0249 100.961C10.0249 150.652 50.3076 190.935 99.9988 190.935C149.69 190.935 189.973 150.652 189.973 100.961C189.973 51.2699 149.69 10.9872 99.9988 10.9872ZM7.97266 100.961C7.97266 50.1364 49.1742 8.93494 99.9988 8.93494C150.823 8.93494 192.025 50.1364 192.025 100.961C192.025 151.786 150.823 192.987 99.9988 192.987C49.1742 192.987 7.97266 151.786 7.97266 100.961Z" fill="url(#paint4_linear_9250_9159)"/>
<g filter="url(#filter0_d_9250_9159)">
<path d="M94.7476 43.4173H88.8685C88.8268 42.9308 88.7156 42.4896 88.5349 42.0935C88.3612 41.6973 88.118 41.3568 87.8052 41.0719C87.4995 40.78 87.1277 40.5577 86.6899 40.4048C86.2521 40.2449 85.7552 40.165 85.1992 40.165C84.2263 40.165 83.4028 40.4013 82.7288 40.8738C82.0616 41.3464 81.5543 42.024 81.2068 42.9065C80.8663 43.7891 80.6961 44.8489 80.6961 46.0858C80.6961 47.3923 80.8698 48.4868 81.2173 49.3694C81.5717 50.245 82.0825 50.9052 82.7496 51.35C83.4167 51.7878 84.2194 52.0067 85.1575 52.0067C85.6926 52.0067 86.1721 51.9407 86.5961 51.8086C87.02 51.6696 87.3883 51.4716 87.701 51.2144C88.0137 50.9573 88.2674 50.6481 88.4619 50.2867C88.6635 49.9184 88.799 49.5049 88.8685 49.0463L94.7476 49.088C94.6781 49.9914 94.4245 50.9122 93.9867 51.8503C93.5489 52.7815 92.9269 53.6432 92.1208 54.4355C91.3216 55.2207 90.3313 55.8531 89.1499 56.3326C87.9685 56.8121 86.5961 57.0519 85.0325 57.0519C83.0727 57.0519 81.3146 56.6314 79.7579 55.7906C78.2082 54.9497 76.9817 53.7127 76.0782 52.0796C75.1818 50.4465 74.7336 48.4486 74.7336 46.0858C74.7336 43.7092 75.1922 41.7078 76.1095 40.0816C77.0268 38.4485 78.2638 37.215 79.8205 36.3811C81.3771 35.5402 83.1144 35.1198 85.0325 35.1198C86.3806 35.1198 87.6211 35.304 88.7538 35.6723C89.8866 36.0406 90.8803 36.5792 91.7351 37.288C92.5898 37.9899 93.2778 38.8551 93.799 39.8836C94.3202 40.9121 94.6364 42.09 94.7476 43.4173ZM97.3771 56.76V35.4117H103.173V43.7509H110.845V35.4117H116.641V56.76H110.845V48.4208H103.173V56.76H97.3771ZM125.188 35.4117V56.76H119.393V35.4117H125.188ZM124.313 33.035H120.185L119.809 31.4089C120.553 31.388 121.081 31.2942 121.394 31.1274C121.714 30.9606 121.866 30.7626 121.853 30.5332C121.866 30.158 121.686 29.9182 121.311 29.814C120.942 29.7098 120.47 29.6576 119.893 29.6576L120.018 27.3644C122.158 27.3644 123.788 27.6145 124.907 28.1149C126.026 28.6152 126.578 29.3241 126.564 30.2414C126.578 30.8251 126.349 31.2768 125.876 31.5965C125.411 31.9162 124.889 32.1177 124.313 32.2011V33.035Z" fill="white"/>
</g>
<g filter="url(#filter1_d_9250_9159)">
<path d="M51.7349 87.9679C51.7349 91.4841 51.0512 94.4503 49.6838 96.8664C48.3163 99.2722 46.4708 101.097 44.1473 102.341C41.8237 103.575 39.2328 104.192 36.3746 104.192C33.4958 104.192 30.8946 103.57 28.571 102.326C26.2577 101.071 24.4174 99.2414 23.0499 96.8355C21.6928 94.4194 21.0142 91.4635 21.0142 87.9679C21.0142 84.4517 21.6928 81.4906 23.0499 79.0848C24.4174 76.6687 26.2577 74.8437 28.571 73.61C30.8946 72.3659 33.4958 71.7439 36.3746 71.7439C39.2328 71.7439 41.8237 72.3659 44.1473 73.61C46.4708 74.8437 48.3163 76.6687 49.6838 79.0848C51.0512 81.4906 51.7349 84.4517 51.7349 87.9679ZM42.9135 87.9679C42.9135 86.0761 42.6616 84.4825 42.1578 83.187C41.6643 81.8813 40.9292 80.8943 39.9525 80.226C38.986 79.5475 37.7934 79.2082 36.3746 79.2082C34.9557 79.2082 33.758 79.5475 32.7812 80.226C31.8148 80.8943 31.0797 81.8813 30.5759 83.187C30.0824 84.4825 29.8356 86.0761 29.8356 87.9679C29.8356 89.8596 30.0824 91.4584 30.5759 92.7641C31.0797 94.0596 31.8148 95.0466 32.7812 95.7251C33.758 96.3934 34.9557 96.7276 36.3746 96.7276C37.7934 96.7276 38.986 96.3934 39.9525 95.7251C40.9292 95.0466 41.6643 94.0596 42.1578 92.7641C42.6616 91.4584 42.9135 89.8596 42.9135 87.9679ZM83.03 72.1757V103.76H75.8742L64.4619 87.1659H64.2768V103.76H55.7022V72.1757H62.9814L74.2086 88.7081H74.4554V72.1757H83.03ZM87.086 103.76V72.1757H95.6606V96.8509H108.43V103.76H87.086ZM120.471 72.1757V103.76H111.896V72.1757H120.471ZM151.862 72.1757V103.76H144.706L133.294 87.1659H133.109V103.76H124.534V72.1757H131.814L143.041 88.7081H143.288V72.1757H151.862ZM155.918 103.76V72.1757H178.681V79.0848H164.493V84.5133H177.509V91.4224H164.493V96.8509H178.619V103.76H155.918Z" fill="url(#paint5_linear_9250_9159)"/>
</g>
<g filter="url(#filter2_d_9250_9159)">
<path d="M40.2812 119.487H48.1449L53.554 132.669H53.8267L59.2358 119.487H67.0994V142.76H60.9176V129.305H60.7358L55.554 142.578H51.8267L46.6449 129.215H46.4631V142.76H40.2812V119.487ZM91.6847 118.715H95.0938C95.0938 121.033 94.6278 122.84 93.696 124.135C92.7718 125.43 91.2528 126.078 89.1392 126.078V123.396C90.1847 123.396 90.8703 122.987 91.196 122.169C91.5218 121.343 91.6847 120.192 91.6847 118.715ZM92.6392 131.124C92.6392 133.715 92.1354 135.9 91.1278 137.68C90.1203 139.453 88.7604 140.798 87.0483 141.715C85.3362 142.624 83.4271 143.078 81.321 143.078C79.1998 143.078 77.2831 142.62 75.571 141.703C73.8665 140.779 72.5104 139.43 71.5028 137.658C70.5028 135.877 70.0028 133.699 70.0028 131.124C70.0028 128.533 70.5028 126.351 71.5028 124.578C72.5104 122.798 73.8665 121.453 75.571 120.544C77.2831 119.627 79.1998 119.169 81.321 119.169C83.4271 119.169 85.3362 119.627 87.0483 120.544C88.7604 121.453 90.1203 122.798 91.1278 124.578C92.1354 126.351 92.6392 128.533 92.6392 131.124ZM86.1392 131.124C86.1392 129.73 85.9536 128.555 85.5824 127.601C85.2188 126.639 84.6771 125.912 83.9574 125.419C83.2453 124.919 82.3665 124.669 81.321 124.669C80.2756 124.669 79.393 124.919 78.6733 125.419C77.9612 125.912 77.4195 126.639 77.0483 127.601C76.6847 128.555 76.5028 129.73 76.5028 131.124C76.5028 132.518 76.6847 133.696 77.0483 134.658C77.4195 135.612 77.9612 136.34 78.6733 136.84C79.393 137.332 80.2756 137.578 81.321 137.578C82.3665 137.578 83.2453 137.332 83.9574 136.84C84.6771 136.34 85.2188 135.612 85.5824 134.658C85.9536 133.696 86.1392 132.518 86.1392 131.124ZM79.2301 117.305L81.4119 112.215H86.7756L83.3665 117.305H79.2301ZM103.287 119.487V142.76H96.9688V119.487H103.287ZM134.384 128.215H127.974C127.929 127.684 127.808 127.203 127.611 126.771C127.421 126.34 127.156 125.968 126.815 125.658C126.482 125.34 126.077 125.097 125.599 124.93C125.122 124.756 124.58 124.669 123.974 124.669C122.914 124.669 122.016 124.927 121.281 125.442C120.554 125.957 120.001 126.696 119.622 127.658C119.251 128.62 119.065 129.775 119.065 131.124C119.065 132.548 119.255 133.741 119.634 134.703C120.02 135.658 120.577 136.377 121.304 136.862C122.031 137.34 122.906 137.578 123.929 137.578C124.512 137.578 125.035 137.506 125.497 137.362C125.959 137.211 126.361 136.995 126.702 136.715C127.043 136.434 127.319 136.097 127.531 135.703C127.751 135.302 127.899 134.851 127.974 134.351L134.384 134.396C134.308 135.381 134.031 136.385 133.554 137.408C133.077 138.423 132.399 139.362 131.52 140.226C130.649 141.082 129.569 141.771 128.281 142.294C126.993 142.817 125.497 143.078 123.793 143.078C121.656 143.078 119.74 142.62 118.043 141.703C116.353 140.787 115.016 139.438 114.031 137.658C113.054 135.877 112.565 133.699 112.565 131.124C112.565 128.533 113.065 126.351 114.065 124.578C115.065 122.798 116.414 121.453 118.111 120.544C119.808 119.627 121.702 119.169 123.793 119.169C125.262 119.169 126.615 119.37 127.849 119.771C129.084 120.173 130.168 120.76 131.099 121.533C132.031 122.298 132.781 123.241 133.349 124.362C133.918 125.483 134.262 126.768 134.384 128.215ZM159.795 131.124C159.795 133.715 159.292 135.9 158.284 137.68C157.277 139.453 155.917 140.798 154.205 141.715C152.492 142.624 150.583 143.078 148.477 143.078C146.356 143.078 144.439 142.62 142.727 141.703C141.023 140.779 139.667 139.43 138.659 137.658C137.659 135.877 137.159 133.699 137.159 131.124C137.159 128.533 137.659 126.351 138.659 124.578C139.667 122.798 141.023 121.453 142.727 120.544C144.439 119.627 146.356 119.169 148.477 119.169C150.583 119.169 152.492 119.627 154.205 120.544C155.917 121.453 157.277 122.798 158.284 124.578C159.292 126.351 159.795 128.533 159.795 131.124ZM153.295 131.124C153.295 129.73 153.11 128.555 152.739 127.601C152.375 126.639 151.833 125.912 151.114 125.419C150.402 124.919 149.523 124.669 148.477 124.669C147.432 124.669 146.549 124.919 145.83 125.419C145.117 125.912 144.576 126.639 144.205 127.601C143.841 128.555 143.659 129.73 143.659 131.124C143.659 132.518 143.841 133.696 144.205 134.658C144.576 135.612 145.117 136.34 145.83 136.84C146.549 137.332 147.432 137.578 148.477 137.578C149.523 137.578 150.402 137.332 151.114 136.84C151.833 136.34 152.375 135.612 152.739 134.658C153.11 133.696 153.295 132.518 153.295 131.124ZM146.386 117.305L148.568 112.215H153.932L150.523 117.305H146.386Z" fill="white"/>
</g>
<defs>
<filter id="filter0_d_9250_9159" x="74.3604" y="27.3644" width="52.5995" height="30.4354" filterUnits="userSpaceOnUse" color-interpolation-filters="sRGB">
<feFlood flood-opacity="0" result="BackgroundImageFix"/>
<feColorMatrix in="SourceAlpha" type="matrix" values="0 0 0 0 0 0 0 0 0 0 0 0 0 0 0 0 0 0 127 0" result="hardAlpha"/>
<feOffset dy="0.373946"/>
<feGaussianBlur stdDeviation="0.186973"/>
<feColorMatrix type="matrix" values="0 0 0 0 0 0 0 0 0 0 0 0 0 0 0 0 0 0 0.3 0"/>
<feBlend mode="normal" in2="BackgroundImageFix" result="effect1_dropShadow_9250_9159"/>
<feBlend mode="normal" in="SourceGraphic" in2="effect1_dropShadow_9250_9159" result="shape"/>
</filter>
<filter id="filter1_d_9250_9159" x="20.6998" y="71.7439" width="158.296" height="33.0756" filterUnits="userSpaceOnUse" color-interpolation-filters="sRGB">
<feFlood flood-opacity="0" result="BackgroundImageFix"/>
<feColorMatrix in="SourceAlpha" type="matrix" values="0 0 0 0 0 0 0 0 0 0 0 0 0 0 0 0 0 0 127 0" result="hardAlpha"/>
<feOffset dy="0.313839"/>
<feGaussianBlur stdDeviation="0.156919"/>
<feColorMatrix type="matrix" values="0 0 0 0 0 0 0 0 0 0 0 0 0 0 0 0 0 0 0.3 0"/>
<feBlend mode="normal" in2="BackgroundImageFix" result="effect1_dropShadow_9250_9159"/>
<feBlend mode="normal" in="SourceGraphic" in2="effect1_dropShadow_9250_9159" result="shape"/>
</filter>
<filter id="filter2_d_9250_9159" x="39.9073" y="112.215" width="120.262" height="31.6115" filterUnits="userSpaceOnUse" color-interpolation-filters="sRGB">
<feFlood flood-opacity="0" result="BackgroundImageFix"/>
<feColorMatrix in="SourceAlpha" type="matrix" values="0 0 0 0 0 0 0 0 0 0 0 0 0 0 0 0 0 0 127 0" result="hardAlpha"/>
<feOffset dy="0.373946"/>
<feGaussianBlur stdDeviation="0.186973"/>
<feColorMatrix type="matrix" values="0 0 0 0 0 0 0 0 0 0 0 0 0 0 0 0 0 0 0.3 0"/>
<feBlend mode="normal" in2="BackgroundImageFix" result="effect1_dropShadow_9250_9159"/>
<feBlend mode="normal" in="SourceGraphic" in2="effect1_dropShadow_9250_9159" result="shape"/>
</filter>
<linearGradient id="paint0_linear_9250_9159" x1="100" y1="0.96106" x2="100" y2="200.961" gradientUnits="userSpaceOnUse">
<stop stop-color="#FBF9EB"/>
<stop offset="1" stop-color="#F3C78F"/>
</linearGradient>
<linearGradient id="paint1_linear_9250_9159" x1="80.8555" y1="158.769" x2="80.8555" y2="173.769" gradientUnits="userSpaceOnUse">
<stop stop-color="#FBF9EB"/>
<stop offset="1" stop-color="#F3C78F"/>
</linearGradient>
<linearGradient id="paint2_linear_9250_9159" x1="101.855" y1="158.769" x2="101.855" y2="173.769" gradientUnits="userSpaceOnUse">
<stop stop-color="#FBF9EB"/>
<stop offset="1" stop-color="#F3C78F"/>
</linearGradient>
<linearGradient id="paint3_linear_9250_9159" x1="122.855" y1="158.769" x2="122.855" y2="173.769" gradientUnits="userSpaceOnUse">
<stop stop-color="#FBF9EB"/>
<stop offset="1" stop-color="#F3C78F"/>
</linearGradient>
<linearGradient id="paint4_linear_9250_9159" x1="-40.0012" y1="75.2866" x2="134.999" y2="75.2866" gradientUnits="userSpaceOnUse">
<stop stop-color="#FBF8E0"/>
<stop offset="1" stop-color="#DCAF75"/>
</linearGradient>
<linearGradient id="paint5_linear_9250_9159" x1="100" y1="62.76" x2="100" y2="112.76" gradientUnits="userSpaceOnUse">
<stop stop-color="#FBF9EB"/>
<stop offset="1" stop-color="#F3C78F"/>
</linearGradient>
</defs>
</svg>
