<svg width="52" height="52" viewBox="0 0 52 52" fill="none" xmlns="http://www.w3.org/2000/svg">
<rect x="11" y="4" width="30" height="44" rx="6.56977" stroke="#090D14" stroke-width="2"/>
<path d="M24.2457 30C23.4364 30 22.712 29.7759 22.0726 29.3277C21.4331 28.8795 20.9278 28.2289 20.5567 27.3759C20.1856 26.5229 20 25.4867 20 24.2675C20 23.0337 20.1878 21.9928 20.5634 21.1446C20.9435 20.2916 21.4555 19.6482 22.0994 19.2145C22.7433 18.7759 23.461 18.5566 24.2524 18.5566C24.8561 18.5566 25.3524 18.6675 25.7415 18.8892C26.1305 19.106 26.439 19.3687 26.6671 19.6771C26.8852 19.9675 27.0562 20.2424 27.1803 20.5019C27.1906 20.5235 27.2122 20.5373 27.2362 20.5373C27.2701 20.5373 27.2976 20.5099 27.2976 20.4759V16.2174C27.2976 15.545 27.8426 15 28.5149 15C29.1873 15 29.7323 15.545 29.7323 16.2174V28.6109C29.7323 29.2703 29.1978 29.8048 28.5384 29.8048H28.2192C27.7361 29.8048 27.3445 29.4132 27.3445 28.9301V28.1455C27.3445 28.0957 27.3042 28.0554 27.2545 28.0554C27.2194 28.0554 27.1876 28.0758 27.1723 28.1074C27.0484 28.362 26.8755 28.6314 26.6537 28.9157C26.4167 29.2145 26.1037 29.4699 25.7146 29.6819C25.3256 29.894 24.836 30 24.2457 30ZM24.9232 27.853C25.4374 27.853 25.8756 27.7036 26.2378 27.4048C26.6 27.1012 26.875 26.6795 27.0628 26.1398C27.2506 25.6 27.3445 24.9711 27.3445 24.253C27.3445 23.5349 27.2506 22.9108 27.0628 22.3807C26.8795 21.8506 26.6067 21.4386 26.2445 21.1446C25.8868 20.8506 25.4463 20.7036 24.9232 20.7036C24.3821 20.7036 23.9305 20.8554 23.5683 21.159C23.2061 21.4627 22.9333 21.8819 22.75 22.4169C22.5667 22.9518 22.475 23.5639 22.475 24.253C22.475 24.947 22.5667 25.5663 22.75 26.1108C22.9378 26.6506 23.2128 27.0771 23.575 27.3904C23.9417 27.6988 24.3911 27.853 24.9232 27.853ZM25.4021 17.8699C24.945 17.8699 24.5744 17.4993 24.5744 17.0422C24.5744 16.585 24.945 16.2145 25.4021 16.2145H30.1723C30.6294 16.2145 31 16.585 31 17.0422C31 17.4993 30.6294 17.8699 30.1723 17.8699H25.4021Z" fill="#DC2626"/>
<path d="M21 42H31" stroke="#DC2626" stroke-width="2" stroke-linecap="round"/>
</svg>
